<svg xmlns="http://www.w3.org/2000/svg" viewBox="0 0 1158 740.18"><defs><style>.cls-1,.cls-8,.cls-9{fill:#0071bc;}.cls-1{opacity:0.3;}.cls-2{fill:#29abe2;}.cls-3{fill:#1b2746;}.cls-4{fill:#0e2549;}.cls-5{fill:#ebf4fe;}.cls-6{fill:#6dc4e2;}.cls-7{fill:#fff;}.cls-9{opacity:0.5;}.cls-10{fill:#f9e5ef;}.cls-11{fill:#2e3552;}</style></defs><title>Asset 3teenagers_1</title><g id="Layer_2" data-name="Layer 2"><g id="Layer_1-2" data-name="Layer 1"><path class="cls-1" d="M933.54,737s110.83-10.48,118.09-132.81S854.05,330.69,820.79,270.07,734.84,27.84,585,21.91s-251.5.41-294.34,142.87S197,391.66,148,446.28,71.83,690.55,189.77,737.52h0Z"/><polygon class="cls-2" points="602.62 63.85 747.21 63.85 747.21 130.7 747.21 136.25 747.21 169.51 705.83 136.25 602.62 136.25 602.62 63.85"/><path class="cls-3" d="M748.12,171.43,705.5,137.17H601.71V62.93H748.12Zm-144.58-36.1H706.15l.25.2,39.89,32.07V64.77H603.54Z"/><path class="cls-4" d="M727.93,82.1H625.1a.92.92,0,0,1,0-1.84H727.93a.92.92,0,0,1,0,1.84Z"/><path class="cls-4" d="M727.93,98.16H660.4a.92.92,0,1,1,0-1.84h67.53a.92.92,0,0,1,0,1.84Z"/><polygon class="cls-2" points="504.84 0.92 374.84 0.92 374.84 62.3 374.84 67.39 374.84 97.94 412.04 67.39 504.84 67.39 504.84 0.92"/><path class="cls-3" d="M373.92,99.88V0H505.76V68.31H412.37Zm1.84-98V96l35.95-29.52h92.21V1.84Z"/><path class="cls-4" d="M484.63,17.75H393.92a.92.92,0,1,1,0-1.83h90.71a.92.92,0,0,1,0,1.83Z"/><path class="cls-4" d="M484.63,32.5H393.92a.92.92,0,0,1,0-1.84h90.71a.92.92,0,0,1,0,1.84Z"/><path class="cls-4" d="M435.75,47.25H393.92a.92.92,0,0,1,0-1.84h41.83a.92.92,0,0,1,0,1.84Z"/><path class="cls-5" d="M283.28,446.28l514-1c2.83,0,5.15-3.3,5.15-7.35v-.85c0-4-2.32-7.35-5.15-7.35l-514,1c-2.83,0-5.15,3.31-5.15,7.35v.85C278.13,443,280.45,446.28,283.28,446.28Z"/><path class="cls-4" d="M283.28,447.2h0c-3.34,0-6.07-3.71-6.07-8.26v-.86c0-4.56,2.73-8.27,6.07-8.27l514-1c3.35,0,6.07,3.71,6.07,8.27v.85c0,4.56-2.72,8.27-6.07,8.27Zm514-16.54-514,1c-2.29,0-4.23,2.94-4.23,6.43v.86c0,3.48,1.94,6.42,4.23,6.43l514-1c2.3,0,4.24-2.95,4.24-6.44v-.85C801.53,433.6,799.59,430.66,797.29,430.66Z"/><polygon class="cls-5" points="820.11 737.08 835.67 737.08 763.94 445.41 748.39 445.41 820.11 737.08"/><path class="cls-4" d="M836.77,737.94H819.43l-.16-.65-72-292.74h17.34l.16.66Zm-16-1.72h13.77L763.27,446.28H749.49Z"/><polygon class="cls-5" points="285.21 737.08 269.65 737.08 312.55 446.28 328.11 446.28 285.21 737.08"/><path class="cls-4" d="M286,738H268.59l43.17-292.63h17.41Zm-15.29-1.84h13.71l42.63-289h-13.7Z"/><polygon class="cls-6" points="465.38 415.21 522.28 415.21 510.15 357.66 453.26 357.66 465.38 415.21"/><path class="cls-3" d="M523.41,416.13H464.64l-12.51-59.39H510.9Zm-57.28-1.83h55l-11.74-55.72h-55Z"/><rect class="cls-7" x="491.91" y="315.95" width="8.45" height="2.29" transform="translate(-11.74 19.16) rotate(-2.19)"/><path class="cls-8" d="M350.27,371.33H622.08a16.62,16.62,0,0,0,16.62-16.62L595.4,166.4c-1.29-10.11-7.44-16.62-16.62-16.62H307a16.62,16.62,0,0,0-16.62,16.62l43.3,188.31C335.81,363.94,341.09,371.33,350.27,371.33Z"/><path class="cls-4" d="M622.08,372.25H350.27c-8.55,0-14.94-6.32-17.52-17.33L289.43,166.5v-.1A17.56,17.56,0,0,1,307,148.86H578.78c9.43,0,16.14,6.66,17.53,17.38l43.31,188.37v.1A17.56,17.56,0,0,1,622.08,372.25ZM291.27,166.3l43.27,188.2c1.39,5.94,5.29,15.91,15.73,15.91H622.08a15.71,15.71,0,0,0,15.7-15.6L594.5,166.56v-.05c-1.26-9.9-7.13-15.81-15.71-15.81H307A15.71,15.71,0,0,0,291.27,166.3Z"/><polygon class="cls-6" points="349.45 342.9 620.32 342.9 577.02 164.78 306.15 164.78 349.45 342.9"/><path class="cls-3" d="M621.49,343.82H348.73L305,163.86H577.74l.17.7ZM350.18,342h269L576.3,165.7h-269Z"/><polygon class="cls-9" points="532.01 329.73 529.36 329.74 511.63 329.81 510.12 329.81 451.37 330.04 425.49 330.14 423.7 330.14 420.77 330.15 420.62 330.15 412.85 330.19 412.84 330.19 410.81 330.19 409.69 330.2 395.73 330.25 395.37 330.25 391.32 330.27 384.05 330.3 383.01 330.3 382.88 330.3 370.88 330.35 362.82 330.38 323.91 177.95 493.1 177.3 529.13 318.46 531.11 326.22 532.01 329.73"/><rect class="cls-9" x="435.12" y="414.99" width="117.53" height="15.23"/><path class="cls-3" d="M553.57,431.14H434.2V414.07H553.57ZM436,429.3h115.7V415.91H436Z"/><rect class="cls-9" x="418.69" y="123.75" width="39.96" height="15.23"/><path class="cls-3" d="M459.58,139.89H417.77V122.83h41.81Zm-40-1.83h38.13v-13.4H419.61Z"/><path class="cls-4" d="M478.22,357.44a6.67,6.67,0,1,0,6.67-6.67A6.66,6.66,0,0,0,478.22,357.44Z"/><path class="cls-3" d="M494,177.08l-.18-.7L322.73,177l39.2,153.57.18.7,148-.57,23.06-.09ZM325.1,178.86l82.55-.31,38.73,150.59-82.85.31ZM448.27,329.13,409.54,178.54l82.85-.31,38.44,150.58Z"/><rect class="cls-3" x="343.29" y="252.92" width="169.35" height="1.84"/><polygon class="cls-10" points="432.03 138.97 434.2 149.78 447.64 149.78 445.65 138.97 432.03 138.97"/><path class="cls-3" d="M448.74,150.7h-15.3l-2.53-12.64h15.51ZM435,148.86h11.59l-1.65-9H433.16Z"/><circle class="cls-4" cx="438.61" cy="131.76" r="4.41"/><path class="cls-3" d="M567.17,184.37H514.71a.92.92,0,1,1,0-1.84h52.46a.92.92,0,0,1,0,1.84Z"/><path class="cls-3" d="M553.76,195.47H528.11a.92.92,0,0,1,0-1.84h25.65a.92.92,0,1,1,0,1.84Z"/><path class="cls-3" d="M568.68,324.81a19.38,19.38,0,1,1,19.38-19.38A19.4,19.4,0,0,1,568.68,324.81Zm0-36.92a17.54,17.54,0,1,0,17.54,17.54A17.56,17.56,0,0,0,568.68,287.89Z"/><path class="cls-8" d="M568.91,299.69c-4.11.1-9.07,1.28-11.47,2.77-3,1.88-3,4.83-2.84,7.09a1.71,1.71,0,0,0,2.25,1.54l4.64-1.25a2.07,2.07,0,0,0,1.44-2.2l-.55-2.62a.32.32,0,0,1,.33-.35c1.2.08,11.1,0,12.31-.15a.27.27,0,0,1,.29.35l-.54,2.55a1.73,1.73,0,0,0,1.43,2.24l4.27,1.08a2.06,2.06,0,0,0,2.2-1.77c.76-5.26-1.72-7.25-3.73-7.92A41.24,41.24,0,0,0,568.91,299.69Z"/><path class="cls-8" d="M360.68,393.89a5.61,5.61,0,0,0-4.08-3c-2.93-.5-6.38,1.13-9,2.76v-7.25h-53.9v16.35a27,27,0,0,0,26.95,26.95h0a26.92,26.92,0,0,0,21.7-11c.36,0,.71,0,1.07,0,6.1,0,11.59-3.21,15.18-8.94C362.07,404.4,362.91,397.83,360.68,393.89Zm-3.6,15c-3.22,5.13-8.08,8-13.48,8.07a26.81,26.81,0,0,0,4-14.17v-6.9c2.39-1.64,5.93-3.61,8.66-3.15a3.82,3.82,0,0,1,2.79,2.06C361,398.12,360.12,404,357.08,408.89Z"/><path class="cls-7" d="M310.63,423a1.26,1.26,0,0,1-.59-.15c-12.39-6.84-10.91-27.62-10.84-28.5a1.23,1.23,0,1,1,2.45.19c0,.2-1.43,20.09,9.57,26.17a1.21,1.21,0,0,1,.48,1.66A1.22,1.22,0,0,1,310.63,423Z"/><path class="cls-4" d="M334.07,382.13a1,1,0,0,1-.65-.26c-5-4.94-6.69-7-6.6-13.07.09-5.66,2.73-8.09,5.29-10.44,1.76-1.61,3.42-3.14,4.25-5.75,1.92-6-6.33-12.24-6.41-12.3a.92.92,0,1,1,1.1-1.48c.38.29,9.38,7.06,7.06,14.34-1,3.07-2.9,4.84-4.76,6.55-2.37,2.18-4.61,4.24-4.69,9.11-.08,5.4,1.29,7,6.06,11.73a.92.92,0,0,1,0,1.3A.91.91,0,0,1,334.07,382.13Z"/><path class="cls-4" d="M310.12,382.13a.93.93,0,0,1-.64-.26c-5-4.94-6.7-7-6.6-13.07.08-5.66,2.73-8.09,5.28-10.44,1.76-1.61,3.42-3.14,4.25-5.75,1.92-6-6.32-12.24-6.41-12.3a.92.92,0,1,1,1.1-1.48c.38.29,9.38,7.06,7.06,14.34-1,3.07-2.9,4.84-4.75,6.55-2.38,2.18-4.62,4.24-4.7,9.11-.08,5.4,1.29,7,6.06,11.73a.92.92,0,0,1-.65,1.57Z"/><path class="cls-4" d="M322.93,377.28a.91.91,0,0,1-.65-.27c-5-4.94-6.69-7-6.6-13.07.09-5.65,2.73-8.08,5.29-10.43,1.75-1.62,3.42-3.15,4.25-5.75,1.91-6-6.33-12.25-6.41-12.31A.92.92,0,1,1,319.9,334c.39.28,9.38,7,7.07,14.33-1,3.08-2.9,4.84-4.76,6.55-2.38,2.18-4.62,4.25-4.69,9.11-.09,5.4,1.28,7,6.05,11.74a.92.92,0,0,1-.64,1.57Z"/><path class="cls-4" d="M479.8,261.38c-2.56.11-8.78.29-9.07,4.82a118.78,118.78,0,0,0,.41,15.41,2.83,2.83,0,0,0,2.64,2.58l15.64,1a2.82,2.82,0,0,0,3-2.32c.86-4.76,2.19-14.95,1.72-16.52C492.5,261,483.84,261.22,479.8,261.38Z"/><path class="cls-7" d="M474,285.48s-.33,12.13-1.49,13.45-7,4.09-7,4.09l18.35,13.29,12.28-8.07s-6-6.1-6.5-7.73c-.67-2.26.24-14,.24-14Z"/><path class="cls-4" d="M483.84,317.42l-20.11-14.56,1.4-.67c2.18-1,5.92-3,6.68-3.87.58-.85,1.11-7.35,1.26-12.87a.91.91,0,0,1,.95-.89.92.92,0,0,1,.89.94c-.1,3.75-.47,12.63-1.72,14-.91,1-4,2.69-5.89,3.63l16.59,12,10.82-7.1c-1.92-2-5.51-5.84-5.95-7.32-.68-2.36.12-13.12.21-14.34a.92.92,0,1,1,1.83.14c-.34,4.48-.72,12.15-.27,13.68.25.87,3.45,4.49,6.27,7.35l.79.8Z"/><path class="cls-7" d="M480,290c4.4.8,10,.32,11.63-1.12,1-.84,1.55-4.38,1.92-8.44,0-.12.58-14.57.58-14.57l-19.84-1.27s-.25,4.37-.37,9.29a.28.28,0,0,1-.43.23c-1-.68-2.43-1.27-2.59.57-.2,2.28,1.76,3.84,2.78,4.4a.34.34,0,0,1,.17.29c0,3.47.14,6.49.55,7.58a3.34,3.34,0,0,0,1.34,1.53Z"/><path class="cls-4" d="M484.56,291.26a27.24,27.24,0,0,1-4.7-.4.92.92,0,1,1,.33-1.81c4.52.82,9.64.17,10.87-.91.16-.14,1-1.2,1.6-7.84,0-.24.35-8.55.55-13.62l-18-1.16c-.08,1.55-.23,4.82-.32,8.34a1.2,1.2,0,0,1-1.86,1,2.74,2.74,0,0,0-1.08-.5,1.16,1.16,0,0,0-.08.39c-.18,2.08,2,3.37,2.3,3.51a1.27,1.27,0,0,1,.65,1.1c0,5.19.31,6.77.49,7.25a2.46,2.46,0,0,0,1,1.1.92.92,0,1,1-1,1.53,4.34,4.34,0,0,1-1.68-2c-.25-.68-.58-2.19-.61-7.56a5.69,5.69,0,0,1-2.94-5.11,2.09,2.09,0,0,1,1.09-1.89,2.25,2.25,0,0,1,1.95.09c.13-4.43.34-8.22.34-8.26l.05-.93L495.11,265l0,.9c-.38,9.6-.58,14.51-.59,14.61-.61,6.83-1.51,8.43-2.22,9C490.92,290.71,487.79,291.26,484.56,291.26Z"/><path class="cls-4" d="M473.86,279l1.71,1.91c1.33,1.48,14.55,1.57,15.51,1.16,2.1-.9,1.69-2.72,2.45-2.52.93.25-.72,9.51-1.78,10.76S481.09,291.37,476,290C471.81,288.85,473.86,279,473.86,279Z"/><path class="cls-4" d="M474.22,265.57s14.54,5.24,21.58.46-3.6-5.68-10-5.44S470.25,261.55,474.22,265.57Z"/><path class="cls-7" d="M451.07,329.89c3.84-10.69,10.42-25.45,17.79-27.61.26-.07,6.1,1.29,10.32,2.08,1-.91,2.36-1,4.28-.1h0c.2.09,8.11-1.56,8.37-1.59,3.13-.39,22.49,21.91,25,27.1C516.88,329.81,451.07,329.89,451.07,329.89Z"/><path class="cls-4" d="M449.76,330.81l.44-1.23C454.38,318,461,303.64,468.61,301.4c.32-.1.36-.1,4.4.76,1.8.38,4,.85,5.92,1.22.92-.67,2.43-1.08,4.73,0,.89-.13,4.45-.85,6.22-1.21l1.88-.37c4.13-.54,23.77,23.16,25.94,27.62l.09.19v.21c0,.92-.76.92-1.65.93h-2.09l-7.46,0-22.62,0-32.9,0ZM469,303.21c-5.2,1.66-11.07,10.77-16.59,25.76,8.36,0,53.93-.07,62.93-.1-4.44-7.08-20.94-25.12-23.37-25.28l-1.7.35c-5.43,1.1-6.51,1.3-6.92,1.23h-.07l-.19-.08c-2.2-1.06-3-.31-3.25-.06l-.34.32-.46-.08c-2-.38-4.44-.9-6.38-1.31C471.07,303.62,469.46,303.28,469,303.21Z"/><polygon class="cls-8" points="490.67 328.84 483.39 328.85 482.7 310.49 479.29 306.66 483.76 303.99 488.27 306.66 485.91 310.11 490.67 328.84"/><polygon class="cls-7" points="483.76 303.68 476.26 308.68 465.85 302.62 470.84 299.98 483.76 303.68"/><polygon class="cls-7" points="483.76 303.68 489.58 307.97 496.15 304.37 492.88 301.4 483.76 303.68"/><path class="cls-4" d="M497.72,304.56l-4.58-4.17-9.36,2.34-13-3.73L464,302.58l12.34,7.18,7.43-5,5.77,4.26Zm-21.49,3-8.48-4.94,3.19-1.69,10.66,3Zm16.4-5.19,1.95,1.77-4.93,2.71-3.78-2.79Z"/><path class="cls-7" d="M389.4,209.7S388,221.87,389,223.2s7,3.71,7,3.71l-10.53,21.23h-19l-3.33-15.61s9.87-7.61,10.48-9.15c.84-2.13,1-13.47,1-13.47Z"/><path class="cls-4" d="M365.67,249.1l-3.62-16.94.47-.36c4.66-3.59,9.74-7.85,10.18-8.77.57-1.42.88-8.81.94-13.12a.94.94,0,1,1,1.88,0c0,1.18-.18,11.58-1.07,13.81-.6,1.53-7.07,6.68-10.31,9.19l3.06,14.28,17.65,0,9.82-19.79c-1.86-.79-5.5-2.44-6.41-3.63-1.08-1.42-.34-9.49.2-14.18a.94.94,0,0,1,1-.83,1,1,0,0,1,.83,1.05c-.62,5.44-1,11.9-.54,12.85.5.65,3.79,2.27,6.53,3.37l.95.39L386,249.08Z"/><path class="cls-4" d="M385.86,185.73c2.68.26,9.18.81,9.06,5.31A111.13,111.13,0,0,1,393,206.25a3.06,3.06,0,0,1-3,2.4l-16.5,0a2.81,2.81,0,0,1-2.89-2.47c-.45-4.75-1.31-14.82-.67-16.34C372.15,184.71,381.64,185.32,385.86,185.73Z"/><path class="cls-7" d="M374.72,212.05c-.87-.87-1.13-4.3-1.13-8.23a.32.32,0,0,0-.16-.27,4,4,0,0,1-2.31-3.69c.08-1.68,1.18-1.49,2.18-1a.29.29,0,0,0,.42-.23c.2-4.73.59-8.88.59-8.88l19.61-.07s-.15,4.22-.47,9c0,.22-1.14,11.5-1.63,12.53a3.51,3.51,0,0,1-1.45,1.4s-1.28,1-8.41,1Z"/><path class="cls-4" d="M382,214.55a1,1,0,1,1,0-1.9c6.11,0,7.69-.74,7.88-.83l.06,0a2.45,2.45,0,0,0,1.06-1c.4-1,1.45-11,1.55-12.18.22-3.31.36-6.4.42-7.92l-17.75.06c-.12,1.45-.37,4.57-.52,8a1.23,1.23,0,0,1-1.81,1,1.92,1.92,0,0,0-.72-.27,1.49,1.49,0,0,0-.07.43,3,3,0,0,0,1.83,2.81,1.28,1.28,0,0,1,.65,1.1c0,6.51.76,7.47.85,7.56a.95.95,0,1,1-1.34,1.34c-.65-.65-1.39-2.2-1.41-8.54a4.79,4.79,0,0,1-2.47-4.37,2.25,2.25,0,0,1,1-2,2.05,2.05,0,0,1,1.63-.12c.22-4.3.55-7.94.56-8l.08-.86,21.45-.07,0,1s-.16,4.29-.47,9c0,.11-1.11,11.6-1.73,12.87a4.25,4.25,0,0,1-1.8,1.79c-.5.32-2.39,1.12-8.91,1.14Z"/><path class="cls-8" d="M402.07,230a47.75,47.75,0,0,0-6.17-3.58l.26-.11-4.29-4.44-9.58,4.43h0l-12.62-5-4.77,3.8c-5.33,3.15-15.37,14.52-21.33,28.68h73.2C414.2,246.91,408.88,234.59,402.07,230Z"/><path class="cls-4" d="M383.69,229.42l2,2.4,12-5.17-5.66-5.87-9.82,4.54-12.75-5-7.74,6.18,16.85,5.76,3.07-3.75c.63,4.17,2.14,14.25,3.6,25.46a.92.92,0,0,0,.91.8h.12a.92.92,0,0,0,.79-1C385.77,243.46,384.4,234.13,383.69,229.42ZM394.57,226l-8.34,3.59-2.47-2.95,7.9-3.65ZM378,230.1l-12.48-4.27,4.3-3.42,10.95,4.3Z"/><path class="cls-4" d="M390.44,191.9c2.34-.2,6.74-1.25,6.21-6s-1.4-3-1.4-3-.94,1.09-1.31,1.14.39.3-.9-3.62c0,0-3.49-.57-4.94,1.73s-2.55,1.08-3.14,0c-.49-.94-1.93.35-2.2,1.34-.52,1.12-5.86.71-7.42,1.58-2.47,1.37-3.32,1.95-3.2,5.35,0,.66,1.12,7,1.12,7l1.9-6.76S386.61,192.23,390.44,191.9Z"/><path class="cls-4" d="M463.9,183.43s7.94-.27,12,6.64c1.07,1.82,1,2.15.47,4.15-.22.84,1.24,1.84,1.19,3,0,.64-.41,1.55-.38,2.25,0,1,1,1.39,1.15,2.39.09.64-.85,1.24-.72,1.86s1.36,1.09,1.53,1.7c.23.82-.38,1.4-.38,2.18,0,.93.73,1.15,1.62,1.7.65.4,0,2.46.38,2.85s1.36,1,1.49,1.32c.3.86-.35,1.5-.26,2,.16.73,1.55,1,1.77,1.62s-.33,1.64-.49,2.39,1.07,1.24,1.13,1.7a7.25,7.25,0,0,1-.32,2.68c0,.6,1.48,1.78,1.45,2.54-.67,16.06-43.26,13-42.79,1.7,0-.7,1.53-1.15,1.05-2a10.31,10.31,0,0,1-.86-1.69c-.26-.72,1.24-1.37,1.56-2,.49-1-1.47-1.62-.89-3.61.45-1.53,1.91-1.21,1.79-2.42-.11-1-1.14-2.26-1-3.07.55-2.48,2.69-2.7,1.91-3.45s-1.38-1.19-1-2.92a9.94,9.94,0,0,1,1.25-2.35c-.11-1.32-1.54-2.07-1-4.14.72-2.95,1.72-.75,1.44-5.31C446.94,194.26,448.37,181.44,463.9,183.43Z"/><path class="cls-7" d="M457,207.83s.56,13.8,0,14.53c-1.8,2.48-7.14,4.67-8.36,5s18.49,12.87,18.49,12.87l11.6-9.45-3.91-3.53a23,23,0,0,1-4.74-3.15c-1.45-1.5-2.15-15.54-2.15-15.54Z"/><path class="cls-4" d="M467.23,241.36l-.56-.36c-19.2-12.21-19.07-13-19-13.73a1,1,0,0,1,.73-.8c1.28-.34,6.14-2.42,7.79-4.55.22-1.12.11-7.94-.14-14l0-1,12.8.85,0,.82c.32,6.47,1.14,14,1.9,14.95a21.64,21.64,0,0,0,4.48,3l.11,0,4.81,4.33Zm-17-13.59c2.51,2,9.92,6.91,16.84,11.33l10.26-8.36-3-2.73a22.9,22.9,0,0,1-4.87-3.27c-1.43-1.49-2.11-10.64-2.36-15.31l-9.13-.61c.51,13.13,0,13.79-.19,14.08C456.2,225.07,452.43,226.91,450.25,227.77Z"/><path class="cls-7" d="M458.23,211.16c-1.62-1.08-5.53-4.33-5.6-6.45s2.34-1.88,3.08-1.54c.49.22,0-10.4,0-10.4l16.44-.88s2.43,9.13,1.85,15-3.35,6.87-7.58,7.6Z"/><path class="cls-4" d="M466.41,215.41a.92.92,0,0,1-.16-1.82c4.25-.74,6.31-1.65,6.82-6.79.47-4.7-1.09-11.7-1.64-14l-14.77.79c.44,9.72.07,10-.4,10.29l-.42.29-.51-.21a2.11,2.11,0,0,0-1.56,0c-.07.05-.24.17-.23.65,0,1.42,3.11,4.33,5.2,5.71a.92.92,0,0,1-1,1.53c-.06,0-5.9-4-6-7.18a2.43,2.43,0,0,1,1-2.23,3.41,3.41,0,0,1,2.24-.45c.07-1.69,0-5.66-.21-9.25l0-.91,18.09-1,.2.72c.1.38,2.47,9.37,1.87,15.33-.66,6.57-4,7.67-8.33,8.42Z"/><path class="cls-4" d="M474,191.51a11.08,11.08,0,0,0-3.15.84c-.47.18-.76,1.66-1.28,1.87s-1.66-.4-2.29-.11-.95,1.21-1.63,1.56-1.46,0-2,.29c-.88.5-1.1,1.5-1.92,2.08-.54.37-2.06.38-2.52.83-.85.83-.86,2.19-1.19,2.51-1.15,1.11-1.6.63-2.12,1.92a4,4,0,0,0-1.6-.36,2,2,0,0,0-1.17.36l.95-12.17Z"/><path class="cls-8" d="M504.1,253.84H439.39c-1.06-11-.92-21,2.39-24.42,2.88-3,5.43-3.27,6.84-3.27,4.22,0,22.74,17.14,28,.21.75-2.43,6.47.61,8.09,1.89C489.28,231.9,499.73,246.42,504.1,253.84Z"/><path class="cls-3" d="M505.71,254.76H438.56l-.08-.83c-1.33-13.73-.47-22,2.64-25.15a10.4,10.4,0,0,1,7.5-3.55h0c1.32,0,3.3,1.11,6.05,2.63,4.86,2.71,11.53,6.42,16.2,4.55,2.22-.9,3.8-3,4.84-6.32a2.13,2.13,0,0,1,1.44-1.43c2.44-.76,7,2,8.1,2.87,4.73,3.74,15.18,18.26,19.65,25.84Zm-65.48-1.84h62.25c-4.78-7.75-14.21-20.65-18.37-23.95-1.42-1.12-5.09-3-6.42-2.55a.28.28,0,0,0-.23.21c-1.19,3.87-3.18,6.38-5.91,7.48-5.48,2.2-12.59-1.75-17.78-4.64-2.11-1.18-4.3-2.4-5.15-2.4h0a8.53,8.53,0,0,0-6.18,3C440.64,231.92,438.81,237.4,440.23,252.92Z"/><path class="cls-4" d="M389.57,269.08c-11.24-6.74,3.67-13.73,7.33-10.07,2.82,2.82,1.2,5.73.25,7a10.69,10.69,0,0,1,7.51,1.68c9.75,6.74,4.2,17,4.2,17s-3.43,17.72-16,10.52C377.94,286.64,381.74,274.72,389.57,269.08Z"/><path class="cls-7" d="M393.06,289.21s.65,13.37.14,14.08c-1.73,2.42-6.89,4.58-8.07,4.91s19.38,8,19.38,8l9.81-4.9-3.82-3.39a21.85,21.85,0,0,1-4.61-3c-1.42-1.44-2.2-15-2.2-15Z"/><path class="cls-4" d="M404.57,317.19l-.38-.14c-20.08-7.49-20.06-8-20-8.85a1,1,0,0,1,.72-.89c1.24-.34,5.92-2.38,7.5-4.46.21-1.1.05-7.68-.24-13.59l-.05-1,12.47.73.05.82c.36,6.25,1.2,13.55,1.94,14.45a20.46,20.46,0,0,0,4.36,2.83l.11.06,4.93,4.38Zm-17.35-8.8c3.11,1.4,10.45,4.26,17.24,6.8l8.24-4.11L410,308.66a21.8,21.8,0,0,1-4.75-3.14c-1.4-1.43-2.13-10.27-2.41-14.81l-8.79-.52c.58,12.7.12,13.35-.08,13.63C392.56,305.77,389.36,307.46,387.22,308.39Z"/><path class="cls-7" d="M394.46,293.18c-1.58-1-5.57-4.9-5.66-7s2.26-1.83,3-1.51c.48.21-.3-11.36-.3-11.36l15.89-1.3s2.67,10.44,2.15,16.13-3.14,7.2-7.29,7.42Z"/><path class="cls-4" d="M402.23,296.52a.92.92,0,0,1-.92-.87.93.93,0,0,1,.87-1c3.7-.19,5.93-1.33,6.42-6.59.43-4.6-1.35-12.59-1.94-15.06l-14.2,1.17c.7,10.68.35,10.92-.12,11.26l-.43.29-.5-.2a2,2,0,0,0-1.49,0c-.07.05-.22.15-.2.6.07,1.53,3.6,5.16,5.24,6.24a.91.91,0,0,1,.27,1.27A.92.92,0,0,1,394,294c-1.38-.89-6-5.05-6.08-7.69a2.42,2.42,0,0,1,1-2.2,3.33,3.33,0,0,1,2.13-.46c0-1.82-.19-6.2-.45-10.18l-.07-.91,17.56-1.44.2.75c.11.43,2.71,10.66,2.17,16.44-.51,5.52-2.95,8-8.15,8.26Z"/><path class="cls-8" d="M423.7,329.36c.06-4.41-.3-16.62-6.56-20.81-2.26-1.51-3.65-2.55-4.72-3.12l-.05,0a3.77,3.77,0,0,0-1.57-.54h-.15a1.13,1.13,0,0,0-.32.05h0a3.45,3.45,0,0,0-1.79,1.52l-.18.25c-.11.15-.21.3-.31.46h0c-2.16,3.16-4.92,7.77-14.92,1l-.55-.38c-.64-.45-1.3-.94-2-1.48a1.52,1.52,0,0,0-.66-.29,3,3,0,0,0-.68,0,9.11,9.11,0,0,0-2.83.73c-.91.35-1.79.76-2.47,1.06-3.73,1.64-3.8,4.68-3.09,7.52s2,5.21,1.61,6.23l.17,3.41.43,4.41Z"/><path class="cls-10" d="M425.71,328.23c-.06.54-.13,1.38-.22,1.91l-14.64.07c-.9-6.33-1.63-12.2-2-16.48h0a57.34,57.34,0,0,1-.33-7.24c0-.12,0-.24,0-.35.09-1.07.29-1.64.63-1.63a9.28,9.28,0,0,1,1.16.11h0l.44.07a10.86,10.86,0,0,1,1.6.43.06.06,0,0,1,.05,0,16.11,16.11,0,0,1,8.54,7.49C422.8,315.81,426.23,323.27,425.71,328.23Z"/><path class="cls-3" d="M410.05,331.13l-.11-.79c-.95-6.72-1.65-12.44-2-16.53v0a57.69,57.69,0,0,1-.33-7.33,1.94,1.94,0,0,1,0-.24v-.12c.07-.72.21-2.53,1.58-2.5a9.28,9.28,0,0,1,1.16.11h.35l.07.07.2,0a10.85,10.85,0,0,1,1.56.4h.13l.16.1a17.15,17.15,0,0,1,8.95,7.87c1.92,3.33,5.4,11,4.86,16.17l0,.36c-.05.51-.11,1.15-.18,1.59l-.13.77Zm-.3-17.44c.35,3.89,1,9.27,1.89,15.6l13-.07c0-.24.05-.48.08-.71l0-.37c.46-4.37-2.51-11.4-4.63-15.07a15.33,15.33,0,0,0-7.94-7h0l-.14,0a10,10,0,0,0-1.47-.39h0l-.33-.05H410l-.05,0-.36,0a7.14,7.14,0,0,0-.1.77l0,.32a58.53,58.53,0,0,0,.33,7.11Zm-.63-8.27Z"/><path class="cls-10" d="M393.7,313.93c-.1-.71-.21-1.38-.32-2-.28-1.7-.56-3.1-.82-4.15-.33-1.31-.64-2.09-.94-2.25a2,2,0,0,0-.6-.24,4.43,4.43,0,0,0-1.07-.12,10.47,10.47,0,0,0-2.9.52s-11.72.74-14.72,16.73c-.52,2.73-1,5.39-1.45,7.94l12-.05h1.17l7.27,0,4.05,0h.36C395,323.79,394.35,318.17,393.7,313.93Z"/><path class="cls-3" d="M369.79,331.27l.19-1.08c.45-2.59.94-5.26,1.44-7.95,2.93-15.61,14.15-17.32,15.45-17.47a11.57,11.57,0,0,1,3.08-.53,5.16,5.16,0,0,1,1.31.16,3.23,3.23,0,0,1,.82.32c.47.25.87.82,1.37,2.83.26,1,.55,2.46.84,4.22.1.63.21,1.31.32,2,.62,4,1.3,9.53,2,16.36l.11,1-13.83.05ZM390,306.08a9.76,9.76,0,0,0-2.63.48l-.21,0c-.45,0-11.06,1-13.88,16-.44,2.31-.86,4.61-1.25,6.84l22.73-.08c-.69-6.33-1.33-11.46-1.92-15.27h0c-.1-.7-.21-1.37-.31-2-.29-1.7-.56-3.07-.81-4.07a6.62,6.62,0,0,0-.58-1.72,1,1,0,0,0-.27-.1A3.3,3.3,0,0,0,390,306.08Zm1.22.24h0Z"/><polygon class="cls-7" points="410.33 313.05 414.48 320.24 412.36 330.2 412.35 330.2 410.32 330.2 409.2 330.21 408.05 314.19 407.54 307.17 407.54 307.16 407.49 306.49 407.16 301.95 410.16 304.88 410.28 305 414.75 309.36 412.98 310.54 410.02 312.5 410.33 313.05"/><path class="cls-4" d="M408.46,331l-2.25-31.09,9.81,9.56-4.94,3.28,4.25,7.35L413,331Zm-.35-27L410,329.41h1.76l1.93-9L409,312.25l4.53-3Z"/><polygon class="cls-7" points="395.37 330.25 391.32 330.27 387.53 321.74 391.44 313.67 384.45 311.12 386.39 309.01 388.44 306.8 389.22 305.96 389.95 305.16 392.52 302.38 392.68 303.91 393.11 308.15 393.5 311.97 393.7 313.93 395.37 330.25"/><path class="cls-4" d="M390.72,331.19l-4.21-9.47,3.66-7.54-7.33-2.68,10.38-11.24,3.17,30.91Zm-2.18-9.43,3.37,7.59h2.45l-1.66-16.17Zm-2.48-11,6.64,2.42-.89-8.65Z"/><path class="cls-4" d="M409.57,280.49s-1.63-6-7.19-5.8c-2.93.12-6.47.87-8.1,2.41s-2.73,7.71-2.73,7.71l-2.84-11.68,18.05-3.06Z"/><path class="cls-2" d="M192.4,471S213,527.9,213,551s4.12,44.85,21.24,51.79,29.48-3.59,32.38-7.75c3.57-5.14,10.65-37.72-24.33-75.8C228.5,504.31,192.4,471,192.4,471Z"/><path class="cls-3" d="M245.55,606.05a31,31,0,0,1-11.7-2.39C219.16,597.7,212,580.48,212,551c0-22.69-20.29-79.1-20.49-79.67l-1.28-3.53,2.77,2.54c.36.34,36.28,33.47,49.88,48.28,18.78,20.44,25,38.87,26.86,50.73,2.14,13.46-.36,23.22-2.45,26.21C265,598.92,257.05,606.05,245.55,606.05Zm-51-131.81c4.5,12.86,19.35,56.82,19.35,76.78,0,28.63,6.77,45.29,20.68,50.94,16.62,6.74,28.44-3.36,31.27-7.43,3-4.26,11.12-36.15-24.25-74.64C230.21,507.52,203.19,482.3,194.51,474.24Z"/><path class="cls-4" d="M263.35,635.81a.82.82,0,0,1-.8-.72C258.33,597.16,219.37,518,219,517.24a.81.81,0,0,1,.37-1.08.8.8,0,0,1,1.08.36c.4.8,39.49,80.18,43.74,118.39a.8.8,0,0,1-.72.89Z"/><path class="cls-2" d="M249.06,404.84s-17.5,75.42-7.91,121.23,19.33,63,31.57,50.66,8.3-92.09-.35-117.25S249.06,404.84,249.06,404.84Z"/><path class="cls-3" d="M265.32,581.53a7.35,7.35,0,0,1-2.12-.31c-8.32-2.46-15.61-19.92-22.95-55-9.52-45.47,7.74-120.86,7.92-121.62l.57-2.49,1.14,2.29c.15.3,14.79,29.83,23.36,54.75,4.26,12.39,7.5,38,8.06,63.71.3,13.68.12,46.37-7.93,54.49C270.64,580.14,267.94,581.53,265.32,581.53ZM249.39,407.61c-2.91,13.57-15.79,77.91-7.34,118.27,7.08,33.84,14.17,51.36,21.67,53.58,2.61.77,5.34-.33,8.35-3.37,5.24-5.29,8-25.16,7.39-53.16-.54-25.15-3.82-51.11-8-63.15C264.37,439.05,253,415.1,249.39,407.61Z"/><path class="cls-4" d="M271.78,635.81h-.07a.82.82,0,0,1-.74-.87c1.89-23.16-18.33-175.64-18.53-177.17a.81.81,0,0,1,1.6-.22c.83,6.29,20.44,154.19,18.54,177.52A.81.81,0,0,1,271.78,635.81Z"/><path class="cls-2" d="M336.44,472.32s-20.54,56.86-20.54,80-4.13,44.84-21.25,51.79-29.47-3.59-32.37-7.75c-3.58-5.14-10.66-37.72,24.33-75.8C300.35,505.59,336.44,472.32,336.44,472.32Z"/><path class="cls-3" d="M283.3,607.33c-11.51,0-19.45-7.13-21.78-10.47-2.08-3-4.59-12.76-2.44-26.21,1.88-11.86,8.07-30.29,26.85-50.73,13.61-14.81,49.53-47.95,49.89-48.28l2.76-2.55-1.27,3.54c-.21.57-20.49,57-20.49,79.67,0,29.46-7.14,46.68-21.82,52.64A31.06,31.06,0,0,1,283.3,607.33Zm51-131.81c-8.68,8.06-35.69,33.28-47.05,45.64-35.36,38.5-27.22,70.38-24.25,74.65,2.83,4.07,14.66,14.16,31.28,7.42,13.91-5.64,20.67-22.3,20.67-50.93C315,532.34,329.83,488.38,334.33,475.52Z"/><path class="cls-4" d="M265.49,637.09h-.09a.81.81,0,0,1-.71-.89C268.94,598,308,518.6,308.42,517.8a.83.83,0,0,1,1.09-.37.81.81,0,0,1,.36,1.09c-.39.79-39.36,79.91-43.57,117.85A.82.82,0,0,1,265.49,637.09Z"/><polygon class="cls-8" points="218.92 635 314.22 635 302.8 736.86 229.76 737.08 218.92 635"/><path class="cls-4" d="M867.9,612.29s23.28,118.84,21.65,124.56-34.88-122-34.88-122Z"/><path class="cls-4" d="M832.35,622.92s-.37,110.35-3.23,114-9.8-113-9.8-113Z"/><path class="cls-4" d="M757.67,622.92S776.45,734.26,772.78,737s-27-114.59-27-114.59Z"/><path class="cls-4" d="M727.07,621.15s-38,113.35-44.93,114.16S713.92,620,713.92,620Z"/><path class="cls-2" d="M853.17,383.58s54.14-6.87,56.59,16.26,8.33,195.23-28.3,213.6-168.29,8-184.22,4.29S685,558.32,685,558.32L821.57,540l16.94-151.27,14.66-5.1Z"/><path class="cls-3" d="M797.12,624.9c-45.43,0-91.86-4.38-100.08-6.28-16.5-3.8-13.11-58-13-60.36l0-.75.74-.1,135.86-18.28L837.67,388l15.38-5.33c1.52-.2,37.34-4.59,51.77,6.84a14.69,14.69,0,0,1,5.85,10.23c1.3,12.25,3.29,60.94.51,108.74-1.6,27.43-4.49,50.08-8.61,67.3-5.06,21.19-12,34.13-20.7,38.48C865.73,622.36,831.71,624.9,797.12,624.9ZM685.87,559.13a230.4,230.4,0,0,0,.2,27.46c1.37,18.38,5.3,28.84,11.38,30.24,14.41,3.33,146.6,14.35,183.6-4.21,15-7.52,24.77-43.57,28.29-104.25,2.78-47.69.8-96.23-.5-108.43a12.9,12.9,0,0,0-5.16-9c-13.49-10.68-48.24-6.72-50.3-6.47l-14,4.87-17,151.41Z"/><path class="cls-4" d="M882.77,436.61a.92.92,0,0,0-1.81-.33c-.18,1-17.44,96.08-16.58,132.68H808.5a1,1,0,0,0,0,2h68.8a1,1,0,0,0,0-2H866.22C865.35,532.6,882.59,437.58,882.77,436.61Z"/><polygon class="cls-7" points="585.86 664.82 575.09 710.57 605.68 710.57 613.93 679.76 585.86 664.82"/><path class="cls-4" d="M606.55,711.71H573.64l11.45-48.6,30.18,16.07Zm-30-2.29H604.8l7.79-29.08-26-13.81Z"/><path class="cls-8" d="M573.41,709.23s-44.21,14-45.73,25.6H607v-25.6Z"/><polygon class="cls-7" points="693.96 688.19 697.54 711.01 726.49 711.01 723.42 686.17 693.96 688.19"/><path class="cls-4" d="M727.78,712.15H696.56l-3.93-25,31.8-2.19Zm-29.26-2.29h26.67l-2.77-22.48-27.14,1.87Z"/><path class="cls-8" d="M695.86,709.68s-44.21,14-45.73,25.59H729.4V709.68Z"/><polygon class="cls-4" points="647.24 730.88 647.24 737.52 731.46 737.52 731.46 729.92 647.24 730.88"/><polygon class="cls-4" points="609.42 729.99 609.42 737.08 525.2 737.08 525.2 729.48 609.42 729.99"/><path class="cls-4" d="M585.38,726.26a1.05,1.05,0,0,1-.26-2.07l8-2H584.6a1.48,1.48,0,0,1-1.49-1.3,1.5,1.5,0,0,1,1.09-1.65l12-3.32H588.4a1.05,1.05,0,0,1,0-2.1h12.24a1.5,1.5,0,0,1,.4,3l-12,3.32h9a1.5,1.5,0,0,1,.37,3l-12.71,3.22A1.07,1.07,0,0,1,585.38,726.26Zm15.26-10.38Z"/><path class="cls-4" d="M708.82,726.7a1,1,0,0,1-.26-2.06l8.06-2H708a1.5,1.5,0,0,1-.4-3l12-3.32h-7.82a1,1,0,0,1,0-2.1h12.23a1.48,1.48,0,0,1,1.49,1.3,1.5,1.5,0,0,1-1.09,1.65l-12,3.32h8.95a1.5,1.5,0,0,1,.37,3l-12.7,3.22Zm15.26-10.37h0Z"/><path class="cls-7" d="M763.21,262.35s3.43,36,.55,40-7.72,21-7.72,21l16.09,72.24,59.51-5.75-8.74-55.4s-14.57-27.66-16.2-32.2c-2.27-6.29-2.28-39.89-2.28-39.89Z"/><path class="cls-4" d="M771.41,396.58l-16.32-73.26.06-.22c.2-.7,4.92-17.24,7.87-21.31,2-2.69.59-25.57-.72-39.35a.92.92,0,0,1,1.83-.18c.35,3.72,3.37,36.47.37,40.61-2.58,3.56-6.94,18.5-7.52,20.51l15.87,71.22L830.58,389,822,334.73c-1.22-2.34-14.58-27.74-16.18-32.18-2.29-6.37-2.33-38.82-2.33-40.2a.92.92,0,0,1,1.84,0c0,.33,0,33.51,2.22,39.58,1.6,4.43,16,31.8,16.15,32.08l.07.13,0,.15,8.89,56.37Z"/><path class="cls-4" d="M771.42,194.3c-7.43,1-25.49,3.31-25.06,16.63.49,15.2,3.69,34.66,5.54,44.9a8.29,8.29,0,0,0,8.41,6.8l45.89-1.48a8.29,8.29,0,0,0,8-7.61c1.15-14.14,3.34-44.07,1.52-48.51C809.52,189.91,783.17,192.66,771.42,194.3Z"/><path class="cls-7" d="M803,271.19c2.39-2.66,3.06-12.87,3-24.5a1,1,0,0,1,.45-.82c3-1.89,7.19-5.87,6.88-11.63-.28-5-3.85-3.83-6.63-2.13a.77.77,0,0,1-1.16-.65c-.67-14-1.84-26.26-1.84-26.26L749.1,207s.51,12.49,1.49,26.48c0,.63,3.41,34,4.82,36.95a9.21,9.21,0,0,0,4.05,4s3.59,2.75,23.41,2.11Z"/><path class="cls-4" d="M777.15,277.52c-14,0-17.58-1.94-18.19-2.35a10.11,10.11,0,0,1-4.38-4.39c-1.53-3.23-4.89-37-4.91-37.28-1-13.84-1.48-26.38-1.48-26.51l0-.92,56.31-1.82.09.86c0,.12,1.16,12.31,1.83,26.08,2.46-1.45,4.41-1.82,5.81-1.09,1.2.64,1.87,2,2,4.09.37,6.79-5,11-7.3,12.45.1,14.43-1,22.65-3.22,25.16a.92.92,0,1,1-1.37-1.23c1.09-1.19,2.88-5.89,2.73-23.87a1.88,1.88,0,0,1,.87-1.6c2-1.31,6.77-5,6.46-10.81-.05-.95-.27-2.17-1-2.56s-2.33,0-4.23,1.16a1.63,1.63,0,0,1-1.64.05,1.68,1.68,0,0,1-.9-1.44c-.57-11.72-1.49-22.33-1.76-25.36l-52.74,1.7c.14,3.15.63,13.88,1.44,25.53.11,1.4,3.47,33.95,4.74,36.63a8.37,8.37,0,0,0,3.67,3.59l.1.07s4,2.53,22.82,1.93a.92.92,0,1,1,.06,1.83C780.81,277.49,778.9,277.52,777.15,277.52Z"/><path class="cls-4" d="M780.35,237.5a1.54,1.54,0,0,1-1.53-1.41l-.09-1.12a1.53,1.53,0,0,1,3-.25l.09,1.12a1.52,1.52,0,0,1-1.4,1.65Z"/><path class="cls-4" d="M757.42,239.14a1.54,1.54,0,0,1-1.53-1.47l0-1.32a1.53,1.53,0,1,1,3.06-.13l.05,1.33a1.52,1.52,0,0,1-1.46,1.59Z"/><path class="cls-4" d="M790.83,229.15a.9.9,0,0,1-.81-.48c-2.87-5.41-13.52-2.25-13.63-2.22a.9.9,0,0,1-1.14-.61.92.92,0,0,1,.61-1.15c.49-.15,12.21-3.62,15.78,3.12a.92.92,0,0,1-.38,1.24A.94.94,0,0,1,790.83,229.15Z"/><path class="cls-4" d="M768,249.71l-.17,0c-.8-.14-4.85-1-5.35-3.25-.19-.91.24-3.28,1.28-8.46.76-3.8,1.8-9,1.55-10.08a1.31,1.31,0,0,0-.77-.72c-1.83-.88-6-.73-10.23,1.28a.92.92,0,0,1-.8-1.66c4.27-2,9.13-2.57,11.82-1.28a3,3,0,0,1,1.77,2c.32,1.36-.37,5-1.54,10.86-.63,3.12-1.41,7-1.28,7.71s2.17,1.52,3.88,1.83a.92.92,0,0,1-.16,1.83Z"/><path class="cls-4" d="M762.46,256.17c-.59.75,2,6.55,4.73,6.23,6.91-.83,10.85-9,9.21-8.51-.64.19-5,1.51-7.92,2C764.52,256.65,763.14,255.32,762.46,256.17Z"/><path class="cls-4" d="M813,211.75c-5.58-9.43,3.46-11.82-2.24-16.61-3.41-2.86-9.58-2.62-9.58-2.62l-.22.31a5.46,5.46,0,0,0-6-2.88c-8.42,1.18-9.52-7.16-17.41-6s-3.58,3.45-11.7,5.58-12.25-2.38-14.4,4.05-8.55,4.94-11.3,9.31-1.75,9.4,2.28,11-2,5.13,1.27,8.63,16.84,2.83,19-2.49,3.33-8.94,8.36-9.32,11.21,2.09,14.61,1,8-4.81,9.85-3.91,3.91,4,5.75,3.73a1.91,1.91,0,0,0,.51-.19c1.87,1.83,3.64,3.64,3.48,6.87C805.09,222.55,815.7,216.33,813,211.75Z"/><path class="cls-4" d="M726.42,497.57s-97.16-4-99.61,18.22,57.11,179.72,57.11,179.72l46.7-6.22S697,573.83,698.48,565.55c5.76-32.76,140-72.55,140-72.55Z"/><path class="cls-4" d="M848.72,497.24s13.64,71.85-51.6,76.28c-65.89,4.47-121.92-13.36-136.26-2.08-4.2,3.31-39.29,122.2-39.29,122.2l-51.09-7.47s45.74-154.42,53.46-170.56c7.32-15.31,35.33-17.06,94.94-18.37S848.72,497.24,848.72,497.24Z"/><path class="cls-8" d="M854.43,391c4.9,36.23-2.85,112.19-2.85,112.19l-132.7-5s24.62-203.73,42.87-206.08c7.71-1,15.93,9.44,36.34,0S849.53,354.78,854.43,391Z"/><path class="cls-8" d="M576.55,429.74s17.85-22,46.4-12.48c3.23,1.07,7.85,3.41,4.68,12.48Z"/><path class="cls-4" d="M628.29,430.66H574.62l1.22-1.5c.18-.22,18.58-22.37,47.4-12.77a8.83,8.83,0,0,1,5.58,4.25c1.15,2.34,1,5.5-.32,9.4Zm-49.64-1.84H627c1-3.12,1.07-5.6.2-7.37-.95-1.93-2.91-2.79-4.51-3.32C599.44,410.4,583.31,424.12,578.65,428.82Z"/><path class="cls-7" d="M634.73,427.07c11.14-.95,59.93.05,59.93.05l-5.08-20.33s-52.08,8.86-56,7.73c-7.4-2.13-12.27-4.63-21-5-11.56-.45-27.28,3.52-27.11,6.67.09,1.69,20.59-.87,24.58.73C621.3,421.47,626.79,427.76,634.73,427.07Z"/><path class="cls-4" d="M695.85,428.06l-1.21,0c-.48,0-48.87-1-59.83-.05h0c-5.23.46-9.33-1.89-14.52-4.85a82,82,0,0,0-10.6-5.33c-1.83-.74-8.31-.48-13.53-.27-9.49.39-11.54.32-11.63-1.27a2.44,2.44,0,0,1,.8-1.81c3.18-3.22,17.2-6.22,27.26-5.83,6.6.26,11.12,1.75,15.9,3.32,1.68.56,3.43,1.14,5.33,1.68,2.74.79,34.75-4.2,55.6-7.75l.84-.14Zm-61.12-1Zm-30.6-11.6a20.39,20.39,0,0,1,6.25.62,84,84,0,0,1,10.82,5.45c4.91,2.8,8.78,5,13.45,4.61h0c10.22-.88,51.09-.13,58.83,0l-4.59-18.35c-8.21,1.4-51.72,8.68-55.58,7.57-1.94-.56-3.69-1.14-5.4-1.7-4.85-1.6-9-3-15.39-3.23-10.06-.39-23.33,2.69-25.88,5.28l0,0a85.18,85.18,0,0,0,9.48-.08C598.87,415.6,601.69,415.48,604.13,415.48Z"/><path class="cls-8" d="M768.94,315.28S757.65,350.76,742.42,362s-95.88,33.67-95.88,33.67L644.08,429s76.84,1.83,91-4.32c17.15-7.47,61.91-30.79,74.74-71.17S768.94,315.28,768.94,315.28Z"/><path class="cls-4" d="M654,394.51a.92.92,0,0,1-.23-1.81c.6-.15,60-15.21,85.08-29.47,18.92-10.76,27.2-47.42,27.28-47.79a.92.92,0,0,1,1.8.4c-.34,1.54-8.55,37.83-28.18,49-25.32,14.39-84.93,29.51-85.53,29.66A.83.83,0,0,1,654,394.51Z"/><path class="cls-4" d="M720.29,428.44a.92.92,0,0,1-.91-.8.91.91,0,0,1,.79-1c39.83-5.41,62.47-29.88,74.44-49.46a133.66,133.66,0,0,0,16.67-41.76.92.92,0,1,1,1.81.32,135.61,135.61,0,0,1-16.87,42.34A110.34,110.34,0,0,1,768,409.43a101.62,101.62,0,0,1-47.63,19Z"/><path class="cls-4" d="M991.11,738H114a.92.92,0,0,1,0-1.84H991.11a.92.92,0,1,1,0,1.84Z"/><rect class="cls-11" y="736.05" width="1158" height="4.13" rx="1.72"/></g></g></svg>