<svg xmlns="http://www.w3.org/2000/svg" viewBox="0 0 1158 649.95"><defs><style>.cls-1{fill:#2e3552;}.cls-2{opacity:0.3;}.cls-3{fill:#0071bc;}.cls-4{fill:#f17187;}.cls-5{fill:#f6d5d5;}.cls-6{fill:#d6b057;}.cls-7{fill:#242449;}.cls-8{fill:#5966d6;}.cls-9{fill:#a2a4a8;}.cls-10{fill:#3b308a;}.cls-11{fill:#e4c8ab;}.cls-12{fill:#fff;}.cls-13{fill:#b5b7b9;}.cls-14{fill:#e7cfb4;}.cls-15{fill:#666;}.cls-16{fill:#7eacf1;}.cls-17{fill:#b0b0b0;}.cls-18,.cls-20{opacity:0.21;}.cls-19,.cls-20{fill:#606060;}.cls-21{fill:#424dbf;}.cls-22{fill:#3a4aad;}.cls-23{fill:gray;}.cls-24{fill:#8e8e8e;}.cls-25{fill:#4d4d4d;}.cls-26{fill:#a99371;}.cls-27{fill:#dedae8;}</style></defs><title>Asset 7experts_3</title><g id="Layer_2" data-name="Layer 2"><g id="Layer_1-2" data-name="Layer 1"><rect class="cls-1" y="635.09" width="1158" height="4.13" rx="1.72"/><g class="cls-2"><path class="cls-3" d="M539.31,544.16c-28.19.09-56.38.76-84.52,3.89-10.62,1.18-21,3.78-31.64,4.83-21.24,2.09-42.11,6-63.43,7.79-17.16,1.45-34.4,2.3-51.52,4.14a181,181,0,0,1-49.74-1.52c-11.79-2.11-23.64-3.29-35.23-6.68-13-3.79-27-6.5-40.56-6.4-19.27.14-38,.15-56.47,6.84-6.47,2.35-14.39,6.21-19.31,11.14-11.25,11.28-12.77,39.43-1.54,51.13,18.92,19.7,59.31,27.42,85.83,27.79,29.06.4,57.29-1.76,86.4-3,27-1.18,54-2.85,81.11-2.79,55.33.12,110.67,0,165.89-3.7,51.89-3.47,103.91-2.28,155.91-2.28,53.33,0,106.29.42,159.24,7.51,23.06,3.08,46.56,4.16,69.75,6.33,20.76,1.94,40.71,0,61.39-1.83a146.41,146.41,0,0,0,50.39-13.5c12.49-6,34.75-24.51,38.58-38.76,10.74-39.93-151.3-39-176.18-38.88-27.83.1-55.88,1-83.69,0-11.7-.44-23.23-2.73-34.64-5.23S742.5,549,731,548c-48.09-4.38-96.29-3.74-144.53-3.74C570.73,544.25,555,544.11,539.31,544.16Z"/></g><path class="cls-4" d="M159.64,198.62c21-4.14,25.08-26.67,25.49-29.39a.8.8,0,0,0-.09-.52l-1.36-2.7-4.85-9.66L174,146.69,172.62,144a.8.8,0,0,0-.37-.38c-2.42-1.29-22.93-11.49-38.8,2.89a.91.91,0,0,0,.57,1.57c3.52.21,10.58.8,13.86,2.39a.91.91,0,0,1-.24,1.68c-4.68,1.1-17.11,5.09-23.48,17.39-7.94,15.33-5.74,17.16-5.74,17.16l.32-.16-.32.16s.18,2.87,17.2,5.65c13.66,2.24,24.29-5.35,28-8.45a.91.91,0,0,1,1.49.82c-.68,3.57-4.42,9.59-6.36,12.53A.91.91,0,0,0,159.64,198.62Z"/><path class="cls-5" d="M166.45,188.06c14.93-2.49,17.1-19.59,17.31-21.65a.63.63,0,0,0-.08-.4l-4.85-9.66L174,146.69a.84.84,0,0,0-.28-.31c-1.78-1.06-16.8-9.52-27.71,1a.74.74,0,0,0,.46,1.21c2.53.27,7.61.95,10,2.27a.7.7,0,0,1-.12,1.28c-3.32.69-12.1,3.34-16.26,12.54-5.19,11.47-3.56,12.94-3.56,12.94s.19,1.93,10.34,4.38c.68.17,1.4.33,2.17.5,9.86,2.15,17.23-3.31,19.77-5.56a.7.7,0,0,1,1.1.68c-.38,2.71-2.86,7.19-4.16,9.38A.74.74,0,0,0,166.45,188.06Z"/><path class="cls-6" d="M222.54,204c19.22-12.15,25-33.7,26.46-40.75l-47.92,9.61.56-.09c0,.13,0,.27.07.4-.33,12-7.58,29-11.54,36.14C185.45,217.81,199.34,218.7,222.54,204Z"/><path class="cls-7" d="M185.58,152.8a4.49,4.49,0,0,1-.21-.44l0,0c-7-14.18-6.78-21.54-6.3-24.15l-8.76,8.41s-2.58,5.83,5.15,21.25,14,16.94,14,16.94l11.68-1.93.28-.06h0C199,171.58,192.79,167.22,185.58,152.8Z"/><path class="cls-7" d="M222.55,204c19.22-12.15,25-33.7,26.46-40.74l-47.92,9.61.56-.1c0,.14,0,.27.07.41-.33,12.05-7.58,29-11.53,36.13C185.47,217.79,199.35,218.68,222.55,204Z"/><path class="cls-8" d="M293.46,142.34c4.39-3.23,8.37-6.48,12-9.71,25.33-22.57,32.77-44.18,34.7-51.71a16.74,16.74,0,0,1-3.26-4.24l0,0-.12-.19c-.05-.11-.12-.21-.17-.32A16.31,16.31,0,0,1,335.15,72c-6.68-2.66-23.43-7.76-48.48-5a155.58,155.58,0,0,0-28,5.85c-16.48,5-29.9,12.64-43.27,22.94l-.07,0L192.2,116.3l-13.06,11.64a.47.47,0,0,1,.1.1l-.2.19c-.46,2.51-.69,9.42,5.53,22.54.31.68.64,1.35,1,2,7.22,14.41,13.37,18.78,15.8,20L249,163.29s0,0,0,0h0C265.34,158.73,279.55,152.57,293.46,142.34Z"/><path class="cls-7" d="M352.16,73c2.46-2.3,3.23-4.15,2.75-5.1,0,0-.07-.08-.1-.12h0c-.43-.61-1.51-1-3.25-1a15.29,15.29,0,0,0-2.41.25,61.31,61.31,0,0,0-13.83,5l-.17-.06a16.31,16.31,0,0,0,1.43,4.22c.05.11.12.21.18.32a16.73,16.73,0,0,0,3.38,4.43s0,0,0,0h0s0,0,0,0a64.77,64.77,0,0,0,11.19-7.22C351.64,73.42,351.92,73.19,352.16,73Z"/><path class="cls-4" d="M296,96.75A22.78,22.78,0,1,0,286.13,128a23.11,23.11,0,0,0,5.61-3.95,22.71,22.71,0,0,0,4.67-26.56c-.13-.26-.31-.46-.45-.71Z"/><path class="cls-9" d="M336.74,76.62l0,0,0,0-.06-.11v0l.12-.08.08.15,0,.07Z"/><path class="cls-7" d="M270.51,208.63s6.79,3.41,8,21.32,5.32,28.89,5.32,28.89-5.34,4-10.27,2.3-6.67-1.91-6.62-9.31-4.2-41.63-4.2-41.63Z"/><path class="cls-7" d="M257.57,217.66a17.92,17.92,0,0,1,15.73,11.88,15.81,15.81,0,0,0-9-24.2,18.29,18.29,0,0,0-6.26,12.32Z"/><polygon class="cls-4" points="249.13 260 227.37 267.99 211.56 282.34 211.24 217.99 191.51 221.05 184.98 295.3 206 313.09 248.3 298.71 249.13 260"/><polygon class="cls-7" points="221.16 583.44 220.45 589.07 230.51 596.33 236.59 591.53 231.92 585.09 221.86 577.82 221.16 583.44"/><polygon class="cls-10" points="225.48 411.15 223.35 428.23 237.29 487.39 220.82 581.54 231.21 585.41 261.02 493.81 266.04 467.08 267.22 410.26 225.48 411.15"/><polygon class="cls-10" points="305.62 432.13 279.84 589.94 269.82 589.71 270.41 488.17 253.87 416.51 305.62 432.13"/><polygon class="cls-7" points="269.91 588.46 269.77 594.14 280.47 600.09 286.02 594.53 280.74 588.71 269.91 588.46"/><path class="cls-4" d="M226.53,390.17c9.92-57.4,7.85-99.42,8.57-110.92a24,24,0,0,1,8.75-17.3c3.48-.71,6.55-2.92,10.07-3.74,23.8-5.54,36.26,13.27,44.65,33.43a583.37,583.37,0,0,1,25.69,76.57c6,22.91,11.94,46,14.11,69.69.9,9.77,1.62,19-8.9,23.08-16.75,6.46-35.39,5.87-53,7.65-20.19,2.05-40.39,3.41-60.67,3.8C205.25,472.63,216.62,447.57,226.53,390.17Z"/><polygon class="cls-11" points="193.8 220.94 185.14 211.85 188.53 196.31 197.09 196.52 199.29 210.17 203.57 212.88 203.42 219.45 193.8 220.94"/><polygon class="cls-4" points="265.4 257.3 287.97 261.86 333.24 307.77 387.16 307.03 389.79 323.72 326.59 333.31 275.51 298.85 265.4 257.3"/><polygon class="cls-12" points="270.96 258.63 273.69 319.98 243.66 261.01 252.89 257.96 259.48 256.15 270.96 258.63"/><polygon class="cls-11" points="387.67 311.19 397.72 305.26 410.37 308.74 410.21 315.56 388.9 319.06 387.67 311.19"/><path class="cls-11" d="M272.9,223.49c-7.41-17.19-29.1-9.09-32.27,6.88-1.81,9.08,2.66,25,13.54,25.44.51,1.56,1.38,4.49,2.83,5.28s5.46-1.16,7-1.9a2.56,2.56,0,0,0,1.12-.84c.32-.5.14-1.61-.12-2.83a15.18,15.18,0,0,0,3.48-1.54c4.83-2.87,7.52-8.54,7.9-14.15S275.12,228.65,272.9,223.49Z"/><path class="cls-7" d="M263.9,205.39s4.33,9.25-7.5,14.73-17.73,17-13.29,26.81,15.33,15.31,11.06,19.1-22.7,5.08-22.7,5.08-18.91-33.81-7.82-52.75S255.71,194.16,263.9,205.39Z"/><polygon class="cls-7" points="361.02 579.81 360.11 586.89 373.36 595.79 381.35 589.62 375.18 581.63 361.93 572.73 361.02 579.81"/><polygon class="cls-13" points="360.57 577.43 370.79 487.1 358.49 385.98 361.26 364.46 416.19 362.38 418.17 397.39 408.95 487.24 374.26 582.05 360.57 577.43"/><polygon class="cls-7" points="404.77 263.88 432.96 268.96 498.09 284.45 493.95 306.28 427.37 305.28 404.77 263.88"/><polygon class="cls-13" points="456.5 372.5 456.64 463.65 438.3 581 425.09 580.87 417.83 472.35 400.84 363.74 456.5 372.5"/><polygon class="cls-7" points="425.11 586.44 439.32 593.72 446.53 586.65 439.46 579.44 425.18 579.3 425.11 586.44"/><path class="cls-7" d="M348.79,410.39c-.22-3.95-.28-7.25-.36-8.43-.64-10.58-.62-21.19-.21-31.79.36-9.5-.19-32.95.6-42.42.65-7.82,3.59-27.47,6.31-34.91,6.75-18.5,4-19.92,40.08-28.39,15.8-3.72,20.45,5.92,34.53,16.24,1.39,1,1.91,7.76,2.37,9.51.8,3.1,1.64,6.18,2.56,9.25.72,2.4,1.5,4.8,2.34,7.17h0s15.35,49,23.54,59,24.49,23.5.19,34.76a91,91,0,0,1-13.24,4.72s-20.72-.49-31.27.52a180.31,180.31,0,0,0-28.8,5.24c-6.29,1.63-12.68,3.75-18.13,7.24-5.21,3.32-8.77,7.86-14.05,11.29a2.88,2.88,0,0,1-1.65.64C350.38,429.85,349.25,418.69,348.79,410.39Z"/><path class="cls-14" d="M395.25,268.74c-1.45,1.46-5.47,3.19-10.35,3a2.39,2.39,0,0,1-2.17-1.62,63,63,0,0,1-2.06-8c-3.62,0-7.93-.44-9.66-3.62a10.19,10.19,0,0,1-.91-3.28q-1.12-7-2.26-14a12.64,12.64,0,0,1-.14-4.86c.67-2.78,3.14-4.75,5.64-6.13,6.4-3.51,14.31-4.59,21.12-2a11.07,11.07,0,0,1,4.78,3.21c1.87,2.34,2.17,5.52,2.39,8.51.21,2.76.41,5.51.62,8.27.24,3.17.27,6.85-2.16,8.91-1.28,1.09-3.1,1.52-4.15,2.84C394.08,262.36,395.62,265.78,395.25,268.74Z"/><path class="cls-7" d="M419.43,211.45a30.49,30.49,0,0,1,1.11-3.9c1-2.75,2.52-5.33,3.11-8.2s0-6.28-2.48-7.89a9,9,0,0,0-5.47-1.06,35.06,35.06,0,0,0-17.55,5.67c-5,3.25-9,7.22-15.21,7.06-5.8-.16-9.24,1.9-13.95,5.67-5.1,4.07-12.73,7.24-17,12a16.48,16.48,0,0,0-3.51,7.07,24.72,24.72,0,0,0,8.44,24.75,34.77,34.77,0,0,0,5.22,3.34c3.76,2,8.31,4.57,12.46,4.38-1.07-3.41-7.81-13-6.17-16.65,2.61-5.8,12.43-7.47,17.9-8.14,6-.74,12.29,1.5,18.1.44,4.17-.76,8.57-4.45,11.24-7.66C419,224.34,418.37,216.29,419.43,211.45Z"/><path class="cls-15" d="M562.16,422.37l-1,18.48A10.76,10.76,0,0,1,550,451.16l-47.34-2.5a10.75,10.75,0,0,1-10-11.43l1-18.47Z"/><path class="cls-16" d="M426.18,166.4c3.43-65,57.61-115,121-111.64s112,58.76,108.59,123.77a119.47,119.47,0,0,1-21,61.88h0c-34.84,53.2-44.65,98.77-44.65,98.77l-57.77-3.05-57.78-3.05s-4.95-46.35-34-102.92h0A119.5,119.5,0,0,1,426.18,166.4Z"/><path class="cls-17" d="M591.45,339.25l-4.15,78.5a5.81,5.81,0,0,1-6,5.64l-106.9-5.65a5.8,5.8,0,0,1-5.34-6.23l4.14-78.5Z"/><g class="cls-18"><path class="cls-19" d="M429.38,144.48c26.08,60,77.94,153.27,160.81,194.39,0,.19-.07.31-.07.31l-57.77-3.05-57.78-3.05s-4.95-46.35-34-102.92h0a119.5,119.5,0,0,1-14.39-63.76A121.16,121.16,0,0,1,429.38,144.48Z"/></g><path class="cls-20" d="M636.52,187.22c3-56.76-39.45-105.13-94.81-108-32.35-1.71-62,12.49-81.57,35.92,18.94-29.89,52.47-48.92,89.64-46.95,55.35,2.92,97.8,51.29,94.8,108.05a104.08,104.08,0,0,1-24.08,61.54A104.33,104.33,0,0,0,636.52,187.22Z"/><polygon class="cls-21" points="554.67 337.31 576.53 187.38 556.28 202.88 540.82 174.53 522.28 200.21 504.06 183.41 510.02 334.96 504.09 334.64 497.59 169.29 521.41 191.24 541.52 163.38 558.16 193.89 584.5 173.73 560.6 337.63 554.67 337.31"/><path class="cls-22" d="M562.78,322.67l-2.18,15-5.93-.32,2.69-18.47Q560,320.79,562.78,322.67Z"/><path class="cls-22" d="M507.57,272.56,510,335l-5.93-.32-2.73-69.42Q504.41,268.92,507.57,272.56Z"/><rect class="cls-23" x="523.68" y="303.69" width="14.52" height="118.37" transform="translate(140.58 873.94) rotate(-86.98)"/><rect class="cls-23" x="522.04" y="334.64" width="14.52" height="118.37" transform="translate(108.12 901.63) rotate(-86.98)"/><path class="cls-24" d="M524,386.28l-53.4-2.82.87-16.46,32.94,1.74A219.49,219.49,0,0,0,524,386.28Z"/><path class="cls-24" d="M472.21,352.5l1-19.49,1.86.1q7.59,11.06,15.41,20.36Z"/><path class="cls-24" d="M581.34,423.39l-106.9-5.65a5.8,5.8,0,0,1-5.34-6.23l.72-13.55L547,402a171.87,171.87,0,0,0,40,17.19A5.72,5.72,0,0,1,581.34,423.39Z"/><path class="cls-15" d="M504.39,368.74,471.45,367l.76-14.5,18.3,1Q497.41,361.74,504.39,368.74Z"/><path class="cls-15" d="M547,402,469.82,398l.76-14.5,53.4,2.82A199,199,0,0,0,547,402Z"/><path class="cls-25" d="M493,430c12.64,13.86,38,19.19,46.35,20.62l-36.7-1.94a10.75,10.75,0,0,1-10-11.43Z"/><rect class="cls-21" x="541.02" y="0.04" width="9.16" height="37.32" rx="3.05" transform="translate(0.74 -15.38) rotate(1.62)"/><rect class="cls-21" x="479.86" y="9.12" width="9.16" height="37.32" rx="2.84" transform="translate(53.9 251.58) rotate(-30.75)"/><rect class="cls-21" x="602.88" y="12.59" width="9.16" height="37.32" rx="3.11" transform="translate(1093.7 396.69) rotate(-146.02)"/><path class="cls-14" d="M479.17,324l16.29.88,9.52-11-5.19-4.34-10.91,3.83-3.05-2.08-11.11,4.25S479.39,324,479.17,324Z"/><polygon class="cls-7" points="378.07 278.41 432.08 324.35 478.26 313.67 485.31 327.03 431.28 351.75 413.18 346.14 366.66 300.66 378.07 278.41"/><path class="cls-4" d="M1000.29,90.33a32.13,32.13,0,0,0-32-32.21c-2.4,0-6,1.29-8.2,0-1.84-1.07-2.52-3.62-3.93-5.12a28.56,28.56,0,0,0-5.84-4.73,28,28,0,0,0-26-1.56l-.06,0h0l-.67.32,0,0c-2.85,1.25-13.29,6.65-14.15,18.5a21.89,21.89,0,0,1,16.78,7,19.19,19.19,0,0,1,17.27-5.1A19.12,19.12,0,0,1,958.24,90a.94.94,0,0,1-.94.76.62.62,0,0,1-.19,0,1,1,0,0,1-.74-1.13,17.21,17.21,0,0,0-29.59-15.05,1,1,0,0,1-1.35.06.87.87,0,0,1-.13-.15,20,20,0,0,0-28.17-2.32,1,1,0,0,1-1.23-1.46,21.66,21.66,0,0,1,11.5-5c.72-12.13,10.54-18.1,14.5-20a38.34,38.34,0,0,0-57,9.11A33.45,33.45,0,0,0,828.6,71a36.81,36.81,0,0,0-3.28,8.29,6.89,6.89,0,0,1-.39,1.06A43.92,43.92,0,0,1,852,78.8a1,1,0,0,1,.67,1.17,1,1,0,0,1-1.18.67c-22-6.06-40.2,9.57-40.38,9.73a1,1,0,0,1-.47.22,34.57,34.57,0,0,0-6.4,6.39A42.5,42.5,0,0,0,838.09,165c2.65,0,5.46-1.49,8-.62a21.16,21.16,0,0,1-.6-13.63,1,1,0,0,1,1.83.57c-3.23,10.39,4.84,20.07,4.92,20.16a.92.92,0,0,1,.19.4,18.53,18.53,0,0,0,5,4.39A35.64,35.64,0,0,0,876,181.6a35.18,35.18,0,0,0,15.41-3.47.8.8,0,0,1,.19-.13c14.26-8,16.38-23.79,16.4-23.95a1,1,0,0,1,1.9.23A36.59,36.59,0,0,1,897,176.62a36.09,36.09,0,0,0,27.23,12.49c5.3,0,10.8-1.52,15.81-3.48,5.29-2.07,9.12,5.79,11.13,9.17,3,5,4.57,11.1,8.78,15.25,6.08,6,12.68.67,13.4-6.66a58.89,58.89,0,0,0-.2-12.59c-.24-2.05-.66-4.42.27-6.37,1.12-2.33,3.24-2,5.47-2.49a29.67,29.67,0,0,0,21.18-38.66,26.23,26.23,0,0,1-8.5,1.95c-.64,0-1.32.07-2,.06-5.26,0-12.62-1.43-20.73-7.17a1,1,0,0,1-.22-1.34,1,1,0,0,1,1.33-.22c16.71,11.84,30.11,4.65,30.24,4.57a1.43,1.43,0,0,1,.27-.09,28,28,0,0,0-.17-50.71Zm-106,48.23a1.12,1.12,0,0,1-.31.05,1,1,0,0,1-.9-.64,20.43,20.43,0,0,0-25.66-12.69l-.13,0-.18.06a1,1,0,0,1-1.22-.59,1,1,0,0,1,.08-.79,24.92,24.92,0,0,0-47.85-2.48,1,1,0,0,1-1.21.6,1,1,0,0,1-.6-1.22,26.84,26.84,0,0,1,51.43,2.28,22.34,22.34,0,0,1,27.14,14.16A1,1,0,0,1,894.26,138.56Zm79.6-20.71a.94.94,0,0,1-1.34.14,22.65,22.65,0,0,0-36.77,20,1,1,0,0,1-.85,1.05h-.1a1,1,0,0,1-.95-.85,24.55,24.55,0,0,1,39.87-21.66A1,1,0,0,1,973.86,117.85Z"/><polygon class="cls-26" points="764.85 274.7 754.7 267.84 757.44 263.38 765.43 266.53 765.75 263.82 773.72 270.75 771.49 275.78 764.85 274.7"/><polygon class="cls-10" points="863.85 259.82 823.65 285.86 771.8 267.5 767.9 277.7 824.3 312.94 880.65 292.14 863.85 259.82"/><polygon class="cls-7" points="864.68 580.39 864.68 586.14 849.93 593.51 842.56 586.14 849.93 578.77 850.89 578.77 851.12 580.39 864.68 580.39"/><polygon class="cls-7" points="864.68 580.39 851.12 580.39 850.89 578.77 864.68 578.77 864.68 580.39"/><path class="cls-10" d="M885.19,255.77c15.84,1,32.08,9.26,36.63,24.69a19.14,19.14,0,0,1,.77,3.89c.64,7.92-1.79,13.78.5,21.74,2,6.92,3.79,13.94,5.11,21,1.91,10.25,3.68,20.45,5.07,30.62a312.82,312.82,0,0,1,3,33.66c0,1.23.28,4.68.42,8.81.29,8.63.1,20.19-3.53,20.62a3.62,3.62,0,0,1-1.94-.51c-4.68-2.28-8.36-5.24-12.49-7.84a45.57,45.57,0,0,0-4.58-2.55,59.14,59.14,0,0,0-10.28-3.66c6,.32,6.74-.79,6.74-.79s-5.41-21.7-9.2-40.57c-2-9.72-3.48-18.7-3.62-23.57-.42-14.64-2.3-63-2.3-63l-9.08-18.49-1.68,0,.36-.05A12.44,12.44,0,0,1,885.19,255.77Z"/><path class="cls-10" d="M817.78,411.2c.93-9.59,1.89-19.18,3.07-28.74,2.35-19.07,5.56-38.09,11-56.55,2.07-7.06,4.45-14,6.84-21l8.72-25.4c3.61-10.52,9.71-17.93,20.39-21.61a40.92,40.92,0,0,1,6-1.54c0,.22.1.44.13.67a5.43,5.43,0,0,0,1.05,2.87l-7,.07s-19.77,69.09-20.5,81c-.27,4.53-1.19,14.41-2.21,24.82-1.62,16.47-3.5,34.27-3.5,34.27s8.68.21,21.24,1.14l-2.79-.05c-8.73-.08-17.79,3.63-26.15,6-.6.17-1.2.34-1.79.49-3.41.91-6.18,3.39-9,5.34C819,415.93,817.21,417.07,817.78,411.2Z"/><path class="cls-10" d="M834,404.79c8.36-2.4,17.42-6.11,26.15-6l2.79.06,2.37.18c5.86.46,12.43,1.08,19.3,1.9l1,.12a120.49,120.49,0,0,0,18.18,2.81,57.53,57.53,0,0,1,10.28,3.66,43.67,43.67,0,0,1,4.58,2.55l.05,9.38L902,578.77H888.26v1.62h-.08L873.09,473.5l-.06-.6-8.27,107.49h-.08v-1.62H850.89l-17.5-119.7Z"/><polygon class="cls-7" points="901.99 578.77 903 578.77 910.38 586.14 903 593.51 888.26 586.14 888.26 580.39 901.82 580.39 901.99 578.77"/><polygon class="cls-7" points="901.99 578.77 901.82 580.39 888.26 580.39 888.26 578.77 901.99 578.77"/><path class="cls-12" d="M841.72,400.1s8.68.21,21.24,1.14l2.37.19c5.86.46,12.43,1.08,19.3,1.9l1,.12a120.09,120.09,0,0,0,18.18,2.8c6,.32,6.74-.79,6.74-.79s-5.41-21.7-9.2-40.57c-2-9.72-3.48-18.7-3.62-23.57-.42-14.64-2.3-63-2.3-63l-9.08-18.49-1.68,0-6.95.82a4.15,4.15,0,0,1-1.79-.05,2.27,2.27,0,0,1-.76-.43l-.24-.25-7,.07s-19.77,69.09-20.5,81c-.27,4.53-1.19,14.41-2.21,24.82C843.6,382.3,841.72,400.1,841.72,400.1Z"/><path class="cls-14" d="M862.67,234.39c.45-1.87-.42-3.77-.84-5.64a5.5,5.5,0,0,1-.09-1.46,41.84,41.84,0,0,0,9.14-2.88c5.09-2.23,15-4.6,20.3-2,4.19,2.08,2.9,8.7,2.69,12.89a11.56,11.56,0,0,0,.11,3.22,13.71,13.71,0,0,0,1.35,2.71,11.48,11.48,0,0,1-2.48,4.59c-3.35,3.78-6.76,5.65-7.66,9.92a12.44,12.44,0,0,0-.15,4l-.36.05-6.95.82a4.15,4.15,0,0,1-1.79-.05,2.27,2.27,0,0,1-.76-.43l-.24-.25a5.43,5.43,0,0,1-1.05-2.87c0-.23-.08-.45-.13-.67-.9-3.89-5.21-5.65-7.53-9.11a30.23,30.23,0,0,1-4.6-13.14l0-.24A6.46,6.46,0,0,0,862.67,234.39Z"/><path class="cls-7" d="M846,212.27c-.16,4.8,3.47,12.6,7.93,14.56a9.69,9.69,0,0,0,2.85.71c.93,2.6,2.5,5.12,4.8,6.37a6.46,6.46,0,0,0,1.07.48c.45-1.87-.42-3.77-.84-5.64a5.5,5.5,0,0,1-.09-1.46,41.84,41.84,0,0,0,9.14-2.88c5.09-2.23,15-4.6,20.3-2,4.19,2.08,2.9,8.7,2.69,12.89a11.56,11.56,0,0,0,.11,3.22,13.71,13.71,0,0,0,1.35,2.71,3.81,3.81,0,0,1,.31,1c3.43-1.54,5.5-5.4,7.44-8.54a33.08,33.08,0,0,0,2.58-5c3.18-8,2-18.71-2.88-26.35a17,17,0,0,0-5.14-5.41c-4.84-2.95-11.57-3.22-16.78-5.25-7.33-2.84-11.06-.28-18,2-2.76.88-5.94,1.65-7.41,4.28-.8,1.44-.92,3.23-1.74,4.67-1.05,1.86-3.05,2.83-4.78,4A6.66,6.66,0,0,0,846,212.27Z"/><polygon class="cls-14" points="975.95 208.33 977.74 196.21 972.6 195.22 969.53 203.25 967.32 201.65 967.04 212.21 972.25 213.96 975.95 208.33"/><polygon class="cls-10" points="898.11 271.29 944.47 259.23 965.94 208.6 976.1 212.61 964 278.01 910.6 305.51 898.11 271.29"/><polygon class="cls-7" points="786.92 582.26 787.57 588.63 775.48 596.29 768.46 590.57 774.18 583.56 786.27 575.89 786.92 582.26"/><polygon class="cls-7" points="787.39 387.95 789.36 407.3 772.08 493.75 787.38 580.14 775 583.95 734.98 481.23 732.78 449.83 738.21 384.77 787.39 387.95"/><polygon class="cls-7" points="693.58 394.54 693.18 476.26 709.29 581.52 721.13 581.44 727.96 484.17 743.51 386.85 693.58 394.54"/><polygon class="cls-7" points="721.1 586.43 708.34 592.92 701.89 586.56 708.25 580.12 721.05 580.03 721.1 586.43"/><path class="cls-27" d="M683.6,382.55c8.55-26.47,9.46-54.25,11.94-81.81.74-8.14,1.52-16.45,4.9-23.88,3.89-8.53,10.32-13,17.81-15.5,9.53-3.13,20.77-2.95,30.68-3.55,9.4-.3,17.72,35,27.31,52.17,5.87,10.5,11.93,19.79,15.9,31.24,3.8,11,7.45,22.18,9.67,33.62,3.34,17.26,11.89,29.32,3.72,35.19-.75.25-1.47.49-2.15.74A200.5,200.5,0,0,1,762,421a165.38,165.38,0,0,1-37.8.71c-17.2-1.69-33.87-4.12-49-13.09Z"/><rect class="cls-21" x="664.07" y="210.86" width="59.22" height="218.8" transform="translate(1457.34 296.42) rotate(153.43)"/><polygon class="cls-14" points="671.23 209.16 621.1 175.11 618.26 235.65 671.23 209.16"/><polygon class="cls-7" points="639.91 187.89 621.1 175.11 620.03 197.83 639.91 187.89"/><path class="cls-13" d="M736.38,454.24l39.32-19.67a7.61,7.61,0,0,0,3.41-10.23l-10-19.48-53,26.48,10,19.49A7.62,7.62,0,0,0,736.38,454.24Z"/><polygon class="cls-12" points="716.13 431.34 769.09 404.86 764.14 394.95 710.97 421.03 716.13 431.34"/><polygon class="cls-26" points="751.88 365.11 742.27 373.64 738.45 369.69 743.73 362.39 741.05 361.37 750.17 355.07 754.7 358.63 751.88 365.11"/><polygon class="cls-27" points="754.4 293.32 770.99 313.13 746.37 356.17 755.72 362.78 806.18 314.6 766.92 258.94 754.4 293.32"/><path class="cls-26" d="M753.53,231.5c-5.36-16.17-28.95-21.8-34.44-3-1.65,5.65-2.64,11.64-1.52,17.42s4.65,11.31,10,13.68l.09,0-.63,4.49a1.34,1.34,0,0,0,.1.95,1.35,1.35,0,0,0,1,.45l5.37.8a5.83,5.83,0,0,0,2.66,0c1.87-.59,2.65-2.83,2.73-4.79,0-.47,0-.95,0-1.42C749.51,256.46,757,242.07,753.53,231.5Z"/><path class="cls-7" d="M724.78,203.89c-4.32-.64-8,3.55-12,5.75-3.32,1.83-7.08,2.32-10.52,3.83s-6.81,4.69-6.89,8.65c-3.48-1.81-7.25-3.67-11.16-2.92s-7.52,5.41-6,9.25c1.39,3.44,5.88,4.25,7.37,7.64,2.37,5.35-4,13.67.34,17.22,1,.86,2.47,1.06,3.5,1.94,1.28,1.1,1.69,3,2.26,4.64,2.58,7.56,10.2,12.49,17.72,11.48a20,20,0,0,0,10.08-11.9c2-6.25-1.32-8.43-1.89-14.3A25.6,25.6,0,0,1,723.1,227c2.63-3.24,6.39-6,10.36-6.41,1.61-.15,1.1,1.19,2.92-.06a8.14,8.14,0,0,0,2.07-3.53C734.1,213.49,730.47,204.74,724.78,203.89Z"/><path class="cls-7" d="M771.51,212.21c2.23.62,4.65.53,6.77,1.46,3.19,1.4,3,4.71,3.9,7.58,1,3.19,2.45,7.46,4.55,9.94,1.52,1.78,3.64,2.8,5.48,4.17s3.54,3.41,3.5,5.9-1.62,4.46-1.85,6.81c-.28,3.5.32,5.29-.76,8.87-.55,1.85-1.18,3.8-2.56,5.06-1.83,1.66-4.43,1.63-6.72,1.25s-4.64-1-6.9-.26c-4.88,1.64-4,6.58-5.27,10.73-2,6.3-9.29,10-14.88,7.73-4.74-1.9-7.48-7.4-7.27-12.83.11-2.72,1.19-5.26,1.27-8s-1.4-6.26,1-8.35a18.9,18.9,0,0,0,1.84-1.35,3.84,3.84,0,0,0,.8-1.72,7.53,7.53,0,0,0-1.25-6.2c-.92-1.2-2.23-2.07-2.8-3.51-.64-1.65-.13-3.58,0-5.4.26-4.41-2.15-8.74-5.83-10.44-2.42-1.12-4.6-1.79-6.71-3.49-.33-.26-5.14-4.52-5.26-3.6a9.64,9.64,0,0,1,2.09-4.28,19.14,19.14,0,0,1,5.48-5.43c7.08-4.09,7.43,5.41,13.11,4.16,1.38-.3,2.41-1.56,3.64-2.31,2.34-1.42,5.2-.91,7.59.15S769,211.51,771.51,212.21Z"/><polygon class="cls-26" points="677.89 360.31 684.88 358.82 693.63 365.52 687.02 373.24 680.4 367.83 677.89 360.31"/><path class="cls-7" d="M143,115.13c8,1.07,25.72,5.39,35.62,12.25.17.19.36.37.53.56L215.3,95.72c-6.26-3-27.2-11.51-48.66-3.32C141,102.19,133.39,113.84,143,115.13Z"/></g></g></svg>