<svg xmlns="http://www.w3.org/2000/svg" viewBox="0 0 1158 593.62"><defs><style>.cls-1,.cls-14{fill:#0071bc;}.cls-1{opacity:0.3;}.cls-2{fill:#29abe2;}.cls-3{fill:#4a75cb;}.cls-4{fill:#699dee;}.cls-5{fill:#1e3d70;}.cls-6{fill:#0e2549;}.cls-7{fill:#ed975d;}.cls-8{fill:#2b478b;}.cls-9{fill:#233862;}.cls-10{fill:#ffb27d;}.cls-11{fill:#2c3a64;}.cls-12{fill:#4a82d3;}.cls-13{fill:#a9453d;}.cls-15{fill:#2a4e96;}.cls-16{fill:#35488b;}.cls-17{fill:#2e3552;}.cls-18{fill:#4271bc;}</style></defs><title>Asset 4teenagers_2</title><g id="Layer_2" data-name="Layer 2"><g id="Layer_1-2" data-name="Layer 1"><path class="cls-1" d="M57.84,593.44s-124.39-264.9,120.78-264.9c129.54,0,76.17-72.68,164.24-156.8S738.93,20.42,804.49,182.85,708,468.6,864.58,447.45C1052.7,422,1127,593.44,1127,593.44Z"/><path class="cls-2" d="M1065.33,559.83c-11.61-8.48-35.33-2.76-52.84,3.37a79.42,79.42,0,0,0-9.62-11.17c37.72-24.29,89.8-76.1,62.2-80.49-24-3.81-56.39,42.83-73.7,71.22-18-12.1-45.52-21-87.57-17.9-109.14,8-194.39-62.4-257.24-38.92-50,18.67-95.76,29.13-139.93,25.55,1.9-32.26,2.32-95.6-23-102.17-25.72-6.68-.49,65.26,13.53,101.18q-4.93-.63-9.84-1.5c-9.08-17.91-24.05-41.34-40.47-42.14-15.48-.75,3.62,20.31,22.41,38.16-54-11.34-118.07,32.56-119.14,84.47h674.27a62.66,62.66,0,0,0-6.49-17.57C1043.94,571.41,1077.94,569,1065.33,559.83Z"/><rect class="cls-3" x="319.47" y="549.37" width="177.71" height="40.13"/><rect class="cls-4" x="264.68" y="549.37" width="177.71" height="40.13"/><rect class="cls-3" x="567.09" y="404.53" width="132.33" height="184.96" transform="translate(1266.51 994.02) rotate(180)"/><rect class="cls-4" x="526.29" y="404.53" width="132.33" height="184.96" transform="translate(1184.91 994.02) rotate(180)"/><polygon class="cls-5" points="658.62 404.53 699.42 432.3 699.42 404.53 658.62 404.53"/><path class="cls-3" d="M250.14,445.5s-24.75,18.4-29.57,17.29,18.08-19.87,18.08-19.87c-8.62-4.14-35.42-1.54-35.42-1.54s-8.92,28.78-13.33,26.51,9.21-25.08,9.21-25.08c-9.6-.58-21.38,6.55-21.38,6.55-16.12,12.73,1.06,32.78,1.06,32.78s-3.31,9.91-13.49,18.93c0,0-14.54,10.75-15.55,30l2.64.24s4.18-17.9,11.78-26.37l1.26-1.28c1.24-1.14,2.11-2,2.69-2.64,3.78-3.64,9-8.27,11.53-8.72a5.28,5.28,0,0,1-.11-1.27c0,.41.07.82.11,1.27.86,10.13,20.52,19,32.61,20.8s8.36-3.15,4.19-10.52-17.35-10.67-20.36-14.06,3.21-3.41,10.5-.08,8.28,12.2,20,17.8,29.27-13.8,29.27-13.8c-9.31-.47-22.62-10.59-22.13-13.68s22.57,5.34,26.35,5.74,12.37-4.29,13.7-19.51S250.14,445.5,250.14,445.5Z"/><path class="cls-2" d="M118.71,456.93s27.34-15.31,14.58-36.08c0,0-10.2-12.76-21.14-16,0,0,5.84,31,0,31.71s-4-35-4-35-28.79-13.84-40.09-12.75c0,0,17.86,30.25,12,29.52S54.21,387,54.21,387,24.69,381.49,20,399s2.92,26.24,7.29,27.34S59.68,427,59,430.69s-19.68,9.47-30.25,6.19c0,0,11.66,28.79,27,27.34s20-10.94,29.52-11.67,16.4,1.83,11.66,4.38-20.77.83-28.43,7.34-13.85,10.51.37,13.43,39.72,1.09,44.82-9.84Z"/><path class="cls-6" d="M126,483.53c-7.65-14.21-7.29-26.6-7.29-26.6-8.74-27.7-85.27-52.48-85.27-52.48,97.3,39.36,80.17,63.41,80.17,63.41,2.62,1.53,6.56,8.82,9.28,14.42.39,1,1,2.27,1.92,4.06h0c.37.81.67,1.47.87,1.93,5,12.54,2.36,34.18,2.36,34.18l3,.82C137.81,501.45,126,483.53,126,483.53Z"/><path class="cls-2" d="M162.2,435.82s-36-20.18-19.22-47.56c0,0,13.45-16.81,27.86-21.14,0,0-7.68,40.84,0,41.8s5.29-46.12,5.29-46.12,38-18.26,52.84-16.81c0,0-23.54,39.87-15.85,38.91s34.11-41.32,34.11-41.32,38.91-7.2,45.15,15.86-3.84,34.58-9.6,36-42.76,1-41.8,5.76,25.94,12.49,39.87,8.17c0,0-15.37,38-35.54,36S218.88,431,206.39,430.05s-21.61,2.41-15.37,5.77,27.38,1.1,37.47,9.68,18.26,13.86-.48,17.7-52.36,1.44-59.09-13Z"/><path class="cls-6" d="M274.61,366.64S173.73,399.31,162.2,435.82c0,0,.48,16.33-9.61,35.07,0,0-15.56,23.62-6.69,52.38l4-1.08s-3.49-28.53,3.11-45.05c.27-.61.66-1.49,1.15-2.55h0c1.2-2.36,2-4.1,2.53-5.35,3.59-7.38,8.78-17,12.23-19C168.92,450.23,146.35,418.52,274.61,366.64Z"/><path class="cls-5" d="M161,585.63a70.57,70.57,0,0,0,70.58-70.57H90.41A70.57,70.57,0,0,0,161,585.63Z"/><path class="cls-4" d="M178.35,585.09a70.62,70.62,0,0,1-79.34-70h17.53A70.58,70.58,0,0,0,178.35,585.09Z"/><path class="cls-4" d="M223.83,580.78H98.14a8.71,8.71,0,0,0-8.71,8.71h143.1A8.7,8.7,0,0,0,223.83,580.78Z"/><path class="cls-4" d="M232.08,515.06H89.17a1.08,1.08,0,1,0,0,2.16H232.08a1.08,1.08,0,0,0,0-2.16Z"/><path class="cls-7" d="M776.68,143.41c-2-.31-8.21,5.39-8.21,5.39h0c-13.16,1.52-32.4,5-39.33,6.35-4.91.95-18.12-3.56-31-8.72-15.34-6.16-30.25-13.25-30.25-13.25-8.52-.44-18.19,15.1-.92,25,2.63,1.51,12.54,4.08,23.94,6.43h0c15.74,3.24,34.32,6.06,40.65,5.07,7.35-1.15,28.15-8.76,40.52-14.59h0l.14-.07c.74-.34,3.77-1.69,5.79-1.57,2.32.13,7.48-4.11,7.64-5.24S778.73,143.72,776.68,143.41Z"/><path class="cls-8" d="M760.61,339.1l-7.24,1.47s-33.17-37.27-38.29-52.95c-2.74-8.38-20.25-12-38.54-16.73-15.93-4.12-32.45-9.08-40.35-18.76-17-20.8,10.66-46.35,10.66-46.35s29.36,17.45,54.69,35.48c17.7,12.6,33.44,25.48,35.81,32.88C743.11,292.14,755.32,326.36,760.61,339.1Z"/><path class="cls-9" d="M750.91,351.39H755c1.36-.22,2.37-.61,3.77-.79a3.77,3.77,0,0,1,3.3.79l0,0h17.32c.43-.62,0-2.06-.39-3.12a2.5,2.5,0,0,0-1.62-1.49c-1.84-.53-5.46-1-8.78-4-1.86-1.69-9-6.2-9-6.2h0c-.16,0-.91.23-4.15,3-1.68,1.41-4.55-2-4.55-2a4.05,4.05,0,0,0-.93,1.27,4.28,4.28,0,0,0-.38,2.66c.26,1.56-.57,4.46-1.24,6.42-.4,1.19-.74,2-.74,2S747.41,351,750.91,351.39Z"/><path class="cls-5" d="M701.54,241.26l-25,29.63c-15.93-4.12-32.45-9.08-40.35-18.76-17-20.8,10.66-46.35,10.66-46.35S676.21,223.23,701.54,241.26Z"/><path class="cls-8" d="M678.82,225.78s-2,6.35-5.3,15.92c-4.15,12.09-10.33,29.3-17,45.27-1.47,3.51-3,7-4.48,10.28-5.58,12.28-11.28,22.81-16.31,28.17-9,9.62-31,71.47-31,71.47l-5.47-1.51s-7.63-52.82,19.38-82.87a1.92,1.92,0,0,0,.55-1.13h0c.36-4.45,1.65-24.37,4.45-44.56.68-4.95,1.46-9.92,2.34-14.68,0-.3.11-.6.16-.9,4.11-22,8.05-31.79,13.12-36.71l37.35,10.63Z"/><path class="cls-9" d="M598.65,404.49h4.07c1.37-.21,2.38-.61,3.78-.79a3.8,3.8,0,0,1,3.3.79l0,0h17.31c.44-.62,0-2.06-.39-3.12a2.44,2.44,0,0,0-1.62-1.48c-1.84-.54-5.46-1-8.77-4-1.87-1.69-9-6.2-9-6.2h0c-.15,0-.9.24-4.15,3-1.68,1.41-4.54-2-4.54-2a4,4,0,0,0-.94,1.27,4.3,4.3,0,0,0-.37,2.66c.26,1.56-.58,4.46-1.24,6.42-.41,1.19-.75,2-.75,2S595.14,404.05,598.65,404.49Z"/><path class="cls-10" d="M606.66,153.94s-6.25,15.29-13.46,30.17c-6.05,12.51-12.79,24.73-17.06,27.33-6,3.68-22.6,14.05-33.36,21.79,0,0-8.39-.06-9.69,1.54s-4.32,8.83-3.44,9.56,7.55.39,9.17-1.27c1.42-1.45,4.57-2.49,5.35-2.73l.15-.05h0c13.07-4,33.57-12.4,39.78-16.49,5.34-3.53,17.19-18.12,26.64-31.11h0c6.85-9.42,12.45-18,13.38-20.88C630.27,152.87,612.66,147.89,606.66,153.94Z"/><path class="cls-11" d="M639.33,94a33,33,0,0,0-2.23-2.89,7,7,0,0,0,2.75-.41c2.2-.91,3.2-7.87,2.87-9.94s-3.38-8-7.13-8.63S628,75.71,628,75.71c.69-3,7-4.75,7-4.75-13.1,2.41-12.43,11.14-12.34,12-12-4.27-19,18.3-19,18.3l31,18.29s.09-5,3.05-4.66C642.35,115.34,646.19,104,639.33,94Z"/><path class="cls-10" d="M641.31,141.36c-7.12,3.36-16.57-1.48-16.52-1.53.61-.61.39-2.44-.17-4.83a35.27,35.27,0,0,0-4.32-10c-.51-.87-1-1.73-1.63-2.65l.81-.3,13.84-5.55s2.24,4,4.58,7.68c2,3.06,4.07,5.8,5,5.7C642.94,129.86,652.1,136.17,641.31,141.36Z"/><path class="cls-7" d="M633.32,117.9c-.35,4.94-2,13.84-8.7,17.1a35.27,35.27,0,0,0-4.32-10Z"/><path class="cls-10" d="M619.49,130.64s18-7.1,13.42-18.25-5.36-19.58-17.06-15.52-12.17,9.24-11.54,13.33S614.68,132.2,619.49,130.64Z"/><path class="cls-11" d="M626.21,109.85c8.32-1.18,10.75-4.54,10.75-4.54a23,23,0,0,1-12.17-9.7s-9.35-3.16-16.28,2.12a4.58,4.58,0,0,0-.87,2c-1.59-.52-4-.38-5.36,4.1-2.07,6.75,5.3,14.11,5.3,14.11,1.78-.51-.23-6.51-.51-9.72-.21-2.36,1.06-5.38,1.75-6.82.88,1.15,9.66,12.18,20.37,12.62a45.39,45.39,0,0,1-10.81-5.81A13.82,13.82,0,0,0,626.21,109.85Z"/><path class="cls-4" d="M675.61,164.34c-.15-.54-.31-1.1-.48-1.67A42.24,42.24,0,0,0,679.67,149c1.23-8.24-.86-13.33-.86-13.33s-12.5-6.63-18-7.47l-.07,0-.22,0c-5.57-.77-17.63,1.69-17.63,1.69s2.33,6.2-4.23,10.32-13.58-1.05-13.58-1.05l-.66.46h0s-17.27,11.39-18.82,14-8.2,15.49-8.2,15.49,2.11,10.83,25.44,11.73a53.88,53.88,0,0,1,3.86,13c1.85,14.69-.3,26.28,1.86,34.86s41.09,3.68,48.13,2,5.47-9.17,6-16.48C683.36,205,677.91,172.44,675.61,164.34Z"/><path class="cls-12" d="M679.67,149a42.42,42.42,0,0,1-4.57,13.69c-.62-2.7-3.11-12.57-7.13-17C668,145.68,674.74,146.29,679.67,149Z"/><path class="cls-7" d="M521.19,245.33s7.25-8.79,8.81-9.83,8.41-2.86,8.81-2.49.41.9-.44,1.65-4.09,2.64-3.63,2.85,10.24-4.65,11.64-3-.79,8.39-4.56,11.63-15,4.62-15.71,5.07C520.11,255,521.19,245.33,521.19,245.33Z"/><path class="cls-10" d="M393.52,225s10.42,12.36,23.68,7.19c0,0,2.86-6.91,2.9-12,0-.62,0-1.23,0-1.81.07-5.73.27-8.94.27-8.94h0c-.6-.25-20.28-8.33-20.26-7.66C400.45,217.31,393.52,225,393.52,225Z"/><path class="cls-7" d="M402.08,205.51c1.9,3.52,8.41,10.4,18,12.91.07-5.73.27-8.94.27-8.94h0C419.83,209.33,401.52,204.48,402.08,205.51Z"/><path class="cls-10" d="M424.51,208.88s-22.13,5.21-25.16-8.62-7.92-22.48,6.08-26.38,17.91.77,20,5.14S430.18,207.17,424.51,208.88Z"/><path class="cls-13" d="M400.11,204c-.31.19-5.07,1.65-14.08-16.31a15.63,15.63,0,0,1,.92-14.31c3.3-5.39,15-9.63,24.72-11.48s12.05,3.63,14.34,9.13c2.4,5.77,9.34,10.52,9.34,10.52-8.38,4.68-18.48-2-22-.91s-4.74,6.61-5,8.38-.67,3.23-5.06,1.65-2,6.24-1.29,7.73C402,198.43,402.63,202.41,400.11,204Z"/><path class="cls-11" d="M343.1,549.37H329.7c-2.81,0-5.93-2.85-6.71-8.07s-6.55-8.07-7.8-12.34,5.15-10.28,5.15-10.28l1.07-1.4,1.11-1.45,10.62,2.53s.26,2.56.42,5.82a74.39,74.39,0,0,1,.05,7.47c-.32,5.7,1.57,11.83,6.56,12.94S343.1,549.37,343.1,549.37Z"/><path class="cls-11" d="M436.38,549.5H400.86a3.22,3.22,0,0,1-.75-.23c-2.37-1.22-1.63-10.57-1.34-13.45.05-.54.09-.85.09-.85s12.49-10.29,14.21-2.41c.05.24.12.48.18.72h0c2.17,7.36,11.86,10.71,17.46,11.64C435,545.65,436.1,548.22,436.38,549.5Z"/><path class="cls-14" d="M429.22,344.11s-1.89,23.66-4.12,52.11c-3,38.64-6.68,86.11-7,95.1-.62,15.61-3.12,40.59-3.12,40.59s-5.93,5.93-17.8,3.43c0,0-10.57-35.65-13.59-73.38-.05-.62-.1-1.24-.14-1.86-2.81-38.4-7.18-119.27-7.18-119.27Z"/><path class="cls-5" d="M429.22,344.11s-1.89,23.66-4.12,52.11L383.55,462c-.05-.62-.1-1.24-.14-1.86-2.81-38.4-7.18-119.27-7.18-119.27Z"/><path class="cls-14" d="M420.56,346.92s-34.19,85.7-56.67,126-29.5,51.52-29.5,51.52-12.88-5.16-14.05-8.67c0,0,8.59-77.75,23.65-96.71,8.51-10.71,18.5-42.85,19-54.09s3-33.49,3-33.49Z"/><path class="cls-7" d="M342.28,332.64s-.88,10.71-1.53,12.35-5,6.74-5.47,6.67-.8-.48-.55-1.52,1.75-4.24,1.27-4.15-5.42,9.1-7.39,8.59-3.89-6.92-2.72-11.45,9.13-11.65,9.43-12.38C337.9,324.56,342.28,332.64,342.28,332.64Z"/><path class="cls-5" d="M338.62,335.36c3.78,1.21,4.39.94,4.39.94s18.41-33.53,20.28-36.6,39.11-37.61,39.11-37.61l-9.58-35.68s-42.35,54.84-46.92,62.72c-7.56,13-12,43.21-12,43.21A11.1,11.1,0,0,0,338.62,335.36Z"/><path class="cls-15" d="M436.44,276.1c-.13,7.33-.56,15.57-1.13,23.94,0,.5-.07,1-.11,1.49-.36,5.18-.76,10.38-1.22,15.44-.18,2-.38,4-.58,6l0,.26c0,.74-.11,1.54-.19,2.27-1.87,19-3.83,34-4.19,34.2a2.08,2.08,0,0,1-1.46.37c-5-.62-19.82.51-32-2.14-10.26-2.16-19.09-6.26-28.45-11.79-1.24-.74-4.07-2.68-3.84-4.14s.64-3.9,1.17-6.81a367.83,367.83,0,0,0,6.12-47.78q.31-5.67.91-11.2a170.85,170.85,0,0,1,5-26.74c4.17-15,10.29-26.51,18-31,1-.56,6.41,2.87,11.37,6.06a21.94,21.94,0,0,0,14.1,3.34l4.12,4.56c5,5.82,10.33,13.56,11.78,24.56.11.81.21,1.67.28,2.59A159.94,159.94,0,0,1,436.44,276.1Z"/><path class="cls-5" d="M436.44,276.1c-.13,7.33-.56,15.57-1.13,23.94,0,.5-.07,1-.11,1.49-28.43-17.8-32.8-50.36-32.8-50.36,14,.62,25.09,3.83,33.65,8.43A159.94,159.94,0,0,1,436.44,276.1Z"/><path class="cls-15" d="M525.5,246.21c-1.46-4-3.74-3.71-3.74-3.71s-42.27,10.53-46.06,11-45.52-16.29-45.52-16.29-16.42-7.38-24.11-.65c-6.68,5.85-7,13.26-5.42,19.48a18.59,18.59,0,0,0,15.72,13.86c17,2.17,51,6.25,58.1,5.26,15.84-2.21,51.73-22.93,51.73-22.93A13.15,13.15,0,0,0,525.5,246.21Z"/><g id="man"><path class="cls-11" d="M942.29,323.68s5.87,5.44,4.72,9.31-6.44,6.44-7.16,11.17-3.58,7.31-6.16,7.31H921.4s-1.9-3.33,2.69-4.33,6.31-6.56,6-11.72a91.62,91.62,0,0,1,.43-12l9.74-2.29Z"/><path class="cls-11" d="M869.1,350.82a22.6,22.6,0,0,1-5.56.65h-27.8c.09-.83.74-3.78,5.29-4.51,5.13-.84,14-3.82,16-10.39.07-.21.12-.43.17-.64,1.58-7,13,2.14,13,2.14s0,.29.08.76C870.59,341.41,871.27,349.74,869.1,350.82Z"/><path class="cls-16" d="M842.39,163.11s1.74,21.71,3.78,47.81c2.78,35.45,6.13,79,6.46,87.25.57,14.33,2.86,37.24,2.86,37.24s5.44,5.45,16.33,3.15c0,0,9.7-32.71,12.47-67.32.05-.57.09-1.14.13-1.71C887,234.29,891,160.1,891,160.1Z"/><path class="cls-11" d="M842.39,163.11s1.74,21.71,3.78,47.81l38.12,60.32c.05-.57.09-1.14.13-1.71C887,234.29,891,160.1,891,160.1Z"/><path class="cls-16" d="M850.33,165.69s31.37,78.63,52,115.58,27.07,47.27,27.07,47.27,11.81-4.73,12.89-8c0,0-7.89-71.34-21.7-88.73-7.81-9.83-17-39.32-17.4-49.63s-2.8-30.72-2.8-30.72Z"/><path class="cls-7" d="M753.59,123s-8.51-1.94-9.94-1.85-6.44,2.2-6.51,2.6.17.74,1,.8,3.71-.31,3.53,0-8.39,2-8.48,3.61,4.41,4.72,8.21,4.92,11.26-4.2,11.9-4.26C758.77,128.42,753.59,123,753.59,123Z"/><path class="cls-5" d="M750,125.2c-1.22-3.88-.94-4.5-.94-4.5s34.49-18.65,37.65-20.54,38.8-39.82,38.8-39.82l36.5,10s-56.49,43-64.59,47.66c-13.38,7.66-44.36,12-44.36,12A11.27,11.27,0,0,1,750,125.2Z"/><path class="cls-10" d="M836.52,41.9s-12.8,22.52-25.31,25.46c0,0,.52-7.57,3.57-12.74-1.25-1.47-2.35-2.82-3.29-4a76.43,76.43,0,0,1-4.65-6.51l4.24-11.41L814,24.92a36.79,36.79,0,0,0,4.5,6.49C826.67,40.84,836.52,41.9,836.52,41.9Z"/><path class="cls-7" d="M818.47,31.41s1.52,11.28-7,19.18a76.43,76.43,0,0,1-4.65-6.51l4.24-11.41A24.26,24.26,0,0,1,818.47,31.41Z"/><path class="cls-10" d="M803.47,45.75s19.12-7.46,14.29-19.3-5.61-20.77-18-16.51S786.81,19.68,787.46,24,798.37,47.38,803.47,45.75Z"/><path class="cls-14" d="M902.25,157.45c-7.72,11.09-65.39,25.91-64.71,18.23a83.42,83.42,0,0,0,0-15.14c-.15-1.64-.35-3.38-.62-5.23-1.46-10.08-4.94-23.05-12.71-38.07-.58-1.12-1.18-2.25-1.81-3.4a117.39,117.39,0,0,1-8-18c-4-11.55-5.6-22.59-3.59-29.82l0-.1c12.06-5.57,16.73-27.19,16.73-27.19s41.13,7.38,64.17,62.2C891.74,101,909,147.8,902.25,157.45Z"/><path class="cls-5" d="M837.54,160.54c-.15-1.64-.35-3.38-.62-5.23-1.46-10.08-4.94-23.05-12.71-38.07,1.34-8.08,3.18-14.79,5.2-17.82,8.2-12.29,13-14.21,13-14.21S854.69,137.08,837.54,160.54Z"/><path class="cls-10" d="M772.7,148.2s-11.38.6-13.14,1.23-7.3,5.06-7.24,5.59.48.87,1.58.63,4.56-1.71,4.45-1.22-9.83,5.46-9.35,7.57,7.22,4.35,12.06,3.25,12.64-9.31,13.43-9.61C781.14,153.11,772.7,148.2,772.7,148.2Z"/><path class="cls-14" d="M770.56,152.51c-2.28-3.68-.64-5.36-.64-5.36s35.15-27.52,37.9-30.3,15.52-47,15.52-47S827.73,51.89,838,49.91c8.94-1.71,15.11,2.71,19.16,7.89a19.08,19.08,0,0,1,1.29,21.44c-9,15.12-27.08,45.14-32.37,50.27C814.34,140.92,775,156.87,775,156.87A13.6,13.6,0,0,1,770.56,152.51Z"/><path class="cls-8" d="M820.51,4.47c.13-.27.52-.55,1.47-.84a3.94,3.94,0,0,0-1.92-.07C819.52,2.25,818.21,0,815.77,0a3,3,0,0,1,1.92,1.77C814.33-.36,808.12-1,792.6,4.2c-20.46,6.81-10.24,18.68-7.14,19.64s8.81-5.16,13.94-6,7.91,6.32,9.87,6.91.84-1,2.89-2.66,3.23,2.2,3.18,4.9,3.95,5.24,3.95,5.24l2.35-4.3c2.34-4.3,1.7-19.9-.54-22.71Z"/></g><rect class="cls-17" y="589.49" width="1158" height="4.13" rx="1.72"/><polygon class="cls-18" points="497.18 548.92 497.18 572.07 442.39 548.92 497.18 548.92"/><rect class="cls-3" x="784.91" y="351.46" width="181.22" height="238.02"/><rect class="cls-4" x="729.03" y="351.47" width="181.22" height="238.02"/><polygon class="cls-18" points="966.13 351.47 966.13 387.06 910.26 351.47 966.13 351.47"/></g></g></svg>