<svg xmlns="http://www.w3.org/2000/svg" viewBox="0 0 1158 688.13"><defs><style>.cls-1{opacity:0.3;}.cls-2{fill:#0071bc;}.cls-3{fill:#eacdb0;}.cls-4{fill:#3b455a;}.cls-5{fill:#ebceb1;}.cls-6{fill:#e6e6e6;}.cls-7{fill:#a5a4a4;}.cls-8{fill:#587bc9;}.cls-9{fill:#dbdad9;}.cls-10{fill:#3762af;}.cls-11{fill:#f7f7f7;opacity:0.73;}.cls-12{fill:#f6f7f7;}.cls-13{fill:#edeced;}.cls-14{fill:#c1c1c1;}.cls-15{fill:#96928d;}.cls-16{fill:#a09f9f;}.cls-17{fill:#184462;}.cls-18{opacity:0.13;}.cls-19{fill:#fff;}.cls-20{fill:#305399;}.cls-21{fill:#7db5db;}.cls-22{fill:#2e3552;}</style></defs><title>Asset 6experts_1</title><g id="Layer_2" data-name="Layer 2"><g id="Layer_1-2" data-name="Layer 1"><g class="cls-1"><path class="cls-2" d="M538,582.35c-29.11.08-58.22.76-87.27,3.89-11,1.18-21.69,3.77-32.67,4.82-21.93,2.09-43.47,6-65.48,7.8-17.73,1.44-35.53,2.3-53.21,4.14A193.7,193.7,0,0,1,248,601.48c-12.18-2.11-24.41-3.3-36.38-6.69-13.38-3.78-27.93-6.49-41.88-6.4-19.89.14-39.26.16-58.3,6.85-6.68,2.35-14.86,6.21-19.94,11.14C79.92,617.66,78.35,645.81,90,657.51c19.54,19.69,61.23,27.42,88.62,27.78,30,.4,59.16-1.75,89.21-3,27.92-1.18,55.78-2.86,83.75-2.8,57.13.12,114.26,0,171.29-3.7,53.57-3.47,107.28-2.28,161-2.28,55.06,0,109.75.42,164.41,7.51,23.82,3.09,48.08,4.17,72,6.33,21.44,1.94,42,0,63.39-1.83a155.07,155.07,0,0,0,52-13.5c12.89-6,35.88-24.51,39.83-38.75,11.09-39.93-156.22-39-181.9-38.88-28.74.1-57.7,1-86.42,0-12.08-.45-24-2.73-35.77-5.24s-23.57-1.86-35.48-2.91c-49.65-4.37-99.42-3.73-149.23-3.73C570.46,582.44,554.24,582.3,538,582.35Z"/></g><path class="cls-3" d="M478.45,245.05c-2.5,4.53-6.29,8.17-9.47,12.24s-4.37,7.66-5.47,12.44c-.79,3.45-2.24,6.08-6.49,6.37-8,.53-5.26-5.85-6.71-10.75-1.65-5.6-5.72-10.24-8.43-15.33-7.82-14.71-3.22-42.3,15.66-46.85C478.17,198.19,486,231.32,478.45,245.05Z"/><path class="cls-4" d="M447.34,229.06c-2.3-.08-4.83-.08-6.64,1.33s-1.88,4.77.34,5.3c2,.48,4.79-1.44,5.92.19.65,1-.08,2.24-.71,3.25a19.33,19.33,0,0,0-2.73,13c-.9.72-2.14-.19-2.81-1.05a42,42,0,0,1-7.33-14.34,8.49,8.49,0,0,1-3.3,2.75c.9-1.84.58-3.95.25-5.92-1.19-7.24-1.74-15.66,3.66-21.09,2.88-2.91,7.06-4.4,11.17-4.85a54.14,54.14,0,0,1,12.33.53c1.74.21,3.87.75,4.17,2.4-4,1.26-8.15,4-10.34,7.45C450.64,219,447.57,229.07,447.34,229.06Z"/><path class="cls-4" d="M456.73,212.58l-.44.28c-1.84,1.2-3.59,2.69-5.74,3.12-3.1.62-6.26-1.09-9.32-.28-3.43.91-5.93,4.74-8.54,6.93a36,36,0,0,1-23.4,8.16,15.16,15.16,0,0,1-4.26-.34c-1.65-.58-1.54-1.34.3-1.78,5.76-1.39,8.11-9.16,8.08-14.43,0-4.16-1.13-8.58.73-12.3,1.42-2.85,4.12-4.17,6.75-5.66,2.89-1.64,5.85-.92,9-1.57s6.19-3.06,9.57-3.47c3.58-.43,7,1.39,10.45,2.34a21.92,21.92,0,0,0,8.83.55c2.64-.38,5.25-1.24,7.9-1,3.91.33,7.33,3,9.38,6.39,2.9,4.74,4.41,12.59,2.83,18.43.25-.9-2.6-4.47-3.18-5.23-1.23-1.61-2.75-3.15-4.78-3.55C466.33,208.26,460.66,210.15,456.73,212.58Z"/><path class="cls-5" d="M596.16,571.32l-3.47-2.39L564.13,625.6l9.55,4.41L608,579.46Q602.09,575.4,596.16,571.32Z"/><polygon class="cls-4" points="574.28 628.24 582.95 641.78 578.73 647.11 558.41 632.27 564.12 624.39 574.28 628.24"/><path class="cls-5" d="M662.45,575.74l-4.13-.76-2.94,63.39,10.52.13,10.72-60.18Q669.53,577,662.45,575.74Z"/><polygon class="cls-4" points="665.73 636.63 679.17 645.45 677.49 652.05 652.88 646.79 654.88 637.27 665.73 636.63"/><polygon class="cls-4" points="696.44 417.12 603.61 403.34 595.15 439.82 589.79 532.65 570.41 600.45 596.52 611.81 624.53 556.22 643.13 489.45 647.68 482.27 652.05 540.15 651.23 610.66 679.41 614.74 691.78 553.73 692.22 463.25 692.18 463.13 696.44 417.12"/><path class="cls-5" d="M739.85,407.39c2.89,3.62,6.31,6.53,11.33,7.35a4,4,0,0,0,2.38-.16,4.36,4.36,0,0,0,1.49-1.47,31.63,31.63,0,0,0,3.8-7.09,3.19,3.19,0,0,0,.27-2.21,3.07,3.07,0,0,0-.79-1.06c-1-.95-2-1.86-3-2.71a4.61,4.61,0,0,1-.35,1.73,1.51,1.51,0,0,1-1.36.93,1.78,1.78,0,0,1-.82-.33c-4-2.67,4.83-4.62.4-6.88a6.39,6.39,0,0,0-2.5-.47,22.89,22.89,0,0,1-7.38-1.76c-2-.83-2.94-2.19-4.74-.85s-3.36,4.28-4.8,6.12C735.79,401.49,737.67,404.64,739.85,407.39Z"/><path class="cls-4" d="M732.65,398.63l8.8-9.38-37.1-36.61-14.29-55.29a17.14,17.14,0,0,0-19.54-12.6h0a17.14,17.14,0,0,0-13.15,22.77l20.53,56.16Z"/><path class="cls-3" d="M353,401.39s-.31-2.46-.31-2.49c0-.29-9.92-1.76-10.89-2.22-5.18-2.48-9.94-8.79-14-12.78-1.28-1.25-2.63-2.52-4-3.8q-3.9,6.47-8,12.82a.57.57,0,0,1,.13.08c5.4,3.27,12.32,5.2,17.32,8.89,4.8,3.53,8.07,9.52,12.28,13.73l9.27-3.08,1.94-8.18-7.3-1.33,1.09-1.38Z"/><path class="cls-6" d="M255,300.86l24.34,70.27,52.77,33.36L339,392.86l-41.76-42.22c-5.19-5.25-4.2-31.95-5.15-39.21-2.65-20.14-5.2-37.49-31-33.91C249.14,279.17,254.09,291.9,255,300.86Z"/><path class="cls-3" d="M239.19,553.52l-24.27,31.24c-10.2,14.3-23,26.74-33.24,41-2.35,3.29-4.1,7.31-7.32,9.89s-6.06,1.19-7.42-2.33c-1.82-4.72,2.49-9.25,4.65-13.29,14.43-26.9,26.12-54.74,39.65-82.17.17-.36.4-.76.79-.84a1.31,1.31,0,0,1,.92.27C215.49,538.88,238.66,554.2,239.19,553.52Z"/><polygon class="cls-4" points="168.42 626.03 162.21 629.41 164.6 645.9 173.03 653.68 179.77 651.48 176.71 631.28 168.42 626.03"/><path class="cls-4" d="M191.17,428l2.34,31.12,8,81.49L168.9,618.17l15.47,6.62,67.8-84L258,422.59S190.69,430.43,191.17,428Z"/><path class="cls-3" d="M272.6,538.14l2.54,39.46c.25,11,1.76,21.85,2.95,32.74,1.11,10.12-.44,20.67,4.82,29.85,1.65,2.87,5,4.77,7.24,1.25,1.76-2.71.68-7.21,1-10.28,2.4-23.07,7.84-45.71,10-68.8C303.4,538.17,294.13,539.24,272.6,538.14Z"/><polygon class="cls-4" points="279.41 633.59 277.18 640.3 290.2 650.7 301.67 650.63 305.09 644.41 289.05 631.76 279.41 633.59"/><polygon class="cls-4" points="242.96 422.74 276.42 624.22 298.88 625.5 304.47 508.96 291.92 407.08 241.13 409.51 242.96 422.74"/><path class="cls-7" d="M436,167.35v7.49a4.36,4.36,0,0,0,4.3,4.41h19.21a4.36,4.36,0,0,0,4.3-4.41v-7.49Z"/><path class="cls-8" d="M496.5,66.7C496.5,40.33,475.65,19,449.92,19S403.35,40.33,403.35,66.7a48.41,48.41,0,0,0,7.19,25.49h0c13,22.26,16,40.91,16,40.91h46.87s3-18.65,15.95-40.91h0A48.41,48.41,0,0,0,496.5,66.7Z"/><path class="cls-9" d="M426,133.1v31.84a2.36,2.36,0,0,0,2.29,2.41h43.37a2.36,2.36,0,0,0,2.29-2.41V133.1Z"/><path class="cls-10" d="M495.67,57.76c-11.83,23.71-34.8,60.34-69.2,75.21l0,.13h46.87s3-18.65,15.95-40.91h0A48.41,48.41,0,0,0,496.5,66.7,49.71,49.71,0,0,0,495.67,57.76Z"/><path class="cls-11" d="M411,70.63c0-23,18.21-41.68,40.66-41.68a40.25,40.25,0,0,1,32.23,16.27A40.49,40.49,0,0,0,448.6,24.31C426.14,24.31,407.94,43,407.94,66a42.16,42.16,0,0,0,8.43,25.41A42.28,42.28,0,0,1,411,70.63Z"/><polygon class="cls-12" points="440.87 133.1 435.23 71.98 443.09 78.68 449.95 67.54 456.9 78.33 464.63 71.92 458.98 133.1 461.39 133.1 467.55 66.35 457.44 74.72 449.9 63.02 442.52 75 432.3 66.29 438.46 133.1 440.87 133.1"/><path class="cls-13" d="M437.9,127l.56,6.1h2.41l-.7-7.53C439.42,126.06,438.66,126.53,437.9,127Z"/><path class="cls-13" d="M461.31,107.91,459,133.1h2.41l2.58-28C463.1,106,462.21,107,461.31,107.91Z"/><rect class="cls-14" x="425.95" y="141" width="47.95" height="5.88"/><rect class="cls-14" x="425.95" y="153.56" width="47.95" height="5.88"/><path class="cls-15" d="M452.24,153.56H473.9v-6.68H460.54A89,89,0,0,1,452.24,153.56Z"/><path class="cls-15" d="M473.9,141v-7.9h-.75q-3.31,4.31-6.67,7.9Z"/><path class="cls-15" d="M428.24,167.35h43.37a2.36,2.36,0,0,0,2.29-2.41v-5.5H442.59a69.57,69.57,0,0,1-16.56,6.1A2.32,2.32,0,0,0,428.24,167.35Z"/><path class="cls-7" d="M460.54,146.88H473.9V141h-7.42C464.5,143.13,462.51,145.09,460.54,146.88Z"/><path class="cls-7" d="M442.59,159.44H473.9v-5.88H452.24A80.39,80.39,0,0,1,442.59,159.44Z"/><path class="cls-16" d="M463.83,171.9c-5.41,5.34-15.77,6.95-19.19,7.35h14.89a4.36,4.36,0,0,0,4.3-4.41Z"/><path class="cls-3" d="M566.06,403.61a6.89,6.89,0,0,0-.15-.89c-.74-2.73-3.5-3.34-4.79-5.49-.58-1,0-4.28-1.89-4-.67.12-3,.34-5.28.7-3.36.54-6.39-1.46-9.15-3l-11.16-6.14a68.41,68.41,0,0,1-9.4-5.86c-7-5.52-10.79-13-15.32-20.35-4.82-7.77-9.71-16-15.58-23-2.08-2.47-4.45-4.85-7.46-6-7.54-3-12,3.13-10.54,10.15a31.55,31.55,0,0,0,3.33,8.36,118.52,118.52,0,0,0,13.53,20.2c2.41,2.91,5,5.71,7.52,8.5a92.51,92.51,0,0,0,21.76,17.74c4.11,2,8.42,3.55,12.68,5.19,2.61,1,8.89,2.1,9.47,5.3a13.84,13.84,0,0,0,.24,1.59,4.24,4.24,0,0,0,1,1.48,28.45,28.45,0,0,0,5,4.4c3.3,2.19,9.05-.18,12.36-1.27a6,6,0,0,0,2.29-1.19c1-1,1.24-2.51,1.4-3.91A13.19,13.19,0,0,0,566.06,403.61Z"/><path class="cls-8" d="M474.46,360.34a153.76,153.76,0,0,0,30,28.18l12.66-11.67a3.34,3.34,0,0,0,1.28-1.9,3.3,3.3,0,0,0-.53-1.83c-3.84-7.4-8.53-14.57-10.79-22.67-1.6-5.72-2.63-11.29-4.48-17-3-9.31-5.68-18.75-8.9-28-2.88-8.29-5.93-16.85-12-23.18-13-13.51-35.94-4.47-34.5,14.86C448.89,320,459.57,342,474.46,360.34Z"/><path class="cls-3" d="M391.28,633.43c2.41,1.57,5.1,2.45,7.65,3.69,15.73-23.15,28.65-49.58,42.22-74.19l-19-10.18a251.1,251.1,0,0,1-14.81,45C406.31,600.06,390.94,633.21,391.28,633.43Z"/><path class="cls-4" d="M402.48,632.93c1.68.65,2.16,1.86,2.62,3.4a11.81,11.81,0,0,0,.67,2.71,6.69,6.69,0,0,0,1.92,1.9c4.16,3.13,14.48,9.13,4.55,13.24-9,3.74-20.51-6.89-27-13.3a3,3,0,0,1-1-1.43,4.14,4.14,0,0,1,.14-2c1.06-3.69,2.27-8.36,7-7.33,2,.44,2.86,2.47,5,2.92C398.07,633.45,400.8,632.28,402.48,632.93Z"/><path class="cls-4" d="M384.47,466.67c2.23,9.75,8,18.17,13.52,26.3a129.85,129.85,0,0,1,13,24.89c3.7,9,3.11,19.16,2,28.85a305.86,305.86,0,0,1-12.8,59.15l23.57,10.75c1.39.63,9.59-8.86,10.67-10.07a84.56,84.56,0,0,0,9.63-13.25c5.32-9,9.52-19.28,13.81-28.82a140.22,140.22,0,0,0,11.68-70.59c-1.51-15.58-5.63-30.78-9.73-45.88-2-7.47-3.49-15.47-6.39-22.64-1.9-4.7-3.33-11.95-7.52-15.06-3.8-2.92-8.09-3.41-13.26-3.16-13.84.69-33.49-.86-43.21,10.88C378.85,430.85,381.17,452.19,384.47,466.67Z"/><path class="cls-3" d="M479.24,642.74c2.85.35,5.65,0,8.48-.06,3.91-27.71,3.85-57.13,5.17-85.2l-21.56-.75a251,251,0,0,1,6.56,46.93C478,606.17,478.83,642.69,479.24,642.74Z"/><path class="cls-4" d="M489.06,637.36c1.8-.16,2.77.71,3.85,1.89.63.69,1,1.61,1.8,2.13a6.65,6.65,0,0,0,2.56.87c5.11,1,17,1.8,9.93,9.87-6.44,7.33-21.44,2.87-30.08,0a3,3,0,0,1-1.56-.82,4.29,4.29,0,0,1-.74-1.83c-.68-3.77-1.65-8.5,3-9.65,2-.48,3.66,1,5.77.42C485.34,639.77,487.27,637.51,489.06,637.36Z"/><path class="cls-4" d="M448.3,482.21c4.8,16.94,8.76,33.89,13.89,50.73a234.59,234.59,0,0,1,10.13,65.93c.08,9-.34,18.19,1.77,27l23.6-3.05c7.49-33.16,14-67.28,11.44-101.4s-12-67-21.91-99.44q-2-6.69-4.1-13.37c-.82-2.68-1.7-5.47-3.67-7.47s-5-3-7.85-3.66a58.35,58.35,0,0,0-31.88,1.93,11.71,11.71,0,0,0-5.34,3.17c-2,2.45-2,6-1.78,9.14C434.35,435.91,441.71,459,448.3,482.21Z"/><path class="cls-8" d="M423.14,279.32a52.86,52.86,0,0,0-8.39,7.29,105.66,105.66,0,0,0-19.5,30.45c-10.81,25.5-12.89,53.5-14.83,80.94l-1.95,27.4c-.64,9,0,11,9.51,10.57,17.64-.78,36.06-3,52.45-9.79,7.8-3.21,15.17-7.48,23.28-9.85,11.8-3.45,23.45-.5,35-2.43-2.28-9.27-6-17.86-7.39-27.5a205.64,205.64,0,0,1-1.63-29.15c0-13.68-.54-27.34-.8-41-.19-10.63-.15-23.1-6.69-32.12a21.92,21.92,0,0,0-8.72-7.28c-2.55-1.09-7.16-1.79-8.66-4.46a1.87,1.87,0,0,1-.15-.82c-.07-3.39,1-6.46-2.31-7.67-1.84-.67-4.46-.6-6.4-.72-2.75-.17-9.67-.83-10.45,3a18.35,18.35,0,0,1-.57,3.06,1.5,1.5,0,0,1-.42.65,1.85,1.85,0,0,1-.92.35A56.25,56.25,0,0,0,423.14,279.32Z"/><path class="cls-3" d="M350.87,412.92a4.31,4.31,0,0,0,.84-.33c2.53-1.26,2.58-4.08,4.43-5.78.83-.76,4.18-.9,3.51-2.63-.26-.64-.93-2.86-1.74-5-1.19-3.19.17-6.55,1.11-9.57q1.89-6.07,3.8-12.15a67.61,67.61,0,0,1,3.87-10.37c4-8,10.63-13.17,16.9-19.07,6.66-6.26,13.76-12.69,19.46-19.84,2-2.53,3.88-5.32,4.45-8.51,1.42-8-5.45-11.11-12.05-8.31a31.06,31.06,0,0,0-7.53,4.93,119.3,119.3,0,0,0-17.11,17.26c-2.37,2.95-4.6,6-6.83,9.06a92.77,92.77,0,0,0-13.07,24.85c-1.14,4.43-1.8,9-2.56,13.47-.47,2.75-.29,9.13-3.32,10.33a12.15,12.15,0,0,0-1.5.55,4.16,4.16,0,0,0-1.26,1.28,28.7,28.7,0,0,0-3.31,5.8c-1.5,3.67,2,8.83,3.7,11.86a5.78,5.78,0,0,0,1.62,2c1.16.8,2.7.71,4.11.59A12.2,12.2,0,0,0,350.87,412.92Z"/><path class="cls-8" d="M377.65,315.82c-1.92,2-3.78,4-5.54,6.07a83.29,83.29,0,0,0-14.95,26.47,107.92,107.92,0,0,0,13.42,13.87c19.51-15.89,40.62-27,62.09-39.72C440.22,318,448,313.35,453,306.13c9.2-13.3-.23-32.55-16.88-31.65-20.14,1.09-38.42,21.81-52,34.94C382,311.53,379.77,313.64,377.65,315.82Z"/><path class="cls-6" d="M298.64,360.49a243.31,243.31,0,0,0-4.44-40.33c-3.41-17-7.9-34.42-18.51-48.17s-28.78-23-45.51-18.34c-10.23,2.85-18.64,10.49-24.32,19.46s-8.94,19.26-11.64,29.53c-7.68,29.17-8.29,58.45-11.38,88.31-1.35,13-4.8,26.91-2.28,40-.06-.35,23-1.38,25.76-1.46,13.89-.41,27.45,1,41.27,1.66,11.16.56,19.93-2.33,31,2.58,3.71,1.65,7.18,4,11.16,4.83a3.41,3.41,0,0,0,2.65-.25,3.8,3.8,0,0,0,1.19-2.73C297,411.17,299.43,385.63,298.64,360.49Z"/><path class="cls-4" d="M258.92,202.85a30.75,30.75,0,0,1,3.75,13.93c.06,1.29.14,2.78,1.18,3.54s.13,2.6,1,1.52,3.74-4.87,3.88-6.25a50.6,50.6,0,0,0,0-9.69c-.26-2.8-.83-5.73-2.66-7.87a15.5,15.5,0,0,0-4-3,20.23,20.23,0,0,0-6.58-3c-4.1-.77-6.62.69-3,3.56A24.93,24.93,0,0,1,258.92,202.85Z"/><path class="cls-3" d="M233.18,257.8c0,2-.38,4,1.36,5.58a5.88,5.88,0,0,0,3.09,1.22,19.07,19.07,0,0,0,8.59-.59,7.76,7.76,0,0,0,3.14-1.64,3.92,3.92,0,0,0,1.12-3.18c.06-1.49.37-3,.57-4.53.43-3.32.63-6.66.73-10,4.92-.84,10.7-2.41,12.39-7.56a16.76,16.76,0,0,0,.57-5.11q.11-10.69.2-21.39a20.49,20.49,0,0,0-.8-7.3c-1.48-4-5.24-6.42-8.93-7.94-9.41-3.86-20.4-3.73-29.11,1.72a15.79,15.79,0,0,0-5.84,5.86c-2.07,3.91-1.82,8.75-1.51,13.27q.44,6.25.86,12.52c.33,4.8,1,10.32,4.76,12.87,2,1.35,4.53,1.6,6.23,3.34,3,3.05,1.55,7.59,2.42,11.27A7,7,0,0,1,233.18,257.8Z"/><path class="cls-4" d="M266.48,229.15c-.08-1.32-.65-5.2-2.64-2.76a4,4,0,0,0-.69,2.38,9.19,9.19,0,0,1-.26,2.52c-.62,1.83-2.65,2.66-4.46,2.62a4.28,4.28,0,0,1-2.08-.49,6.44,6.44,0,0,1-1.58-1.46l-3.47-4c-2-2.29-6-1.31-8.63-1a17.22,17.22,0,0,0-8.73,3.36c-.26.2-.51.42-.76.63a8.91,8.91,0,0,1-1.93,1.39c-2.39,1.16-5.35-.06-7-2.24-.77-1-1.48-2.29-2.68-2.46a2.46,2.46,0,0,0-2.32,1.41,7,7,0,0,0-.68,2.93,21.53,21.53,0,0,0,1.85,10.75c3.45,7.09,10.14,8,16.87,7.83l8-.17c4.86-.11,10-.3,14.1-3.12,3.62-2.48,5.77-6.72,6.66-11.15A27.82,27.82,0,0,0,266.48,229.15Zm-17.81,10a9.32,9.32,0,0,1-8.24.94c-1.21-.37-.69-2.4.52-2a7.46,7.46,0,0,0,6.73-.72C248.76,236.62,249.74,238.44,248.67,239.16Z"/><path class="cls-4" d="M267.57,190.51a36.54,36.54,0,0,0,1.05-5.26,10.52,10.52,0,0,1-5.16.43V182.6c0-.85-11.55-1.47-12.48-1.55-8.78-.74-16.8-1.44-24.75,3.25-6.79,4-11.15,10-12.2,17.83-1,7.47,1.41,17.24,5.72,23.45,0-2-1.16-6.69-.68-8.58a17,17,0,0,1,1.85-5.4,22.37,22.37,0,0,1,7.84-8.21,43.46,43.46,0,0,1,17.12-5.72c5.47-.76,12.14-1.45,17.55,0,2.59.7,3,1.35,4.6-1.27a45.29,45.29,0,0,0,2.28-5.86Z"/><path class="cls-4" d="M612.66,291.08c5.82-7.46,14-11.55,23.38-17.46a20.16,20.16,0,0,1,5.11-2.59,18,18,0,0,1,3.93-.53c8-.46,23.18-1.68,30,3.2,7.17,5.11,8.51,17.3,10,25.19,7.67,39.81,9.44,91.12,10.93,131.76-4.86-1.52-9.65-3.37-14.44-5.19-23.38-2.44-51-1.45-72.63.76-6.84,2.14-13.62,4.47-20.37,6.87,1.73-.61,1.68-32.53,1.92-36.08.86-12.83,2-25.65,3.71-38.4,2.64-19.65,6.07-39.15,13-57.78A36.31,36.31,0,0,1,612.66,291.08Z"/><rect class="cls-8" x="132.11" y="428.64" width="126.08" height="81.77"/><path class="cls-17" d="M220.56,427.67h-6.89V413.82h-37v12.54h-6.89V411.93a5.24,5.24,0,0,1,5.1-5.37h40.61a5.24,5.24,0,0,1,5.1,5.37Z"/><path class="cls-18" d="M258.19,445.84l-56.32,9.71,0,.9-9.8,3.63-3.56,1.32,4.54,2.33v2.5a1.23,1.23,0,0,0,1.2,1.26h3.34a1.22,1.22,0,0,0,1.2-1.26v-2.5h5.68l.12-5.94,53.62-6.67Z"/><polygon class="cls-4" points="258.19 447.87 197.04 457.79 132.12 447.87 132.12 424.38 258.19 424.38 258.19 447.87"/><path class="cls-17" d="M203.76,454.16h-17l-.12,9.23h5.69v2.5a1.24,1.24,0,0,0,1.2,1.26h3.35a1.23,1.23,0,0,0,1.19-1.26v-2.5h5.68Z"/><path class="cls-3" d="M190.26,413.86l1.68-1.87c.21-.2-5.2-8.64-5.48-9.67-1.53-5.53.1-13.27.42-19,.1-1.79.17-3.64.23-5.52-5,.86-9.92,1.67-14.9,2.4,0,0,0,.1,0,.15,1.08,6.22,4.17,12.7,4.67,18.9.49,5.93-1.88,12.33-2.29,18.28l8.41,5,7.44-3.92-3.78-6.37,1.75-.09Z"/><path class="cls-6" d="M201.75,274l-37,64.51,9.49,61.7,13.27-2.48,4.42-59.22,45.35-51.32a14.67,14.67,0,0,0-1.19-20.64l-4.18-3.75a14.68,14.68,0,0,0-20.53.9Z"/><path class="cls-5" d="M550.68,395.85c-2.58,3.84-4.33,8-3.59,13a4,4,0,0,0,.88,2.22,4.37,4.37,0,0,0,1.84,1,32.23,32.23,0,0,0,7.91,1.49,3.27,3.27,0,0,0,2.19-.42,2.93,2.93,0,0,0,.77-1.07c.62-1.21,1.17-2.44,1.67-3.69a4.79,4.79,0,0,1-1.76.18,1.52,1.52,0,0,1-1.29-1,1.76,1.76,0,0,1,.07-.88c1.34-4.6,5.86,3.21,6.68-1.69a6.43,6.43,0,0,0-.31-2.53,23.25,23.25,0,0,1-.55-7.57c.19-2.13,1.2-3.46-.62-4.78s-5.09-1.91-7.28-2.73C555.08,390.19,552.64,392.93,550.68,395.85Z"/><path class="cls-4" d="M556.86,386.33l11.6,5.57,23.71-46.43,48.4-30.3a17.14,17.14,0,0,0,6.11-22.43h0A17.14,17.14,0,0,0,621,287.07l-47.35,36.52Z"/><path class="cls-4" d="M895.42,271.51l-44.83-17.78s-15.93,39.57-34,103S825,500.75,825,500.75s102.69-24.4,123.2-28.43L922.44,356.46Z"/><polygon class="cls-5" points="960.63 288.49 971.2 276.88 966.74 271.84 957.85 278.08 956.78 274.66 948.87 285.77 952.84 291.67 960.63 288.49"/><polygon class="cls-4" points="869.22 257.66 896.08 308.2 952.09 278.27 958.39 291.04 894.21 346.13 833.16 281.8 869.22 257.66"/><polygon class="cls-4" points="856.77 401.84 834.31 449.35 828.39 538.28 782.24 612.4 797.65 623.85 873.39 558.63 892.59 490.81 911.89 417.43 856.77 401.84"/><polygon class="cls-4" points="922.31 428.75 935.95 519.27 926.99 638.05 913.42 640.35 886.01 530.38 848.61 422.11 922.31 428.75"/><polygon class="cls-4" points="796.24 621.05 802.74 640.95 795.68 646.14 774.95 620.6 784.71 612.74 796.24 621.05"/><polygon class="cls-4" points="926.25 635.23 945.58 643.26 944.93 651.99 912.04 651.09 912.44 638.57 926.25 635.23"/><path class="cls-5" d="M896.9,209.32c-12.2.9-23.62-9.12-35.63-6.64-7.81,1.62-14,8.55-16.36,16.36a19.62,19.62,0,0,0-.42,11.22,18.82,18.82,0,0,0,3.54,6.35,26.81,26.81,0,0,0,7.34,6.21,48.23,48.23,0,0,1-5.23,6.93L867,256.22q1.86-4.86,3.73-9.71a25.27,25.27,0,0,0,5-.76,29.14,29.14,0,0,0,20.51-21.67C897.35,219.25,897.15,214.25,896.9,209.32Z"/><path class="cls-4" d="M893.82,213l-37.74-4.48-7.32,28.83c-8.91-7.07-18.12-17.1-17.67-29.67a27.35,27.35,0,0,1,2-8l4.79-13.28c3.63-10.11,5.45-5.77,13.76-5.07,5.5.46,11.35,0,16.87-.14,6-.13,12-.11,18-.38,6.34-.3,9-5.54,15.08-5.22,2.51.13,5.12.62,7.46-.3,2.52-1,4.29-3.51,6.92-4.17,2.35-.59,4.78.46,6.9,1.64s4.32,2.69,5.17,5a10.13,10.13,0,0,1,.44,3.84c-.64,21.62-14.42,29.37-30.15,40Z"/><path class="cls-19" d="M879.17,260.68,834.35,242.9s-15.94,39.57-34.05,103,8.41,144.07,8.41,144.07,91.87-45.39,112.37-49.41l-14.89-94.88Z"/><path class="cls-4" d="M799.63,347.21c18.11-63.39,34-103,34-103L878.49,262l.08.23c-1,2.59-2,5.17-2.93,7.79a179.91,179.91,0,0,0-7.79,31.87c-2.83,19-3.13,38.62-2.52,57.84a376,376,0,0,0,5.76,55,372,372,0,0,0,20.14,70c-41.7,8.47-90.76,18.49-90.76,18.49S781.52,410.59,799.63,347.21Z"/><path class="cls-4" d="M969.05,341.87h0A6.4,6.4,0,0,0,975,335L953.22,26.19l-12.77.9,21.76,308.84A6.4,6.4,0,0,0,969.05,341.87Z"/><path class="cls-20" d="M963.42,155.42c-30.12-15.26-54.07-17.4-70.08-16.69-39.86,1.79-58.39,22.55-109,30.86a227.13,227.13,0,0,1-54.65,2.3,387.26,387.26,0,0,1-10.78-64c-2.41-28.92-7.92-59.55-5.67-80,11.88,1.65,36.72,8.45,58.38,5.67,53.1-6.83,73-32.41,116.66-33.5,15.32-.39,37.66,2.14,65.38,16.62Q958.54,86,963.42,155.42Z"/><path class="cls-5" d="M744.74,406.81a9.76,9.76,0,0,0-1,4.08c0,3.14,2.79,5.71,5.79,6.64s6.23.55,9.35.17a10.42,10.42,0,0,0,.82-4.81c.67-.65,1.39.72,2.14,1.29,1,.8,2.61-.28,2.9-1.55s-.18-2.58-.36-3.88c-.63-4.74,2.72-9.06,3.41-13.79-.18,1.28-7-3.07-7.21-3.1-3.24-.51-2.11-1-5.16.73C751.11,395,746.69,402.46,744.74,406.81Z"/><polygon class="cls-4" points="833.67 244.25 774.95 317.34 752.62 394.9 766.93 401.84 793.98 346.13 851.52 287.31 833.67 244.25"/><path class="cls-21" d="M868.81,292.12c-2.12,3.56-4.57,7.06-8,9.39a25.2,25.2,0,0,1-11.68,3.77c-18.37,1.93-37.46-7.85-46.62-23.89-.94-1.64-1.87-3.42-3.51-4.35a9.27,9.27,0,0,0-5-.74,193.54,193.54,0,0,0-27.05,3,61.82,61.82,0,0,0,36.48,49.92c9.07,3.87,19,5.48,28.84,6,9.35.52,18.91.08,27.79-2.94s17-8.88,21.41-17.18c8.15-15.5,1.43-34.5,3.85-51.84,1.46-10.46-9.77,3.34-10.17,4.25-.5,1.13,1.14,7.7.75,9.79C875,282.27,871.34,287.88,868.81,292.12Z"/><path class="cls-19" d="M634.59,285.63c-3.91,6.85-4.33,16.15-.72,24.95,3.5,8.56,7.61,6.6,14.75,12.46-12.17,8.6-12.86,34.3-13.19,49.18a205.09,205.09,0,0,0,2.2,34.84c.52,3.46.62,13.55,3.6,15.74s11.79-.3,15.58.23c3.48-23.55,7-47.13,8.58-70.88.28-4,.49-8.11-.57-12s-2-15.76-5.8-17.13c11.7-9.06,12.8-17.33,12.71-32.13,0-3.86-.3-8-2.78-11-2.92-3.49-7.93-4.18-12.46-4.62C646,274.27,638.53,278.71,634.59,285.63Z"/><path class="cls-3" d="M637.49,227.94c9-16.62,36.42-18.62,39,2.73.78,6.42.77,13.09-1.57,19.17s-7.31,11.47-13.77,13.1l-.11,0c-1.11.28,2.08,11.63,2.29,12.53a18.12,18.12,0,0,1,.62,4.26c0,3.19-1.74,6.14-3.56,8.82a80.14,80.14,0,0,1-5.41,7.07,1.51,1.51,0,0,1-.59.5c-.59.23-1.21-.25-1.64-.69a43.45,43.45,0,0,1-8.42-12.22,11.21,11.21,0,0,1-1-3.2,11.06,11.06,0,0,1,.39-3.79c.81-3.48,5.91-11.39,4.72-14.5-.45-1.18-3.69-2.67-4.71-3.62a25.8,25.8,0,0,1-4.29-5.33C635,245.55,633.32,235.63,637.49,227.94Z"/><path class="cls-4" d="M675,236.05c1.85,5.11.39,10.56-1.53,15.45s-2.45,9.73-4.79,14.37c.36.88,1.71.64,2.61.24q7.89-3.5,15.68-7.19a4.16,4.16,0,0,0,1.44-.95,3.87,3.87,0,0,0,.72-2c2.18-13.95-1.07-25.18-6.57-37.74-2.67-6.1-11.73-14.15-19.13-9.15a10.79,10.79,0,0,0-3.44,4.86,8.72,8.72,0,0,0-.92,3.42c0,4.73,4.48,5.43,7.59,7.6A23.58,23.58,0,0,1,675,236.05Z"/><path class="cls-4" d="M640.1,238.07a41.73,41.73,0,0,0-.66,12.66c.13,1.38,2,5,1.89,5.85-.36,2.59-7.23,7.38-9.17,9.29l-22.44-19.1a4.15,4.15,0,0,1-1.4-1.72,3.88,3.88,0,0,1,0-2c2.56-13,8.77-23.91,16.67-34.5s21.69-17.6,35.1-13.87c10.85,3,16.72,12.43,10.15,22.4-4.95,7.53-16,7-23.11,11.32C642.7,231.12,640.85,234.38,640.1,238.07Z"/><path class="cls-8" d="M243.22,378.32c-.59,3.05-1.23,6.16-.75,9.23.95,6,5.89,10.41,10.52,14.31,6.34-3.41,9.9-10.59,11-17.72s0-14.37-.61-21.55c-2.53-28.77,1-59.67-13.29-84.76l5.15-1.69c.89-5-6-7.9-10.83-6.47-2.91.85-6.82,3.92-7.16,7.19-.71,6.7,3.63,2.59,5.87,5.64,4.89,6.64,4,22.44,4.45,30.69A263.91,263.91,0,0,1,243.22,378.32Z"/><rect class="cls-22" y="667.28" width="1158" height="4.13" rx="1.72"/></g></g></svg>