<svg xmlns="http://www.w3.org/2000/svg" viewBox="0 0 1070 592.23"><defs><style>.cls-1{fill:#231f20;}.cls-2{fill:#fff;}.cls-3{fill:#0071bc;}.cls-4{fill:#d3dde2;}</style></defs><title>Asset 2banner_image</title><g id="Layer_2" data-name="Layer 2"><g id="Layer_1-2" data-name="Layer 1"><path class="cls-1" d="M744.9.35h-1.57S585.45,0,466.22,0c-35.35,0-67.3,0-90.73.11-11.72,0-21.31.09-28.13.16-3.41,0-6.13.06-8.09.11l-2.35.06-.75,0-.54.05-1.36.21,0,1.38,5.54,286.11,405.27.31Z"/><path class="cls-2" d="M342.93,285.07,337.47,3.57c4.84-.15,20.53-.26,43.06-.32,22.88-.07,52.81-.1,85.69-.1,59.61,0,128.89.09,183.26.17l67.31.12,19.52,0h5.44l.2,281.89Z"/><path class="cls-1" d="M623.57,67.23c5.65-11.29,17.77,2.08,25.65,2.78,7.56.67,8.87-5.87,14.84-8.13,8.45-3.19,12.84,6.28,20.64,6.7,7.09.37,12.68-5.22,17.28-9.82a1.58,1.58,0,0,0-2.23-2.23c-5.18,5.17-12.72,11.38-20.16,7-2.91-1.7-5.33-4.37-8.6-5.45-5-1.64-8.24.79-12,3.9-2.88,2.42-4,3.7-8,4.08s-6.25-.76-9.74-2.55c-2.88-1.48-5.69-3.4-9-3.87a10.49,10.49,0,0,0-11.46,6C619.94,67.45,622.66,69.05,623.57,67.23Z"/><path class="cls-1" d="M699.75,70.44c-5.18,5.17-12.72,11.38-20.16,7-2.91-1.71-5.33-4.38-8.6-5.46-5-1.64-8.24.79-12,3.9-2.88,2.42-4,3.7-8,4.08s-6.25-.76-9.74-2.55c-2.88-1.47-5.69-3.4-9-3.86a10.49,10.49,0,0,0-11.46,6c-.9,1.81,1.82,3.41,2.73,1.59,5.65-11.28,17.77,2.09,25.65,2.79,7.56.67,8.87-5.88,14.84-8.13,8.45-3.2,12.84,6.28,20.64,6.69,7.09.38,12.68-5.22,17.28-9.81A1.58,1.58,0,0,0,699.75,70.44Z"/><path class="cls-1" d="M699.75,85.54c-5.18,5.17-12.72,11.38-20.16,7-2.91-1.7-5.33-4.37-8.6-5.45-5-1.64-8.24.79-12,3.9-2.88,2.42-4,3.7-8,4.08s-6.25-.76-9.74-2.55c-2.88-1.48-5.69-3.4-9-3.86a10.48,10.48,0,0,0-11.46,6c-.9,1.81,1.82,3.41,2.73,1.59C629.22,85,641.34,98.32,649.22,99c7.56.67,8.87-5.87,14.84-8.13,8.45-3.19,12.84,6.29,20.64,6.7,7.09.37,12.68-5.22,17.28-9.82A1.57,1.57,0,0,0,699.75,85.54Z"/><path class="cls-3" d="M510.09,115.65l33.55-41.51s12.92,1.8,14,17.86Z"/><path class="cls-3" d="M493.42,129.45l43-53.15A68.28,68.28,0,1,0,554.61,99Z"/><path class="cls-1" d="M612.65,63.78,576,63.34a1.4,1.4,0,0,0-1.37.87l-29.8,21.53c-1.63,1.18-.05,3.91,1.59,2.72L576.7,66.61a.69.69,0,0,0,.13-.11l35.82.43C614.68,67,614.68,63.81,612.65,63.78Z"/><path class="cls-1" d="M79.21,556.8c-1.52-9.51-7.2-17-10-26a1.73,1.73,0,0,0-2.64-.86,1.27,1.27,0,0,0-1,1,66.17,66.17,0,0,1-22.82,34.54c-4.9,3.81-10.91,5.72-15.76,9.37-2.58,1.94-4.75,5.23-3.16,8.52,3.25,6.72,17.39,4.62,23,3.29a42,42,0,0,0,22-13.29c-.23,4,0,8.54,3.27,9.83,4.42,1.74,5.27-3.44,6.18-6.39a1.54,1.54,0,0,0,0-.85A48,48,0,0,0,79.21,556.8Z"/><path class="cls-1" d="M72.22,575.41c-.56-1.63.07-5.32.09-6.92a1.58,1.58,0,0,0-2.86-1A39.2,39.2,0,0,1,44,584c-3,.54-12.55,2-15.36-.53-5.33-4.71,9.88-11.24,11.93-12.6a68.56,68.56,0,0,0,26.93-35.62c2.26,5.4,5.35,10.42,7.1,16a44.52,44.52,0,0,1,0,25.89C73.84,578.5,73,577.61,72.22,575.41Z"/><path class="cls-1" d="M71.54,377.46c-.05-.16-.11-.32-.17-.49-1.31-3.55-5.64-2.5-8.87-3.19q-5.41-1.14-10.7-2.7A144.18,144.18,0,0,1,31,362.94c-1.35-.64-3.15.11-2.88,1.66q2.57,14.88,5.15,29.75l5.16,29.75,5.16,29.74q2.58,14.88,5.15,29.75l5.16,29.75L59,543.09q.7,4.08,1.42,8.18l.69,4c.2,1.14.12,2.53,1,3.47,3.07,3.35,7.57-3,9-4.9a48,48,0,0,0,3.69-6.2c1.23-2.46,1-4.34,1-7.08-.07-2.5-.13-5-.2-7.52l-.41-15-.81-30.09q-.18-6.84-.37-13.69-1-35.89-1.94-71.79c-.12-4.41-.27-8.81-.4-13.22C71.45,385.38,72.7,381.24,71.54,377.46Z"/><path class="cls-2" d="M71.61,545.87a16.47,16.47,0,0,1-3.74,6.84c-.43.46-3.27,2.39-3.17,3Q48.35,461.32,32,367a139,139,0,0,0,35.83,11l.48,17.52q.24,8.76.47,17.52t.47,17.53l.48,17.52q.24,8.76.47,17.53t.47,17.52l.48,17.52q.23,8.77.47,17.53t.47,17.52c.05,1.7.09,3.39.14,5.08A17.7,17.7,0,0,1,71.61,545.87Z"/><path class="cls-4" d="M69.23,430.57Q69,421.81,68.76,413t-.47-17.52L67.81,378A139,139,0,0,1,32,367q6.48,37.32,12.94,74.64a153.77,153.77,0,0,0,24.64.87Z"/><path class="cls-1" d="M165.49,555.73a160.82,160.82,0,0,1-32-29.31c-.73-.87-3.62.27-4,1a53.61,53.61,0,0,0,1.85,49.66,1.46,1.46,0,0,0,.22.3,3.36,3.36,0,0,0,5,.67c1.7-1.35,1.89-3.55,1.88-5.56s-.09-4.29-.16-6.44a51.53,51.53,0,0,0,25.15,12.34c5.92,1,19.37,2.78,20.77-6C185.54,564.24,170.62,559.26,165.49,555.73Z"/><path class="cls-1" d="M178.56,573.07a8.77,8.77,0,0,1-6.06,3,48.76,48.76,0,0,1-32.82-13c-.83-.77-4.69-3.17-4.61-.31.1,3.49,2.54,9.27-.58,12.16a7.92,7.92,0,0,1-1.29-1.54c-4.26-5.43-5.49-14.83-5.68-21.48A41.82,41.82,0,0,1,129.3,538c.35-1.11,3.5-7.56,2.73-8.47a165.73,165.73,0,0,0,23.31,22.79,119,119,0,0,0,13.27,9.11c3.19,1.87,10.27,4,11,8.27A4.17,4.17,0,0,1,178.56,573.07Z"/><path class="cls-1" d="M144.67,544.79a31.42,31.42,0,0,0-.74-4.46c-1.35-6.41-2.75-12.8-4.12-19.2q-4.12-19.19-8.24-38.38L117.89,419c-1-4.65-1.62-20.7-6.68-21.54-3-.51-7.7,1.29-10.71,1.81-5.17.89-10.35,1.81-15.47,3-2.49.57-7.61,1-9.44,3.21a.77.77,0,0,0-.22.48,4.16,4.16,0,0,0,.73,2c2.25,3.91,3.49,9,5.12,13.23L86.92,436l11.4,29.64,22.79,59.28c2.23,5.8,4.48,11.58,6.63,17.41,1.89,5.14,8.13,9.53,13.46,8.34C144.26,550,144.84,547.47,144.67,544.79Z"/><path class="cls-2" d="M138.87,547.58a11.13,11.13,0,0,1-2.9-.92,9.67,9.67,0,0,1-5.39-5.28c-6.47-17.11-13.1-34.14-19.66-51.21l-20-52-6-15.59-3-7.79c-.29-.76-2.43-7.54-2.89-7.54L111,400.75c0,.05,0,.1,0,.15,1.42,9.08,3.89,18.11,5.81,27.09l5.88,27.36q5.86,27.36,11.74,54.73,1.8,8.31,3.56,16.63c1.1,5.14,2.23,10.46,3.45,15.64.25,1.1,1,2.92.51,4S139.8,547.73,138.87,547.58Z"/><path class="cls-4" d="M117.66,432.07c-.29-1.36-.59-2.72-.88-4.08-1.92-9-4.39-18-5.81-27.09,0,0,0-.1,0-.15l-31.91,6.53c.46,0,2.6,6.78,2.89,7.54l3,7.79,6,15.59c.2.55.41,1.09.62,1.64a143.91,143.91,0,0,0,25.53-7.54Z"/><path class="cls-1" d="M191.26,195.81a1.6,1.6,0,0,0,.05-.21c.13-2.7-.91-6.88-3.7-7.47-.73-4.37-5.76-6.42-9.15-2.7-2.37,2.6-3.38,6.9-4.67,10.06L168.27,209c-1.43-4-4.4-9.5-7.92-5.83-1.84,1.91-.74,5-.29,7.22q1.49,7.2,3,14.41c-3.87,8-7.58,16-11.67,23.84-2.34,4.49-5.28,10-10.35,11.79-7.63,2.64-13.08-2.08-16.76-8.29-7.75-13.07-14.37-24.54-26-34.54a1.38,1.38,0,0,0-1.56-1c-1.26-.16-2.42,1.24-1.59,2.31-2,26.93-2.85,68.16,28.34,79.6,13.08,4.8,23.2-2,30.42-12.77A137.7,137.7,0,0,0,172,245.39a1.66,1.66,0,0,0,.15-.33q1.37-5.4,2.71-10.8a1.49,1.49,0,0,0,0-.51,101.39,101.39,0,0,0,13.63-18.09c1.63-2.79,3.37-5.83,3.14-8.73a1.43,1.43,0,0,0,.71-.92C193,203.72,193.42,198.06,191.26,195.81Z"/><path class="cls-2" d="M189.81,202.94l-.14-.16a1.6,1.6,0,0,0-2.23,0L178,214c-1.31,1.54.91,3.78,2.22,2.23l8.15-9.6c1.75,6.76-13.34,22.56-16.36,25.73a1.45,1.45,0,0,0-.26,1.76l-1.22,4.85a.75.75,0,0,0-.06.13c-4.86,20.35-21,71-50.24,54.55-24.7-13.9-24-47.15-22.18-72a91.41,91.41,0,0,1,19.58,24.56c3.67,6.78,6.94,15.39,15,18,6.66,2.14,13.13-1.73,17.18-6.86,7.07-9,11.2-21.17,16.18-31.37a1.59,1.59,0,0,0,.12-1,1.62,1.62,0,0,0,0-.73l-2.52-12.32c-.22-1.08-2.18-5.86.55-4.72,1.2.5,1.7,4.36,1.94,5.59a1.29,1.29,0,0,0,.9,1,1.27,1.27,0,0,0,.37.18,3.37,3.37,0,0,1,2.43,1.67,1.58,1.58,0,0,0,2.72-1.6,6.29,6.29,0,0,0-2.09-2.14,1.65,1.65,0,0,0,.2-.31q2.39-5.84,4.76-11.67c.74-1.79,1.47-3.59,2.2-5.38l1.1-2.7c.37-3.16,2.19-4,5.41-2.71a13.44,13.44,0,0,0-2.85,4.22c-1.47,2.79-2.85,5.62-4.17,8.48-.84,1.83,1.88,3.44,2.73,1.59q1.86-4.08,3.94-8.06c.48-.92,1.18-3.05,2.08-3.56a1.7,1.7,0,0,1,2.29,1.14,5.78,5.78,0,0,1,.11,2c-2.14.45-3.49,2.94-4.68,4.52q-3,4-6.05,8c-1.22,1.62,1.51,3.19,2.72,1.59l6.05-8c.9-1.19,2.24-3.71,3.29-1.48A6.39,6.39,0,0,1,189.81,202.94Z"/><path class="cls-1" d="M108.13,346.83c2-5.48,3.05-11.41,4.11-17.8.62-3.76,1.18-7.54,1.64-11.33a275.4,275.4,0,0,0,2-31.57,289,289,0,0,0-2.7-39.54c-1.31-9.76-3.41-20.77-11.83-27-5.61-4.15-12.5-5.67-19.38-5.67a70.39,70.39,0,0,0-10.35.87c-4.81.71-9.65,1.21-14.44,2-3.15.51-6.29,1.1-9.38,1.87-5.9,1.45-12.09,3.5-16.76,7.54-7.56,6.52-2.62,15.57.25,23.2A114.78,114.78,0,0,1,36.74,309a117.87,117.87,0,0,1-3.19,13.64C21,341,30.88,365.38,50.92,373a41.72,41.72,0,0,0,24.71,1.52A51.7,51.7,0,0,0,97.18,363,37.87,37.87,0,0,0,108.13,346.83Z"/><path class="cls-2" d="M56.19,371.37A34,34,0,0,1,35,354.88a30.89,30.89,0,0,1-3.77-13c-.24-4.46,1.34-8.51,3.1-12.51,4.09-9.3,5.47-19.05,6.48-29.08A115,115,0,0,0,40,269.32c-1.78-10.39-6-19.45-9-29.42-3.93-13.16,14-17.56,23.29-19.39,4.89-1,9.82-1.31,14.75-1.91s9.79-1.63,14.78-1.43c7,.27,14,2.32,18.73,7.72a22.68,22.68,0,0,1,2.63,3.74c6.4,11.26,6.35,27.57,7.12,40.12A266,266,0,0,1,111,315.54q-1.35,11.64-3.68,23.13c-1,5.14-1.94,11-5.48,15.26a58.59,58.59,0,0,1-12.41,11.16C79.63,371.6,67.69,374.3,56.19,371.37Z"/><path class="cls-1" d="M34.79,164.88a4.48,4.48,0,0,0-.72-.66c-2.47-1.77-6.76.25-9.2,1.17a25.88,25.88,0,0,0-7.16,4.06,26.32,26.32,0,0,0-1.23,39.9,1.58,1.58,0,0,0,2.62-1.7c-3.22-8.7,3.91-15.48,9.33-21.27,2.83-3,5.79-6.22,7.3-10.14a13,13,0,0,0,.85-5.82C36.43,168.66,36,166.34,34.79,164.88Z"/><path class="cls-1" d="M15.34,203.22c-10-14.29-1.55-34.34,17-36.33C38.64,180.9,16.09,189.21,15.34,203.22Z"/><path class="cls-1" d="M45,166.24c-.45-4.05-2-11.18-6.66-12.29a1.48,1.48,0,0,0-1.24.21c-10.19-.5-6.75,17.44,1.41,18.84C42.81,173.75,45.39,170.27,45,166.24Z"/><path class="cls-3" d="M38.14,169.58C34.6,168,31,156.8,37.33,157.32a1.63,1.63,0,0,0,.68-.09c1.89,1,2.61,4.17,3.11,5.93C41.8,165.61,42.64,171.54,38.14,169.58Z"/><path class="cls-1" d="M104.76,171.34a10.6,10.6,0,0,0-1.67-1.26c-3.75-2.29-9.32.1-11.3,3.69a9.07,9.07,0,0,0,15.45,9.46C109.79,179.26,108,174.3,104.76,171.34Z"/><path class="cls-2" d="M96.79,183.23a5.64,5.64,0,0,1-2.4-7.18,6.07,6.07,0,0,1,2.55-2.93c4.4-2.47,10,3.6,7.73,7.9A5.6,5.6,0,0,1,96.79,183.23Z"/><path class="cls-1" d="M96,133.27a59.8,59.8,0,0,0-3.32-7.18,22.9,22.9,0,0,0-4-5.44,23.19,23.19,0,0,0-4.76-3.6c-1.5-.85-4-2.33-5.73-2.33A31.73,31.73,0,0,0,54,118.48a30.91,30.91,0,0,0-9,8.28c-8.43,11.66-9.15,27-5.09,40.41,4.75,15.69,24.94,34.61,14.2,51.24a1.6,1.6,0,0,0,.57,2.16,23.29,23.29,0,0,0,24.84.19c.71-.41-.85-4.59-.85-4.59-1.8-6.38-3.57-13.45,2.46-17.82,3-2.22,6.16-2.54,9.29-4.32,4.84-2.77,7-8.11,8.32-13.28,3.44-13.85,2.72-28.52-1-42.25A50.63,50.63,0,0,0,96,133.27Z"/><path class="cls-2" d="M87,192c-5,2.25-9.35,2.41-11.94,7.86-2.92,6.12.88,17.4,3.35,23.11-2.64,1.72-8.42,2.23-11.54,2.13-.8,0-12.11-1.77-11.66-2.4,5.71-7.9,5.57-19.29,2.36-26.87-5.61-13.27-14.7-23.63-16.56-38.51-1.81-14.37,3.13-30.35,16.58-37.58,8.21-4.41,18.9-4.3,26.58,1.21C93,127.32,95,139.19,96.63,149.28A78.56,78.56,0,0,1,97.71,162C97.65,171.78,97.18,187.32,87,192Z"/><path class="cls-4" d="M97.71,161.88a79.37,79.37,0,0,0-1.08-12.6c-1.6-10.09-3.59-22-12.51-28.36-7.68-5.51-18.37-5.62-26.58-1.21C44.09,126.94,39.15,142.92,41,157.29a50.07,50.07,0,0,0,4.27,14.52l2.9,1.35a1.57,1.57,0,0,0,3,.71q1.91-7,3.82-14c10.18,6.69,22.28,5.62,34,3.92A54.3,54.3,0,0,0,97.71,161.88Z"/><path class="cls-4" d="M78.6,195.55a87.58,87.58,0,0,1-14.69-2.12,1.6,1.6,0,0,0-1.94,1.1c-1.38,7.67,1.23,17,10,18.63a11.15,11.15,0,0,0,3.12.16c-1.2-4.85-1.72-10-.06-13.49A10.17,10.17,0,0,1,78.6,195.55Z"/><path class="cls-1" d="M77.14,166.74c-.62-.81-1.54-1.2-2.31-.08a5.92,5.92,0,0,0-.45,4.93c.55,1.59,2,.88,2.72-.12a3.88,3.88,0,0,0,0-4.73Z"/><path class="cls-1" d="M93.73,166.74c-.62-.81-1.54-1.2-2.31-.08a5.88,5.88,0,0,0-.45,4.93c.55,1.59,2,.88,2.72-.12a4,4,0,0,0,.47-4A4.72,4.72,0,0,0,93.73,166.74Z"/><path class="cls-1" d="M88,166.44c-.33-2-3.37-1.15-3,.84a15.62,15.62,0,0,1-1,8.28c-.73,1.89,2.32,2.71,3,.84A18.8,18.8,0,0,0,88,166.44Z"/><path class="cls-1" d="M82.39,180.87a6,6,0,0,1-6.1-3.64c-.75-1.86-3.8-1-3,.83a9.21,9.21,0,0,0,9.14,6C84.41,183.91,84.42,180.76,82.39,180.87Z"/><path class="cls-1" d="M89.51,123.83c-1.7-6.35-11.6-10.61-17.25-11.77-15.24-3.13-29.64,6.63-35.6,20.4C29.36,149.32,35,168.37,49,179.73a1.67,1.67,0,0,0,2.2-.08,1.33,1.33,0,0,0,1.32-1.49c-.78-11.75-1.75-24.42,3.45-35.36a29.16,29.16,0,0,1,10.51-12.38,21.52,21.52,0,0,1,10.49-3.23c3.19-.1,6.13,1.71,9.07,1.61C89.21,128.69,90.34,126.94,89.51,123.83Z"/><path class="cls-1" d="M82.86,124.62C71.44,124,62.75,126.51,56,136.48c-7.86,11.53-7.6,25.85-6.77,39.25-13.33-12.41-17.17-33-6-48.5,5.29-7.3,13.86-12.73,23.08-12.65a26.18,26.18,0,0,1,13,3.49c1.59.94,3.84,2.25,4.88,3.82a2.22,2.22,0,0,1,1,2.15Q86.45,126.94,82.86,124.62Z"/><path class="cls-1" d="M51.5,174.7a11.88,11.88,0,0,0-1.68-1.26c-3.74-2.28-9.31.11-11.3,3.69a9.18,9.18,0,0,0,3.42,12.19,9.06,9.06,0,0,0,12-2.73C56.52,182.62,54.77,177.66,51.5,174.7Z"/><path class="cls-2" d="M43.53,186.59a5.53,5.53,0,0,1-2.41-7.18c3.49-7.33,12.06-3.83,15.06-2.43,4.57,2.14,2.08,2-.22,6.24C54.39,186.12,46.37,188.26,43.53,186.59Z"/><path class="cls-1" d="M100.94,127.71a1.44,1.44,0,0,0-.32-.33C92.87,116.75,81.43,108.8,68,115.93c-12.35,6.57-17.81,24.56-11,37,2.88,5.25,6.93,6,12.57,5.84,10.51-.34,22-.32,32.39-2.09C116.9,154.09,106.16,134.91,100.94,127.71Z"/><path class="cls-1" d="M104.83,149.7c-2.74,4.67-6.17,4.05-11,4.35-9,.57-29.53,5.85-34.79-4.38s.29-24.68,9.5-30.41c12.61-7.85,23.81,1.41,30.67,11.65a1.52,1.52,0,0,0,.28.33,44.64,44.64,0,0,1,5.36,10.5C106.34,146,107.65,144.91,104.83,149.7Z"/><path class="cls-1" d="M127.49,416.78c0-1.3-.73-2.86-1.06-4.15q-1.19-4.71-2.18-9.47-2-9.5-3.21-19.13a239.41,239.41,0,0,1-1.77-38.69c.06-1.68.13-3.36.23-5q.27-4.85.74-9.69c.26-2.72,1.43-6.4,1-9.08-.53-3-4.66-2-6.86-1.94q-5.17.07-10.35.06-10.35,0-20.69-.38c-5.82,0-11.7-.49-17.5-.85S54,317.6,48.15,317.07c-1.89-.18-3.78-.4-5.68-.59a26.44,26.44,0,0,1-5.75-.77,6.64,6.64,0,0,0-1.16-.32,1.47,1.47,0,0,0-1.62,1c-13.56,35-9.54,72.37-5,108.66a1.73,1.73,0,0,0,1.56,2.25,310.85,310.85,0,0,0,80.56-4.8c4.89-.94,10.11-1.67,14.76-3.44A2.28,2.28,0,0,0,127.49,416.78Z"/><path class="cls-2" d="M32.22,424.14c-4.36-35.06-8.18-71,4.31-105l1.83.18a1.39,1.39,0,0,0,.19.06,636.1,636.1,0,0,0,79.16,3.4,241.58,241.58,0,0,0-1.38,50.07q.89,11.06,2.78,22c.68,3.93,6,19.11,3.06,21.92h0A307.11,307.11,0,0,1,32.22,424.14Z"/><path class="cls-1" d="M95.46,224.68a1.58,1.58,0,0,0-2.31-.94,41.86,41.86,0,0,1-34.3,7.75,43.18,43.18,0,0,1-8-2.8c-.81-.35-3-1.74-3.68-1.22s-.35,3.54-.2,4.37a49.4,49.4,0,0,0,10,21.12c4.74,5.78,11.32,9.56,18.9,9.69.58,0,1.15,0,1.73,0C97.27,261.67,97.46,239.16,95.46,224.68Z"/><path class="cls-2" d="M71.43,258.84c-12.52-3.14-18.07-15.25-21.16-26.73a44.32,44.32,0,0,0,42.44-4.2C94.2,242.44,91.93,264,71.43,258.84Z"/><path class="cls-1" d="M122.82,321.59c.06-2.36-.16-4.76-.31-7-.46-7-.49-14.06-.91-21.08a410.77,410.77,0,0,0-5.11-45.07c-1.4-8.1-3.91-16.32-8.45-23.24a28.29,28.29,0,0,0-11-9.69c-2.88-1.44-7.81-3.12-11-2.72s-1.19,3.4-.59,5.8c1.76,7,3.12,15.21-.35,21.93-3,5.81-9.78,8.94-15.85,6-3.62-1.78-6.05-5.38-8.07-8.69-2.87-4.71-5.54-9.7-9.37-13.74-2.84-3-10.41-9.27-14.72-6.55-5.67,3.58-10,7.72-11.3,14.57-1.29,6.6.22,13.54,2.47,19.76a115.62,115.62,0,0,1,6.76,33,120.86,120.86,0,0,1-.3,17.23c-.42,4.79-.35,11.42-3.11,15.55-3.3,4.95-.22,9.86,4.4,12.83,9.7,6.23,21.4,9,32.72,10.35a93.83,93.83,0,0,0,36.68-2.75c5.08-1.44,10.88-3.23,14.48-7.35C122.08,328.15,122.73,324.91,122.82,321.59Z"/><path class="cls-3" d="M76.5,338.3a91,91,0,0,1-20.22-3.09,88.54,88.54,0,0,1-9.91-3.3q-3.45-1.38-6.77-3.06-6.12-2.33-4.22-10.7a1.42,1.42,0,0,0,.44-2.21,111.63,111.63,0,0,0,.91-46.15c-3.15-16.07-18.45-39.73,2.45-49.71,12,3.44,14.57,13.52,21.44,22.72,3.74,5,9.14,8.95,15.66,7.91C93,248,91.16,228.55,87.82,215.94c21.82,1.34,25.27,29.12,27.53,46.27a478.12,478.12,0,0,1,4,61,1.69,1.69,0,0,0,.14.66C118.85,337.52,85.72,338.65,76.5,338.3Z"/><path class="cls-1" d="M91.43,322.08c.61-4.15-4.4-6.23-7.52-7-11.64-3-23.13,2.73-29,12.79a1.33,1.33,0,0,0-.49,0c-9.48,1.29-18.31-3.16-21.86-12.15-2.91-7.37-1-14.24,2.81-20.77C40,286.89,46.25,280,48.91,271a39.86,39.86,0,0,0,.52-20.68,42.1,42.1,0,0,0-9.63-18.05,49.16,49.16,0,0,0-4.21-3.95A16.22,16.22,0,0,0,32.67,226a2.54,2.54,0,0,0-1.3-.4c-1,0-1.3.88-1.8,1.56s-1.11,1.49-1.65,2.24c-1.11,1.52-2.18,3.06-3.24,4.62q-3.21,4.76-6.11,9.73a156.17,156.17,0,0,0-10.25,21,124.68,124.68,0,0,0-6.57,22.31A95.28,95.28,0,0,0,0,306.71C.63,337.33,29.24,348.32,56,346.05a1.36,1.36,0,0,0,.46-.13,14.6,14.6,0,0,0,14.64-2.35c4,1.81,12.36,3.74,12-2.68a.29.29,0,0,0,0-.09c2,.33,4.12.26,5.7-1.23,1.94-1.82,1.74-4.68.33-6.74-.11-.16-.24-.3-.35-.45,2.92-.77,3.17-5,1-7.49A4,4,0,0,0,91.43,322.08Z"/><path class="cls-2" d="M87.53,330.57c-.85-.88-11.83-4-16.15-3.63-2,.19-2,3.35,0,3.15a21.68,21.68,0,0,1,9.32,1,16.21,16.21,0,0,1,4.44,2.22q3,1.6.47,4.45a9.4,9.4,0,0,1-3.66-.42,1.45,1.45,0,0,0-.41,0c-2.77-3.13-8.65-4.26-12.12-3.8-2,.26-2,3.42,0,3.15,3.2-.42,7.24.2,9.52,2.75,1.63,1.81.7,3-1.56,2.81a13.5,13.5,0,0,1-5.65-1.84,1.45,1.45,0,0,0-1.93.14,11.42,11.42,0,0,1-12.62,2.37,1.61,1.61,0,0,0-1.36,0c-14.71,1.23-30.59-.26-42-10.69C3.05,322.33,2,308,4.12,294.31,7.76,270.67,17.73,248.38,32,229.25c11.5,8.74,17.59,22.8,14.84,37.26-2.32,12.14-11.48,20.07-16.34,31-7.91,17.76,5.49,36,24.8,33.36a1.07,1.07,0,0,0,.19-.07,1.38,1.38,0,0,0,1.77-.66,23.18,23.18,0,0,1,12-11,21.87,21.87,0,0,1,8.88-1.65,18.51,18.51,0,0,1,5,.63c4,.87,5.31,2.13,3.68,4.87a28.57,28.57,0,0,0-16-2.33c-2,.38-1.15,3.42.84,3a21.31,21.31,0,0,1,9,.13,19,19,0,0,1,4.25,1.55l1.08.58C87.55,326.47,88.22,328.85,87.53,330.57Z"/><path class="cls-1" d="M182.19,172.8a12.41,12.41,0,0,0-4.93-.92,1.1,1.1,0,0,0-.77.32,1.47,1.47,0,0,0-1,.75c-7.65,13.84-4.13,33-3.85,48.17,0,1,1.2,1.45,2,1.2l3-.9c.82-.25,2.25-.2,2.67-1.14a8.35,8.35,0,0,0,.39-2.23c.11-1,.16-2,.25-2.92.19-1.92.37-3.84.56-5.76q.56-5.76,1.12-11.53,1.11-11.53,2.24-23.06l0-.34A1.51,1.51,0,0,0,182.19,172.8Z"/><path class="cls-2" d="M176.68,218.34l-2.16.65c-.48-14.16-3.28-31.42,3.34-44.17a8.44,8.44,0,0,1,3,.62Q178.76,196.89,176.68,218.34Z"/><path class="cls-1" d="M177.09,171.68a27,27,0,0,0-5.27.11l-10.16.13-.09,0a1.22,1.22,0,0,0-1.44,1.19q-1.12,20.33-2.27,40.63c-.12,2.16-.78,5-.18,7.11a1.75,1.75,0,0,0,.3.65c.75.95,3.15.6,4.21.64l5.68.24c1.94.09,4.16.66,6-.07,2.66-1,1.72-4.48,1.89-6.68.25-3.37.51-6.74.76-10.11l1.53-20.22q.45-6,.89-11.93C179.05,172.35,178.22,171.87,177.09,171.68Z"/><path class="cls-2" d="M172.53,219.66l-12-.5Q161.75,197,163,174.84l13-.17Q174.24,197.17,172.53,219.66Z"/><path class="cls-1" d="M171.56,216.56l-10-.48q.94-19.1,1.9-38.2l10.75-.1Q172.89,197.18,171.56,216.56Z"/><path class="cls-1" d="M755.19,216a1.24,1.24,0,0,0-.72-1,1.35,1.35,0,0,0-1-.3,131.34,131.34,0,0,1-104.87-43,72.32,72.32,0,0,0,.68-14.63c-.17-2.52-.3-5.8-2.58-7.43a4.82,4.82,0,0,0-6.4,1c-2.45,2.78-1.62,6.8-1.87,10.24a8,8,0,0,0-2,1.3c-8.43-1.93-17-4.62-25.6-5.82-4.35-.61-7.6.35-9.15,4.61a.78.78,0,0,0,0,.16,20.53,20.53,0,0,0-3.25.15c-4.35.56-7.64,4.49-4.92,8.16a4.11,4.11,0,0,0-.42.5c-3.81,5.6,2.74,9.32,7.54,10.59a7.36,7.36,0,0,0,.33,2c1.07,3.7,5.46,4.65,8.64,5.72,7.91,2.66,15.83,5.26,23.75,7.9h.1A226.52,226.52,0,0,0,751.1,265.49a1.62,1.62,0,0,0,1.65-2.52A124.19,124.19,0,0,0,755.19,216Z"/><path class="cls-2" d="M752.26,217.86a119.41,119.41,0,0,1-2.5,44,223.9,223.9,0,0,1-42.43-14.85,114.21,114.21,0,0,0,2.3-34A133.59,133.59,0,0,0,752.26,217.86Z"/><path class="cls-2" d="M706.41,212.06a111.59,111.59,0,0,1-2,33.61c-1.34-.65-2.68-1.34-4-2a130.8,130.8,0,0,0,3.6-32.38C704.8,211.53,705.6,211.81,706.41,212.06Z"/><path class="cls-2" d="M635,193.2a1.33,1.33,0,0,0-1.65-.36l-18.16-6c-2.07-.69-8.18-1.62-9.52-3.33-4.32-4.25,2.37-4.91,6.11-3.46a39.75,39.75,0,0,1,5.74,2.35c1.8.93,3.39-1.79,1.59-2.73-2.8-1.45-13.76-5-17.35-1.93-1.55-.22-3.4-.54-4.33-1.43-5.35-4.13.89-6,3.43-4.93l2.53.69,12.64,3.5a1.58,1.58,0,0,0,.84-3C611.44,171,605.94,169,600.4,168a10.55,10.55,0,0,0-4.11-.09c-3.33-3.55,4.49-3.41,5.08-3.39a42.9,42.9,0,0,1,6.65,1,60.2,60.2,0,0,1,11.5,3.76c1.84.8,3.45-1.91,1.59-2.72-4.74-2.07-10.53-4.34-16.15-5.11,2.94-4.85,23.43,1.88,29.69,3.57a1.5,1.5,0,0,0,.7,1.66,1.59,1.59,0,0,0,2.16-.56,4.19,4.19,0,0,1,2.55-2.49,1.5,1.5,0,0,0,1-1,1.64,1.64,0,0,0,.51-1c.21-1.57-.24-4.54.18-6,1.79-6.21,4.37-3,4.3-.27.08.82.13,1.64.16,2.45a71.36,71.36,0,0,1-.66,13.47h0a1.56,1.56,0,0,0,.19,1.84,134,134,0,0,0,55.11,37,127.75,127.75,0,0,1-3.33,32A223.51,223.51,0,0,1,635,193.2Z"/><path class="cls-1" d="M824.16,253.51c-3.94-18.17-19-28.71-35.94-33.7a125.54,125.54,0,0,0-18.1-3.73c-6.33-.86-13-2-19.44-1.42a3.1,3.1,0,0,0-1.13.25c-2.11,1-2.58,5.31-3.39,7.23q-2,4.68-3.82,9.43c-2.42,6.33-4.6,12.77-6.45,19.3q-2.6,9.13-4.44,18.48c-1.18,6-2.88,12.69-2.88,18.85-2.58,23.41-3.62,51.52,5.57,73.74,7.5,18.15,25.86,30.15,45.66,28.68,16.07-1.2,31.31-12.43,32.05-28.41a1.37,1.37,0,0,0,.27-.66l8.46-58.5C822.87,287.24,827.62,269.45,824.16,253.51Z"/><path class="cls-2" d="M816,312.71c-1.16,8-2.78,15.87-3.78,23.87-1.17,9.33-1.31,18.83-4,27.91-2.06,6.94-5.83,14.56-12.6,17.94-9.19,4.59-21.24,6.38-31.19,3.34-22.05-6.76-30.29-27-32.73-48.19-4.69-40.93,2.63-82.76,19.91-120,30.15,1.77,70.31,8.58,70.46,46.9C822.14,280.46,818.31,296.88,816,312.71Z"/><path class="cls-1" d="M740.39,185.42a9,9,0,0,0,9.63,7.72,9.15,9.15,0,0,0,8.4-9.46c-.21-4.09-4.17-8.67-8.55-8.26a11.42,11.42,0,0,0-2,.4C743.58,177.05,739.83,180.75,740.39,185.42Z"/><path class="cls-2" d="M743.67,184.56c-.2-4.87,7.53-7.86,10.4-3.72a6,6,0,0,1,1,3.76,5.65,5.65,0,0,1-5.31,5.4A5.59,5.59,0,0,1,743.67,184.56Z"/><path class="cls-1" d="M800.66,212.4a11.36,11.36,0,0,0-11.49-.42c-4-9.49-15.66-9.59-23.53-4.1-12,8.37-18.18,23.94-19.11,38.07-.1,1.49,2.11,2.37,2.89,1,4.64-8.36,13.19-11.46,22-8.22a1.68,1.68,0,0,0,2.29.94s.08,0,.13,0c9.06-1.46,16.56,3.5,18.75,12.47a1.59,1.59,0,0,0,2.85.54C802,244.24,814.09,220.29,800.66,212.4Z"/><path class="cls-2" d="M750.38,240.33a49.86,49.86,0,0,1,8.2-20.48c2.82-4,6.32-8.13,10.67-10.58,5.87-3.3,14.62-3.08,17.24,4.4-6.7,5.05-11.81,15.26-14.3,22C764.18,232.73,756,234.54,750.38,240.33Z"/><path class="cls-2" d="M794.68,248.37a18.69,18.69,0,0,0-19.28-12.06c4.3-9.77,19.13-34.92,26.9-16.68C806,228.32,800.06,240.63,794.68,248.37Z"/><path class="cls-1" d="M778.39,231.54a1.58,1.58,0,0,0-.6-2.67l-6-1.78a1.47,1.47,0,0,0-.41,0,1.44,1.44,0,0,0-2.17.47c-5.6,10.33-9.05,22.87-8.16,34.69.23,3.09,4.28,4.1,6.85,4.17,1.33,0,5.05-.12,5.68-1.64a1.94,1.94,0,0,0,.1-.76,114.12,114.12,0,0,1,1-16.22c.39-2.74.9-5.47,1.52-8.16q.47-2,1-4.05C777.52,234.39,778.39,232.75,778.39,231.54Z"/><path class="cls-2" d="M764.27,262.11a63,63,0,0,1,7.11-31.85l3.77,1.11a100.8,100.8,0,0,0-4.6,31.57A7.67,7.67,0,0,1,764.27,262.11Z"/><path class="cls-1" d="M748.48,177.35c-1,7.4-.31,15.36,4.1,21.64,2,2.79,4.31,4.35,7.07,6.23,5.15,3.51,9.18,5.49,8.17,12.68a25.73,25.73,0,0,1-2.69,7.33,1.59,1.59,0,0,0-.33.45c-2,4.45-3.68,10.54,1.87,13.16s14.48-1.48,19.77-3c4.57-1.31,8.65-3.15,9.73-8.23,1-4.57-.94-9.38-.28-14,0-.24.07-.47.11-.71,1.38-7.92,7.71-13.6,11.87-20.15.76-1.2,1.5-2.4,2.22-3.61,1.45-2.45,2.82-4.95,4-7.53a49.09,49.09,0,0,0,4.79-15.9,30.32,30.32,0,0,0-2.79-16.33c-6.53-13.49-26.23-24.34-41-19.11-7.41,2.63-12.84,8.81-16.45,15.6A99.65,99.65,0,0,0,748.48,177.35Z"/><path class="cls-2" d="M761,148.35c4.83-9.57,13.15-17.28,24.61-16.15,9.16.91,19.78,6.94,25.22,14.48,4.85,6.73,6,14.9,4.21,22.9A62.33,62.33,0,0,1,807.66,187a63.65,63.65,0,0,1-5.54,8.57,54.28,54.28,0,0,0-6.23,8.33,27.13,27.13,0,0,0-3.35,11.62c-.3,5.66,1.78,12.39-3.87,15.72-2.49,1.47-7.22,2.83-10,3.6-3.54,1-11.29,2.22-12.37-2.77-.73-3.41,2.44-6.9,3.51-9.92,1.21-3.4,1.84-7.05.75-10.58-1.79-5.8-6.81-7-11.3-10.25C743.45,189.79,753.92,162.33,761,148.35Z"/><path class="cls-4" d="M785.59,132.2c-11.46-1.13-19.78,6.58-24.61,16.15a110.21,110.21,0,0,0-7.65,19.28c4.37,1.64,9.45,1.94,13.85,2.12a77.37,77.37,0,0,0,28.2-4.26,51,51,0,0,0,8.14,25,1.51,1.51,0,0,0,1.66.68c.86-1.38,1.66-2.8,2.48-4.19A62.33,62.33,0,0,0,815,169.58c1.8-8,.64-16.17-4.21-22.9C805.37,139.14,794.75,133.11,785.59,132.2Z"/><path class="cls-4" d="M785.29,205.6a48.47,48.47,0,0,1-17.9,1,10.65,10.65,0,0,1,3.2,4.95c1.09,3.53.46,7.18-.75,10.58-.55,1.55-1.65,3.22-2.49,4.94a7.66,7.66,0,0,0,4.56.75c8.39-1.18,13.73-13.19,15.32-20.3A1.6,1.6,0,0,0,785.29,205.6Z"/><path class="cls-1" d="M777.58,173c.7-.74,1.65-1,2.3.16a5.88,5.88,0,0,1,0,4.94c-.71,1.53-2.05.68-2.7-.39a4,4,0,0,1-.06-4A3.65,3.65,0,0,1,777.58,173Z"/><path class="cls-1" d="M761.08,171.29c.7-.74,1.65-1,2.3.16a5.91,5.91,0,0,1,0,5c-.71,1.52-2.05.67-2.7-.4a4,4,0,0,1-.06-4A3.41,3.41,0,0,1,761.08,171.29Z"/><path class="cls-1" d="M766.79,171.57c.53-1.95,3.47-.8,2.94,1.14a15.84,15.84,0,0,0,.11,8.34c.54,1.95-2.58,2.46-3.11.52A18.86,18.86,0,0,1,766.79,171.57Z"/><path class="cls-1" d="M770.93,186.5a6,6,0,0,0,6.43-3c.94-1.77,3.89-.66,2.94,1.14a9.19,9.19,0,0,1-9.69,5C768.61,189.32,768.92,186.18,770.93,186.5Z"/><path class="cls-1" d="M812,141.51c-3.5-16.82-24.18-19.91-38.39-15.69-17.09,5.07-28.46,19.69-30.77,37.09a1.58,1.58,0,0,0,2.37,1.36l2.28-1.72a12.57,12.57,0,0,0,2,5.92,1.6,1.6,0,0,0,2.88-.37c.85-2.36,1.71-4.71,2.56-7.06l0,0a66.41,66.41,0,0,0,45.86-1,130.69,130.69,0,0,0,2,34.41,1.36,1.36,0,0,0,.27,1,1.28,1.28,0,0,0,1.1.72,1.55,1.55,0,0,0,1.34-.36A50.23,50.23,0,0,0,823.06,164C824.22,154.81,822.46,142.94,812,141.51Z"/><path class="cls-1" d="M820.22,160.41a45.82,45.82,0,0,1-14.78,31.18,127.81,127.81,0,0,1-1.42-33c1.23-1-.23-3.22-1.93-2.48a63.2,63.2,0,0,1-46.35,1.9,1.38,1.38,0,0,0-.85,0,1.68,1.68,0,0,0-2.56.77c-.37,1-.75,2.07-1.13,3.1l-.42-2.25c.22-1.18-1.1-2.7-2.31-1.78l-1.85,1.4c3-13.49,12.18-24.84,25.45-29.63,12.9-4.65,33.46-3.37,36.85,12.75a1.6,1.6,0,0,0,1.44,2.13c3.92.13,8.48,4.69,9.4,8.35A25.86,25.86,0,0,1,820.22,160.41Z"/><path class="cls-1" d="M797.21,199.08a9.06,9.06,0,0,0,11.55,4.36,9.16,9.16,0,0,0,5.06-11.59c-1.47-3.83-6.65-7-10.68-5.22a11.65,11.65,0,0,0-1.83,1C797.65,190.13,795.23,194.8,797.21,199.08Z"/><path class="cls-2" d="M795.71,195.47c-1.69-4.57-4.17-4.73.64-6.21,3.17-1,12.14-3.26,14.58,4.48a5.54,5.54,0,0,1-3.37,6.78C804.52,201.78,796.86,198.56,795.71,195.47Z"/><path class="cls-1" d="M810.87,572.31c-5.89-16.6-26.14-15.14-39.65-10.32a1.52,1.52,0,0,0-1.47,0c-9.77,4.75-19.82,9.55-29,15.4-3.32,2.12-7.18,5.6-5.43,10,2.12,5.41,10.45,4.71,14.92,4.8a185.07,185.07,0,0,0,29.38-1.74C789,589.14,816.48,588.1,810.87,572.31Z"/><path class="cls-1" d="M770.23,565.72c6-2.4,12.38-4.45,19-4.2,5.87.23,15.14,4,18,10.3a14.94,14.94,0,0,1,.66,1.62,213.64,213.64,0,0,1-41.16,7.74,1.37,1.37,0,0,0,0-.19,17.59,17.59,0,0,0-8.18-9.86q5.31-2.77,10.67-5.41A1.26,1.26,0,0,0,770.23,565.72Z"/><path class="cls-2" d="M741.55,580.56c3-3.23,9.47-5.59,13.58-7.66a1,1,0,0,0,.17.11,14.31,14.31,0,0,1,8.23,8.41,214.41,214.41,0,0,1-23.11.48C740.75,581.48,741.12,581,741.55,580.56Z"/><path class="cls-2" d="M805.51,581.36a38.74,38.74,0,0,1-6.78,2.16c-2.33.64-4.71,1.14-7.07,1.64a179.17,179.17,0,0,1-19.66,3q-7.95.78-15.94.88c-2.89,0-5.82,0-8.71-.11-2.54-.13-9.46.06-8.59-4a216.74,216.74,0,0,0,69.67-8.42C808.33,578.3,807.46,579.83,805.51,581.36Z"/><path class="cls-1" d="M902.9,500.75c-3.12-2.75-7.73-1.74-11.24-.43a34.2,34.2,0,0,0-16,12.47c-4.48,6.39-6.66,14-7.4,21.71-.53,5.48-.11,11.11.13,16.6.14,3.2.26,6.42.54,9.62.37,4.15.57,9,3.62,12.26,3.4,3.64,9.11,2.71,12.62-.29,4.65-4,6.13-10.19,8.62-15.5A136,136,0,0,0,905.39,521C906.31,515.15,908,505.26,902.9,500.75Z"/><path class="cls-1" d="M872.2,539.68c.18-6.32.47-12.3,3-18.21a32.44,32.44,0,0,1,12.7-14.91c1.92-1.19,5.26-3.46,7.48-3.47a9.67,9.67,0,0,1,3.89.7,210,210,0,0,1-11.9,41.64,20.75,20.75,0,0,0-15.24,1.47C872.11,544.49,872.13,542.09,872.2,539.68Z"/><path class="cls-2" d="M876.24,568.79c-2.12-1.77-3-5.26-3.48-7.78a61,61,0,0,1-.62-9.75l.06,0A17,17,0,0,1,885.84,549,209.92,209.92,0,0,1,876.24,568.79Z"/><path class="cls-2" d="M902.66,513c-.15,1.68-.41,3.41-.63,5.06-1.36,10.2-4.75,20.24-8.8,29.78-1.87,4.42-3.5,9-5.64,13.27-1.54,3.09-3.7,8.25-7.6,8.78a211.72,211.72,0,0,0,22.4-62.33A15.84,15.84,0,0,1,902.66,513Z"/><path class="cls-1" d="M891.58,499.55a85,85,0,0,1-27.8-13,88.68,88.68,0,0,1-20.2-20.49,122.94,122.94,0,0,1-13.89-25.86,191.34,191.34,0,0,1-8.85-29.06,304.31,304.31,0,0,1-5.1-30.14c-.64-5.21-1.1-10.45-1.6-15.68-.25-2.65-.51-5.31-.82-8-.13-1.16-.06-6.68-1.78-6.17a99.44,99.44,0,0,1-21.06,3.5,125,125,0,0,1-43-4.48c-3.53-1-7-2.18-10.46-3.49-1.36-.52-8.42-4.67-8.48-1a794,794,0,0,0,28.29,223.58,1.7,1.7,0,0,0,.29.57,1.51,1.51,0,0,0,1.46,1.28,127.39,127.39,0,0,0,46.21-6.48,1.57,1.57,0,0,0,.95-.86,1.33,1.33,0,0,0,.15-1.25A460.52,460.52,0,0,1,786.29,472a150.32,150.32,0,0,0,83,69.37,1.55,1.55,0,0,0,.69.08,1.58,1.58,0,0,0,1.87-.16,57.69,57.69,0,0,0,20.28-39A1.57,1.57,0,0,0,891.58,499.55Z"/><path class="cls-3" d="M870.3,538.43c-.07,0-.12-.08-.2-.11a147.23,147.23,0,0,1-99.58-136.88c0-2-3.19-2-3.16,0a150.11,150.11,0,0,0,15.1,63.18,1.4,1.4,0,0,0-.07.66,462.82,462.82,0,0,0,20.1,96.86,124.84,124.84,0,0,1-42.69,5.94,790.85,790.85,0,0,1-28.08-220.16A128.48,128.48,0,0,0,810.15,355c2.18,32.38,5.26,65.93,20.24,95.25,12.22,23.93,32.41,44.22,58.58,51.83A54.48,54.48,0,0,1,870.3,538.43Z"/><path class="cls-1" d="M772.22,374.91q-.22-9-.44-18.08c0-2-3.21-2-3.16,0l.42,16.78c.14,5.67,2.2,15.82-7.47,14a1.24,1.24,0,0,0-1-.25l-.29,0-.16.05a68.93,68.93,0,0,1,1.3-30.59,1.58,1.58,0,0,0-3-.84A72.25,72.25,0,0,0,760,399.12c.67,1.9,3.71,1.08,3-.84a73.15,73.15,0,0,1-2.2-7.58c4.53,1,9.69.87,11.34-4.4C773.23,382.85,772.31,378.46,772.22,374.91Z"/><path class="cls-1" d="M868.54,537.76a72,72,0,0,0,18.29-36.4c-1-.32-2-.64-3-1-.3,1.67-.64,3.32-1.05,5-62-20.86-71.72-92.86-74.75-149.9-1,.21-2.08.43-3.12.62,3.19,58.43,13.7,131,77,152.32a69,69,0,0,1-16.62,28.22C866.38,537,867.46,537.37,868.54,537.76Z"/><path class="cls-1" d="M801.06,557.5c-.31-1-.62-2-.92-3a95.64,95.64,0,0,1-42.26,6.35l.84,3.16A98.9,98.9,0,0,0,801.06,557.5Z"/><path class="cls-1" d="M862,291.85a1.2,1.2,0,0,0-.16-.27c-2.79-4.57-5.89-8.91-8.82-13a287.83,287.83,0,0,0-38.18-43.15l-.07,0a1.48,1.48,0,0,0-2.67-.12c-8.34,17.34-17.34,37.31-9.14,56.42,3.61,8.41,9.51,12.9,17.33,17.1,2.89,1.55,6.83,3.27,8.2,6.46,3.77,8.79-5.5,11.31-10.37,12.65a59.17,59.17,0,0,1-20.22,1.74c-.93-8.34-6.49-15.44-15-17.29-4.57-1-18.22.06-15,7.93a1.72,1.72,0,0,0,.47.64c-3,2.62-2.86,7.17.63,8.89-.76,2.44.44,5.16,2.79,5.7-.07.16-.16.3-.22.47-2.44,6.54,6.15,6.18,10.58,6.11-1.1,0,2.7,8.13,3.21,8.75,2.27,2.82,4.76,3.9,8.09,4.74,15.88,4,37,3.64,52.08-2.91,12.35-5.33,23.35-16.07,25.16-29.89C872.1,311.77,867.73,301.33,862,291.85Z"/><path class="cls-2" d="M862.89,299.54l-.06.07a45.4,45.4,0,0,1-30.3,18,11.67,11.67,0,0,0-.62-2.18,81.53,81.53,0,0,0,28.55-20.51C861.33,296.45,862.13,298,862.89,299.54Z"/><path class="cls-2" d="M827.6,309.62c-4.49-3.82-10.47-5.19-14.88-9.19-5.24-4.75-8.21-11.57-9.37-18.45-2.55-15.12,4.06-29.74,10.48-43.12a285.24,285.24,0,0,1,30.7,33.64c4.57,5.92,9.86,12.54,14.25,19.61a78.47,78.47,0,0,1-28.37,20.6A15.79,15.79,0,0,0,827.6,309.62Z"/><path class="cls-2" d="M842.22,350.64c-15.86,6-33.54,3.65-49.93,1.61h0a11.47,11.47,0,0,1-6.94-11.64,1.32,1.32,0,0,0-1.27-1.48,1.49,1.49,0,0,0-.73-.19l-4.84-.07a9.68,9.68,0,0,1-2.69-.05c-.37-.69-.74-1.38-1.12-2.07a3.42,3.42,0,0,1,1.2-1.07c2.87-1.85,6.94-1.68,10.08-.83a1.58,1.58,0,0,0,.84-3c-3.31-.9-8.79-1.16-12.31.88a1.39,1.39,0,0,0-1.36-.29q-1.62-2.19,0-2.94a4.15,4.15,0,0,1,1.65-.76,15.5,15.5,0,0,1,2.71-.55,20,20,0,0,1,6.89.39c2,.44,2.82-2.59.84-3-4.17-.93-10.79-1.39-14.43,1.71l-.18-.1c-3-1-.31-3.95,1-4.6a14.53,14.53,0,0,1,4.76-1.13,25.9,25.9,0,0,1,7.9.49c2,.41,2.82-2.63.83-3-4.17-.87-9.92-1.4-14.19.5-1.38-3.81,6.48-4.29,8.21-4.26a16.13,16.13,0,0,1,8.06,2.34,16.47,16.47,0,0,1,7.66,13.47,2.28,2.28,0,0,0,1.67,1.82c10,.9,23.73.5,32.24-5.72a9.15,9.15,0,0,0,3.9-6.21,48.71,48.71,0,0,0,31.71-18,41.87,41.87,0,0,1,3.41,14.3C868.39,332.88,856.29,345.32,842.22,350.64Z"/><path class="cls-1" d="M681.1,588h37.69L682.32,372.65H644.08L611.59,588h37.65l-.43-1.92c-2.91-12.9-4.65-29.13-4.65-46.76,0-21.22,2.52-40.44,6.55-54.23,2-6.89,4.41-12.42,7-16.11a16.08,16.08,0,0,1,3.84-4.11,5.84,5.84,0,0,1,7.3,0c2.22,1.54,4.54,4.63,6.64,9,3.16,6.58,5.86,16,7.75,27.22a233.81,233.81,0,0,1,3,38.22c0,17.63-1.74,33.86-4.65,46.76Z"/><path class="cls-2" d="M682.65,484.24c-2.07-7.1-4.54-12.89-7.39-17a19.37,19.37,0,0,0-4.63-4.9,8.93,8.93,0,0,0-10.91,0c-2.93,2.06-5.43,5.57-7.68,10.23-3.36,7-6.09,16.62-8,28.06a237.21,237.21,0,0,0-3,38.74,225.32,225.32,0,0,0,4.32,45.53H615.25L646.79,375.8h32.86l35.41,209.08H685a225.32,225.32,0,0,0,4.32-45.53C689.33,517.87,686.8,498.43,682.65,484.24Z"/><path class="cls-4" d="M684,401.27l-4.32-25.47H646.79l-3.77,25h12.26C664.54,400.81,674.47,401.69,684,401.27Z"/><path class="cls-1" d="M413.13,588h37.68L414.34,372.65H376.11L343.61,588h37.65l-.43-1.92c-2.9-12.9-4.64-29.13-4.64-46.76,0-21.22,2.52-40.44,6.55-54.23,2-6.89,4.41-12.42,7-16.11a16.1,16.1,0,0,1,3.85-4.11,5.83,5.83,0,0,1,7.29,0c2.22,1.54,4.55,4.63,6.65,9,3.16,6.58,5.86,16,7.74,27.22a233.81,233.81,0,0,1,3,38.22c0,17.63-1.74,33.86-4.64,46.76Z"/><path class="cls-2" d="M414.68,484.24c-2.08-7.1-4.55-12.89-7.4-17a19,19,0,0,0-4.63-4.9,8.93,8.93,0,0,0-10.91,0c-2.93,2.06-5.43,5.57-7.68,10.23-3.35,7-6.09,16.62-8,28.06a237.21,237.21,0,0,0-3,38.74,224.6,224.6,0,0,0,4.32,45.53H347.28L378.82,375.8h32.86l35.4,209.08H417a224.55,224.55,0,0,0,4.33-45.53C421.35,517.87,418.82,498.43,414.68,484.24Z"/><path class="cls-4" d="M417.69,411.28l-6-35.48H378.82l-5,33.06L398.6,410C404.44,410.32,411.18,411.33,417.69,411.28Z"/><path class="cls-1" d="M733.12,364.21H324.52a8.76,8.76,0,1,0,0,17.51h408.6v0a8.76,8.76,0,1,0,0-17.51Z"/><path class="cls-1" d="M737.08,376.92a5.6,5.6,0,0,1-4,1.65H324.52a5.61,5.61,0,0,1,0-11.21h408.6a5.59,5.59,0,0,1,4,9.56Z"/><path class="cls-1" d="M337.5,364.26l1.58-8.17a1.59,1.59,0,0,1,.51-.86,3.36,3.36,0,0,1,1.15-.65,15.73,15.73,0,0,1,2.52-.59,90.85,90.85,0,0,1,12.87-.83l124.15-.49a99.79,99.79,0,0,1,10.71.47,24.89,24.89,0,0,1,3.43.58,5.68,5.68,0,0,1,1.25.48,2.31,2.31,0,0,1,.62.48,1.48,1.48,0,0,1,.39,1l0,.26-1.59,8.17a1.62,1.62,0,0,1-.5.86,3.54,3.54,0,0,1-1.15.65,15.73,15.73,0,0,1-2.52.59A89.61,89.61,0,0,1,478,367l-124.15.5a99.46,99.46,0,0,1-10.71-.48,23.62,23.62,0,0,1-3.44-.58,5.37,5.37,0,0,1-1.25-.47,2.56,2.56,0,0,1-.61-.48,1.48,1.48,0,0,1-.39-1Z"/><path class="cls-4" d="M353.86,364.84l124.15-.5a97.73,97.73,0,0,0,10.6-.54,26.37,26.37,0,0,0,3.12-.52l.34-.1,1.35-6.94c-.26-.06-.59-.14-1-.2a78.93,78.93,0,0,0-12.15-.71l-124.15.49a100.38,100.38,0,0,0-10.61.55,22.83,22.83,0,0,0-3.11.52l-.34.1-1.35,6.93c.26.07.59.14,1,.21A78.93,78.93,0,0,0,353.86,364.84Z"/><path class="cls-1" d="M373,345.67,390,282a20.88,20.88,0,0,1,6.88-10.48A18,18,0,0,1,408,267.07l105.7-.42a11.15,11.15,0,0,1,8.21,3.27,11.62,11.62,0,0,1,3.12,8.17,15.65,15.65,0,0,1-.55,4.15L507.5,346a20.83,20.83,0,0,1-6.88,10.47,18,18,0,0,1-11.18,4.41l-105.7.42a11.1,11.1,0,0,1-8.2-3.26,11.63,11.63,0,0,1-3.13-8.18A15.65,15.65,0,0,1,373,345.67Z"/><path class="cls-2" d="M377.78,355.82a8,8,0,0,0,6,2.31l105.7-.42a14.9,14.9,0,0,0,9.19-3.69,17.69,17.69,0,0,0,5.86-8.87l17-63.72a12.63,12.63,0,0,0,.46-3.33,8.58,8.58,0,0,0-2.25-6,8,8,0,0,0-5.95-2.31L408,270.2a14.9,14.9,0,0,0-9.19,3.69,17.69,17.69,0,0,0-5.86,8.87l-17,63.72a12.2,12.2,0,0,0-.45,3.33A8.51,8.51,0,0,0,377.78,355.82Z"/><path class="cls-4" d="M384.36,355.92a7.61,7.61,0,0,0,5.64,2.19l100.08-.4a14.1,14.1,0,0,0,8.71-3.49,16.82,16.82,0,0,0,5.54-8.39l16.1-60.23a12.07,12.07,0,0,0,.42-3.16,8,8,0,0,0-2.12-5.68,7.56,7.56,0,0,0-5.64-2.18L413,275a14.22,14.22,0,0,0-8.71,3.49,16.82,16.82,0,0,0-5.54,8.39l-16.1,60.24a12,12,0,0,0-.42,3.15A8,8,0,0,0,384.36,355.92Z"/><path class="cls-1" d="M222.76,574.19l-1.47-154.94a1.59,1.59,0,0,0-2.29-1.38l-10.06-.05a1.67,1.67,0,0,0-.4.08,1.52,1.52,0,0,0-2.13,1.41q.75,77.78,1.48,155.55a1.78,1.78,0,0,0,.11.48,1.44,1.44,0,0,0,1.52,1.6l11.92-.4A1.59,1.59,0,0,0,222.76,574.19Z"/><path class="cls-2" d="M211,573.74q-.72-76.38-1.45-152.76l8.57,0q.73,76.22,1.46,152.43Z"/><path class="cls-4" d="M209.6,423.5q.28,29.44.56,58.87l1.82-.08,6.76-.19q-.28-29.4-.56-58.79A22.15,22.15,0,0,0,209.6,423.5Z"/><path class="cls-1" d="M263.52,417.57c-.94-3.9-5.9-3-9.12-3.34q-6.37-.68-12.78-1.12-13.05-.9-26.14-.86-11.89,0-23.77.85c-4.15.29-8.3.64-12.43,1.08s-9.69-.18-12.15,3.77c-1.94,3.1-2.36,7.2-2.46,10.77a24.2,24.2,0,0,0,2.75,11.74c2.67,5.1,11.55,4.36,16.39,4.9,8.15.91,16.35,1.47,24.55,1.67,17.09.41,34-1.55,50.93-3.3,5.69-.59,5.16-6.46,5.35-10.89a85.51,85.51,0,0,0-1-14.73C263.59,417.92,263.56,417.74,263.52,417.57Z"/><path class="cls-1" d="M172.06,440.82a5.41,5.41,0,0,1-1.29-.93c-2.49-2.41-2.93-7.21-2.94-10.49s.46-10.47,4.09-11.34c6.89-1.65,15-1.51,22.05-1.95q11.66-.72,23.34-.7t23.2.8c5.31.36,10.67.34,15.92,1.3,2.58.46,4.19.63,4.75,3.32a44,44,0,0,1,.63,9.46c0,2.58.47,7.55-1.33,9.64-2,2.27-8,1.57-10.83,1.93q-5.62.69-11.26,1.17-11.26.95-22.57,1c-7.72,0-15.43-.39-23.11-1q-5.88-.51-11.74-1.19C178.14,441.45,174.67,442.19,172.06,440.82Z"/><path class="cls-1" d="M245.09,576.61c.19-2.4.06-5-1.3-6.81-1.58-2-4.85-1.69-7.29-1.89s-4.71-.34-7.07-.46q-7.22-.35-14.45-.24-7.06.1-14.1.66-3.52.27-7,.65a65.26,65.26,0,0,0-7.66,1.19,2.72,2.72,0,0,0-.95.36c-1.44,1-1,4.68-.94,6.07.14,3.08.79,10.16,5.31,10.64a220.75,220.75,0,0,0,27.7,1.21q7.23-.13,14.44-.74c1.7-.14,3.41-.15,5.11-.28,1.41-.1,5.26,0,6.26-1.05,1.32-1.35,1.4-4.54,1.62-6.21C244.86,578.79,245,577.72,245.09,576.61Z"/><path class="cls-1" d="M240.88,583.23a1.11,1.11,0,0,0,0,.36,220.76,220.76,0,0,1-51.19.49,17.15,17.15,0,0,1-1.85-12.1A222.7,222.7,0,0,1,241,571,22,22,0,0,1,240.88,583.23Z"/><path class="cls-1" d="M377.19,261.83c.7-3,.11-5.62-3.53-6.67.14-1.67-.53-3-2.82-3.42s-4.64,1.41-6.38,2.78c-.58.45-1.13.94-1.66,1.44a4.08,4.08,0,0,0-.75-4.05c-2-2.46-5.14-1.41-7.13.5-7.21,6.89-9.07,18.84-7.48,28.31a2.63,2.63,0,0,0-.2.33c-4,7.87-8.45,16.79-17,20.61-9.31,4.19-17.63-1.08-24.47-7.08-11.44-10-21.5-21.73-30.64-33.86a2.63,2.63,0,0,0-3.06.69c-15.52,24.73-7.76,57.91,18.4,71.71a49.58,49.58,0,0,0,42.39,1.67c9.06-3.86,16.48-10.47,22.17-18.43a68.43,68.43,0,0,0,7.67-13.16c2-4.91,3.47-9.61,6.71-14,2.06-2.82,3.58-5.31,3.61-8.73,1.76-2.35,3.44-4.76,5-7.27,1.09-1.77,2.42-3.65,2.77-5.74C381.29,264.66,379.77,262.25,377.19,261.83Z"/><path class="cls-2" d="M367.79,256c.49-.33,2.25-1.76,2.72-.36.16.46-1,2-1.26,2.39l-1.2,2.05a4.54,4.54,0,0,0-2.44-.55,5.6,5.6,0,0,0-2.34.57A22.91,22.91,0,0,1,367.79,256Z"/><path class="cls-3" d="M274,264.37a250.32,250.32,0,0,0,21.5,24.75c5.56,5.58,11.55,11.89,18.87,15.19A78.55,78.55,0,0,0,305,334.8a45.67,45.67,0,0,1-14.66-5.35C267.43,316.2,260.79,286.77,274,264.37Z"/><path class="cls-2" d="M374.54,272.84c-1.34,2.08-2.77,4.09-4.25,6.07a1.34,1.34,0,0,0-.29.87,1.57,1.57,0,0,0-.05.37c.34,5.23-4.94,9.29-7,13.61-3.76,7.81-6.59,16.4-11.95,23.32A48.32,48.32,0,0,1,333.79,331a47.13,47.13,0,0,1-25.65,4.31,75,75,0,0,1,9.18-29.82c15.71,4.86,26.13-10.13,32.57-22.72a1.43,1.43,0,0,0,.82-1.63,31.81,31.81,0,0,1,2.09-19.62c.58-1.26,5.76-10.36,6.23-4.14.11,1.51-1.22,3.34-1.08,5.16a1.23,1.23,0,0,0,.82,1.14l.05,0c-.57.62-1.09,1.22-1.54,1.76a29.8,29.8,0,0,0-5.8,10.93c-.57,1.94,2.39,3,3,1.07a26.74,26.74,0,0,1,7.33-12.18c1.1-1,1.6-1.9,3.17-1.4,1.36-.07,1.57.4.65,1.41q-.47.84-.93,1.65c-1.35,2.38-2.78,4.71-4.26,7a1.62,1.62,0,0,0,2.12,2.28,6.13,6.13,0,0,1,1.2,4c-.11,2,3,2.3,3.14.27a9.43,9.43,0,0,0-2.43-6.93c1.55-2.37,3.78-6,4.57-9,0-.05.09-.07.12-.13a57.37,57.37,0,0,0,3.63-6.2c4.46,1.77-2.52,10.62-3.92,12.89-1.06,1.73,1.53,3.52,2.6,1.79a67,67,0,0,0,4.7-8.09,1.47,1.47,0,0,0,.42.06C379.93,264.66,374.77,272.47,374.54,272.84Z"/><path class="cls-1" d="M279.34,313.6c5.53-13.45,10.72-29.19,4-43.23-5.68-11.81-18.88-17.53-31.52-17.19-29.64.79-57,26.33-70.2,51.14A101.28,101.28,0,0,0,170,355.76a106.13,106.13,0,0,0,4.46,26.41c2.48,8.22,5.44,19.58,12.56,25.1,11.45,8.89,28,13.38,42.23,14.59,15,1.28,29.54-3.31,39.64-14.8,8.7-9.9,12.23-23.6,8-36.22-2.94-8.81-7.41-16-7.07-25.68C270.26,334,275.18,323.71,279.34,313.6Z"/><path class="cls-3" d="M266.85,350.67c1.35,14.23,11.76,24.65,7.61,39.71C269.67,407.81,253,417.88,235.7,419a66.22,66.22,0,0,1-28.78-5c-6.7-2.67-14.27-5.15-19.39-10.72-5.6-6.09-8-15.1-10.17-22.88A102.78,102.78,0,0,1,175,334.9c5.28-30.54,24.5-57.81,52.44-71.63,1.31-.65,2.64-1.27,4-1.86,14.21-6.23,32.87-8.33,44.67,4,12.19,12.74,6.52,31.83.71,46.07C271.74,323.94,265.53,336.82,266.85,350.67Z"/><path class="cls-1" d="M325.2,319.84a18.84,18.84,0,0,0-14.08-16.67c-9.3-2.51-18.25,1.53-24.48,8.36a1.73,1.73,0,0,0-.55.47c-9.88,12.82-22.64,28.5-40.82,25.39a19,19,0,0,1-12.1-6.83,1.51,1.51,0,0,0-.93-1.31,21.34,21.34,0,0,1-3.09-12.66c.38-8.47,3.79-16.67,3.1-25.23C231.5,282.17,225.19,273,215,274c-10.53,1.11-16,10.33-19.61,19.34a1.53,1.53,0,0,0-.9,1c-6.91,21.72-9.4,50.17,7.11,68.38,18.15,20,52,16.83,72.44,2.35a63.16,63.16,0,0,0,20.63-24.73,9.5,9.5,0,0,0,5.73-5.13c3,2.07,6.83-.24,7.4-3.82,0-.12,0-.24,0-.36a6.08,6.08,0,0,0,5.8-4.94,6.26,6.26,0,0,0,3.82-1.67c.95,1.79,2.48,3.24,4.74,2.62,2.79-.76,3.32-3.84,3.3-6.3A1.43,1.43,0,0,0,325.2,319.84Z"/><path class="cls-3" d="M196.25,299.63a1.63,1.63,0,0,0,.38-.61c3-8.43,7-19,16.74-21.48,14.83-3.77,16.61,14.26,15,24s-4.48,21,.91,29.51a58.6,58.6,0,0,1-30.61,22.11C190.08,337.78,191.41,317.16,196.25,299.63Z"/><path class="cls-2" d="M321.58,323.93c-1.05.53-1.59-1.44-1.8-2.11a1.7,1.7,0,0,0-.34-.59,7.13,7.13,0,0,0,.29-2.49c-.34-5.06-4.87-8.16-8.8-10.54-1.74-1.05-3.32,1.67-1.59,2.73,2.31,1.39,4.84,2.84,6.27,5.22s1.28,6.48-2,6.83c-.91-4.3-4.9-6.76-8.6-8.66-1.8-.93-3.39,1.79-1.59,2.72,2.21,1.14,4.72,2.32,6.17,4.42,1.73,2.51,1.31,6.36-2,6.44-1-3.36-4-6.37-6.54-8.34-1.61-1.24-3.18,1.49-1.59,2.72a15.84,15.84,0,0,1,4.24,4.8,7.12,7.12,0,0,1,1.1,3.2c0,1.39-1.28,3.69-2.84,2.11a1.48,1.48,0,0,0-.71-.39,10.36,10.36,0,0,0-.3-3.25c-.51-2-3.55-1.13-3,.84a6.29,6.29,0,0,1-4.06,7.73,1.27,1.27,0,0,0-1.51.77,59.89,59.89,0,0,1-77.72,30.8A39.92,39.92,0,0,1,200.36,356a62,62,0,0,0,30.92-22.27,21.51,21.51,0,0,0,1.88,1.79c20.38,16.87,42.62-5.28,54.82-20.83a1,1,0,0,0,.26-.2c4.92-5.71,11.36-9.51,19.11-8.71,9,.92,15.3,8,14.75,17.18a1.33,1.33,0,0,0,0,.34A1.26,1.26,0,0,1,321.58,323.93Z"/><path class="cls-1" d="M290,219.57a11,11,0,0,0-2-.66c-4.28-1-8.81,3-9.57,7.05a9.16,9.16,0,0,0,7.07,10.49,9,9,0,0,0,10.57-6.37C297.26,225.52,294,221.36,290,219.57Z"/><path class="cls-2" d="M286.16,233.37a5.65,5.65,0,0,1-4.54-6.06,6.13,6.13,0,0,1,1.51-3.59c3.4-3.72,10.66.27,9.82,5.07A5.6,5.6,0,0,1,286.16,233.37Z"/><path class="cls-1" d="M279.33,184.43a1.68,1.68,0,0,0-2.57-.19c-.05,0-.09,0-.15,0-18.17,2.85.95,33.29,6.54,39.87a1.59,1.59,0,0,0,2.63-.7A45.2,45.2,0,0,0,279.33,184.43Z"/><path class="cls-1" d="M277.44,187.28a41.82,41.82,0,0,1,6.05,32.26,55.38,55.38,0,0,1-6.32-10C275.18,205.41,267.82,188.79,277.44,187.28Z"/><path class="cls-1" d="M281.39,191.57c-2.67-7.21-7.24-14.06-14.23-17.65-13.9-7.14-34.87,1-43.13,13.49a30.3,30.3,0,0,0-4.94,15.82,49,49,0,0,0,2.64,16.4c.86,2.71,1.89,5.37,3,8,.55,1.29,1.13,2.58,1.72,3.87,3.25,7,8.76,13.51,9.08,21.55,0,.24,0,.48,0,.72,0,4.7-2.5,9.21-2.15,13.88.4,5.17,4.2,7.54,8.55,9.45,5,2.2,13.49,7.42,19.2,5.6s5-8.12,3.6-12.8a1.62,1.62,0,0,0-.26-.49,25.6,25.6,0,0,1-1.7-7.62c0-7.26,4.22-8.68,9.78-11.48,3-1.5,5.52-2.73,7.84-5.24,5.21-5.64,7-13.43,6.94-20.9A99.51,99.51,0,0,0,281.39,191.57Z"/><path class="cls-2" d="M273.46,246.49c-4.89,2.65-10,3.15-12.57,8.66-1.55,3.35-1.41,7.06-.66,10.59.65,3.13,3.33,7,2.15,10.29-1.73,4.8-9.24,2.54-12.62,1.1-2.63-1.12-7.13-3.11-9.41-4.89-5.15-4.05-2.2-10.45-1.74-16.09a27.24,27.24,0,0,0-1.78-12,54.59,54.59,0,0,0-5.06-9.09,63.22,63.22,0,0,1-4.35-9.23,62.09,62.09,0,0,1-5-18.24c-.72-8.17,1.51-16.12,7.21-22.14,6.39-6.75,17.72-11.32,26.92-11,11.51.4,18.73,9.15,22.25,19.28C284,208.55,290.69,237.17,273.46,246.49Z"/><path class="cls-4" d="M278.82,193.77c-3.52-10.13-10.74-18.88-22.25-19.28-9.2-.32-20.53,4.25-26.92,11-5.7,6-7.93,14-7.21,22.14a62.09,62.09,0,0,0,5,18.24,63.22,63.22,0,0,0,4.35,9.23l.13.2.45.11a1.62,1.62,0,0,0,1.91-1.24,1.43,1.43,0,0,0,1.91-1q2.16-9,4.31-18c.68-2.81.67-7.05,3.63-8.46,2.34-1.12,8.63.05,11.28-.14,8.81-.62,17.78-2.74,24.93-8.09C279.82,196.75,279.31,195.19,278.82,193.77Z"/><path class="cls-4" d="M270.47,247.9l-11.33,2.33c-3.25.67-8.32.73-10.77,3.39-3.86,4.21.75,11.33,4.07,14.27a12.54,12.54,0,0,0,9.65,3.23c-.61-1.87-1.52-3.73-1.86-5.38-.75-3.53-.89-7.24.66-10.59C262.92,250.76,266.59,249.55,270.47,247.9Z"/><path class="cls-1" d="M296.78,169.1c-2.22-2.37-4.75-1.84-7.26-.6.23-.34.48-.65.7-1,1.51-2.43,3.67-6.33,2.75-9.27-.85-2.72-3.23-3.09-5.67-2.26-3.53,1.19-7,2.72-10.45,4.24a18.75,18.75,0,0,0,2.8-7.18c.48-2.85.67-6.91-1.95-8.85s-6.11-.33-8,1.92a70.21,70.21,0,0,0-6.58,9.78,14.09,14.09,0,0,0-4.92-8.14,1.6,1.6,0,0,0-2.48.32c-8.89,16.33-47.17,25.55-36.85,49.9-2.69,2.4-4.16,6-3.64,11.32,1.19,12,8.26,23.22,16.77,31.4a1.46,1.46,0,0,0,2,.11,1.27,1.27,0,0,0,.76-1,148.37,148.37,0,0,0,1.72-39.07,73.78,73.78,0,0,0,51.34-16.22C291,181.86,301.62,174.28,296.78,169.1Z"/><path class="cls-1" d="M232.06,236.31A52.77,52.77,0,0,1,220.59,218c-1.31-3.62-2.8-8-2.26-11.85a9.64,9.64,0,0,1,3.06-6.16,2,2,0,0,0,.61-.48c2.81-2.07,6.84-2.51,10.88-2.51A144.82,144.82,0,0,1,232.06,236.31Z"/><path class="cls-1" d="M290.25,178.37a21.2,21.2,0,0,1-2,2.17l-.19.2a28.73,28.73,0,0,1-4.24,3.46,87.35,87.35,0,0,1-9.55,5.44l-.66.34a70.84,70.84,0,0,1-37.55,7.56c-.05-.44-.08-.89-.14-1.33a1.58,1.58,0,0,0-.89-1.26,1.45,1.45,0,0,0-1.44-1.09c-4.53,0-8.83.59-12.15,2.3-5.29-13.74,9.39-23.43,19.41-29.83,6.45-4.13,12.38-8.47,16.45-14.93a11.81,11.81,0,0,1,2.7,9.52c-.15,1.19.88,1.65,1.81,1.43a1.49,1.49,0,0,0,1.41-.72l4.54-7,2.27-3.51c.46-.72.92-1.43,1.39-2.14q.9-2.35,3.16-1.2c2.56.34,2.26.95,2.11,3.25a15.72,15.72,0,0,1-.74,3.84,16.58,16.58,0,0,1-4.56,7,1.38,1.38,0,0,0-.26,1.78c-.11,1.05.65,2.15,1.87,1.65l8.24-3.41,3.44-1.42,2.06-.85c.65-.26,1-1,1.74-.31,2.35,2.21,0,5.78-1.49,7.66a29.25,29.25,0,0,1-5.94,5.66c-1.6,1.11-.17,3.7,1.44,2.81a.33.33,0,0,0,.1,0,10.93,10.93,0,0,0,2.91-1.11,29.2,29.2,0,0,0,2.86-1.54,2,2,0,0,1,2-.29c1.41.8,1.45,2.47,1,3.85A7.17,7.17,0,0,1,290.25,178.37Z"/><path class="cls-1" d="M234.31,234.18a11.06,11.06,0,0,0-2-.66c-4.27-1-8.81,3-9.57,7a9.16,9.16,0,0,0,7.07,10.49,9,9,0,0,0,10.57-6.37C241.57,240.13,238.35,236,234.31,234.18Z"/><path class="cls-2" d="M230.48,248a5.53,5.53,0,0,1-4.54-6.06c1-8.06,10.24-7.43,13.53-7,5,.59,2.59,1.19,1.75,6C240.65,244.12,233.69,248.67,230.48,248Z"/><path class="cls-1" d="M260,214.91c-.74-.7-1.71-.94-2.29.29a5.94,5.94,0,0,0,.35,4.94c.8,1.48,2.08.55,2.66-.56a4,4,0,0,0-.18-4A3.66,3.66,0,0,0,260,214.91Z"/><path class="cls-1" d="M276.39,212.23c-.74-.69-1.71-.93-2.29.3a5.84,5.84,0,0,0,.35,4.93c.8,1.49,2.08.55,2.66-.56a4,4,0,0,0-.18-4A3.81,3.81,0,0,0,276.39,212.23Z"/><path class="cls-1" d="M270.7,212.86c-.64-1.92-3.5-.59-2.86,1.32a15.78,15.78,0,0,1,.4,8.32c-.42,2,2.72,2.31,3.13.34A18.73,18.73,0,0,0,270.7,212.86Z"/><path class="cls-1" d="M267.48,228a6,6,0,0,1-6.6-2.62c-1.05-1.7-3.93-.41-2.87,1.32a9.19,9.19,0,0,0,10,4.41C270,230.68,269.47,227.57,267.48,228Z"/><path class="cls-1" d="M376.36,555.43a55.75,55.75,0,0,0-63.54,2.21,1.37,1.37,0,0,0-.75,1c-1.43,6.49-4.05,17.07-1,23.4,2.31,4.79,7.26,3.85,11.57,2.61,19.26-5.57,37.41-14.92,53.72-26.49A1.6,1.6,0,0,0,376.36,555.43Z"/><path class="cls-1" d="M318.79,582.31c-8.8-.37-5.12-16.37-3.78-22.35a52.58,52.58,0,0,1,57.61-3.05,182.52,182.52,0,0,1-34,18.68C333.19,577.84,324.75,582.56,318.79,582.31Z"/><path class="cls-2" d="M341.62,566.81a210.38,210.38,0,0,1-27.72,11.78,5.17,5.17,0,0,0,4.89,3.72c6,.25,14.4-4.47,19.82-6.72a182.52,182.52,0,0,0,34-18.68A54.68,54.68,0,0,0,364,553C356.69,557.77,349.51,562.73,341.62,566.81Z"/><path class="cls-1" d="M357.22,406c-15.8-32.22-57.16-28.72-86.79-24.1a1.5,1.5,0,0,0-2.35.34A140.24,140.24,0,0,0,251,429.74a1.6,1.6,0,0,0,1.94,1.94,191.22,191.22,0,0,1,27.85-4.29c8.09-.61,22-2.86,27.94,3.87,14,15.9-15.67,30.43-24.43,39.86a1.63,1.63,0,0,0,0,2.23l26.67,34.42a1.59,1.59,0,0,0,2.23,0L332,485.24a2.09,2.09,0,0,0,.19-.36C351.44,463.4,371.42,434.92,357.22,406Z"/><path class="cls-2" d="M312,503.18c-2.31-.08-7.94-9.34-9.36-11.16L294.1,481c-1.4-1.8-3.73-4.05-4.77-6.14-1.52-3.07-.84-2.82.9-5.23,2.7-3.75,8.46-6.38,12.15-9.32,4.48-3.56,8.85-7.73,11.11-13.1,13.69-32.41-41.25-22.86-59-19.05a137.46,137.46,0,0,1,15.63-43c28.18-4.47,69.27-8.87,84.41,22.46,7,14.4,4.76,30.17-2.17,44.1-7.12,14.31-18.19,24.84-27.95,37.14-2,2.53-3.82,5.22-5.74,7.82C317.34,498.39,314.62,503.28,312,503.18Z"/><path class="cls-4" d="M326,442.63c-2.18-19.47-19.12-33.62-38.5-30.83q-1.36-14.35-2.72-28.72c-5.14.57-10.11,1.29-14.72,2a137.46,137.46,0,0,0-15.63,43c17.78-3.81,72.72-13.36,59,19.05-2.26,5.37-6.63,9.54-11.11,13.1-3.69,2.94-9.45,5.57-12.15,9.32-1.74,2.41-2.42,2.16-.9,5.23,1,2.09,3.37,4.34,4.77,6.14l4,5.15a29.94,29.94,0,0,0,3.22-1.17C317.26,478.05,328,459.87,326,442.63Z"/><path class="cls-1" d="M347.31,547.17a505.33,505.33,0,0,0-81-122.61A50.16,50.16,0,0,0,277,370.66a1.69,1.69,0,0,0-3-.22,109.9,109.9,0,0,1-95.86,12.41,1.4,1.4,0,0,0-1.24.13c-1-.11-2.14.65-1.69,1.89,17.76,48.95,55.53,86,89.06,124.35,9,10.27,17.75,20.74,25.67,31.85,4,5.63,7.82,11.42,11.31,17.39q2.67,4.56,5.11,9.25c.86,1.67,2.89,9.42,5.76,7.88a156.7,156.7,0,0,0,35.46-26.08A1.49,1.49,0,0,0,347.31,547.17Z"/><path class="cls-2" d="M312,572c3.6-2-26.67-42.42-28.43-44.61-16.48-20.53-34.72-39.55-51.91-59.48a401.94,401.94,0,0,1-29.82-38.37,238.53,238.53,0,0,1-12.51-20.76q-3-5.56-5.57-11.29c-.69-1.52-3.35-10.61-4.59-11a113,113,0,0,0,95.57-12.81,47,47,0,0,1-10.57,48.49l-.78-.86c-1.36-1.51-3.59.73-2.23,2.23a502.65,502.65,0,0,1,83.16,124.67A153.82,153.82,0,0,1,312,572Z"/><path class="cls-1" d="M267.38,402.41c-.05,0-.07,0-.12.06a53.1,53.1,0,0,0-9.8-19.61c-1,.43-2.07.83-3.1,1.24a50.59,50.59,0,0,1,11,24.26c.32,2,3.36,1.15,3-.84-.12-.7-.29-1.37-.43-2.06a.94.94,0,0,0,.29,0c11.39-2.83,4.61-17.71-1.47-27.07-.94.51-1.87,1-2.82,1.52C269,387.75,275.37,400.43,267.38,402.41Z"/><path class="cls-1" d="M341.38,542.09l-21.7,15.7c-27.8-53.37-81.49-90.51-109.66-143,4.18-1.66,6.93-5,6.79-9.68-.11-3.87-2.11-7.64-3.47-11.19-.26-.71-.53-1.41-.8-2.11-.94,0-1.87,0-2.81,0,3.27,8.43,5.51,17.82-1,20.15a1.19,1.19,0,0,0-.15.09,159.68,159.68,0,0,1-9-21.07c-1.15-.14-2.31-.29-3.46-.47,22.25,67.22,88.91,107.29,121,169.19l-7.46,5.4c.57,1,1.07,2,1.48,2.8L342.77,545C342.31,544,341.85,543.05,341.38,542.09Z"/><path class="cls-1" d="M999.35,557q-.74-77.48-1.48-154.94a1.58,1.58,0,0,0-2.29-1.38l-10.05-.05a1.66,1.66,0,0,0-.41.08A1.52,1.52,0,0,0,983,402.1q.74,77.77,1.48,155.55a1.46,1.46,0,0,0,.1.48,1.45,1.45,0,0,0,1.52,1.6l11.93-.4A1.59,1.59,0,0,0,999.35,557Z"/><path class="cls-2" d="M987.62,556.52q-.74-76.38-1.46-152.76l8.58,0q.72,76.23,1.45,152.44Z"/><path class="cls-1" d="M1040.1,400.36c-.94-3.91-5.9-3-9.11-3.34q-6.39-.67-12.79-1.12-13.05-.9-26.14-.86-11.89,0-23.76.85-6.22.44-12.44,1.07c-4.11.43-9.68-.18-12.15,3.77-1.93,3.1-2.36,7.2-2.45,10.78A24,24,0,0,0,944,423.25c2.66,5.09,11.54,4.36,16.38,4.9q12.24,1.37,24.56,1.66c17.09.42,34-1.54,50.92-3.29,5.69-.59,5.17-6.46,5.35-10.89a84.46,84.46,0,0,0-1-14.73A4.32,4.32,0,0,0,1040.1,400.36Z"/><path class="cls-3" d="M948.64,423.61a5.7,5.7,0,0,1-1.29-.93c-2.48-2.41-2.93-7.22-2.94-10.49s.46-10.47,4.1-11.34c6.88-1.66,15-1.51,22-2q11.66-.72,23.33-.7t23.21.8c5.3.35,10.66.34,15.91,1.29,2.58.47,4.19.63,4.75,3.33a43.94,43.94,0,0,1,.64,9.45c-.05,2.59.46,7.56-1.34,9.65-2,2.27-8,1.57-10.83,1.92q-5.61.71-11.26,1.18c-7.5.62-15,.95-22.57,1-7.71,0-15.42-.38-23.11-1q-5.88-.51-11.74-1.19C954.73,424.24,951.26,425,948.64,423.61Z"/><path class="cls-1" d="M1021.68,559.4c.18-2.4.06-5-1.31-6.81-1.58-2-4.84-1.69-7.29-1.89s-4.71-.34-7.07-.46q-7.21-.36-14.45-.24c-4.7.07-9.41.29-14.09.66q-3.53.27-7,.65a63.23,63.23,0,0,0-7.66,1.19,3,3,0,0,0-.95.35c-1.44,1-1,4.69-.94,6.08.14,3.08.8,10.16,5.31,10.64a222.82,222.82,0,0,0,27.71,1.21c4.82-.09,9.64-.34,14.43-.74,1.7-.14,3.41-.16,5.11-.28,1.42-.1,5.27,0,6.27-1,1.31-1.35,1.39-4.55,1.61-6.21C1021.45,561.57,1021.59,560.51,1021.68,559.4Z"/><path class="cls-1" d="M1017.47,566a1,1,0,0,0,0,.35,220.3,220.3,0,0,1-51.2.5,17.2,17.2,0,0,1-1.85-12.1,222.71,222.71,0,0,1,53.19-1A22,22,0,0,1,1017.47,566Z"/><path class="cls-1" d="M1025.19,457.91a3,3,0,0,0-1.46-3.4c-1.77-1-5.41-.85-8.15-.95s-5.26-.17-7.9-.23q-8.07-.18-16.16-.12-7.89.06-15.76.33-3.94.13-7.87.33c-2.88.14-5.76.29-8.56.59a5.42,5.42,0,0,0-1.07.18c-1.61.5-1.12,2.34-1,3,.16,1.54.89,5.08,5.94,5.32,10.27.49,20.63.69,31,.6,5.39,0,10.78-.16,16.14-.37,1.9-.07,3.81-.07,5.71-.14,1.58,0,5.89,0,7-.52,1.47-.68,1.56-2.27,1.81-3.11A13.46,13.46,0,0,0,1025.19,457.91Z"/><path class="cls-1" d="M1020.48,461.22a.29.29,0,0,0,0,.18,551.89,551.89,0,0,1-57.24.25c-2.37-1.93-3.05-4-2.07-6a551.28,551.28,0,0,1,59.48-.48A5.31,5.31,0,0,1,1020.48,461.22Z"/><path class="cls-1" d="M1045.42,563.48c1.88-11.27.11-23.26-7.28-31.91-8.6-10.08-29.09-11.81-35.44,1.77a29.73,29.73,0,0,0-1.91,7.57,50.58,50.58,0,0,0-.61,12.53,46.7,46.7,0,0,0,8.29,23.28c7.72,10.93,23.66,17.44,31.48,2.89A52.74,52.74,0,0,0,1045.42,563.48Z"/><path class="cls-2" d="M1037.23,578c-9.93,17.48-26.53-.68-31-12a44.06,44.06,0,0,1-1.71-5.52,32.59,32.59,0,0,0,12.89,16c9,5.54,16.8,2.38,22.35-3.92A38.36,38.36,0,0,1,1037.23,578Z"/><path class="cls-2" d="M1042,563.93a22.41,22.41,0,0,1-5.52,8.08c-7.34,6.58-16.35,3.94-22.48-2.57-8-8.49-10.83-20.63-9.06-31.92a16.51,16.51,0,0,1,8.5-9.78,16.08,16.08,0,0,1,9.36-1.15A22.93,22.93,0,0,1,1038.76,538C1042.72,545.19,1043.57,554.93,1042,563.93Z"/><path class="cls-1" d="M1032.76,551.25c-.59-5.81-.59-11.52-7.9-11-2.39.17-5.09.65-6.6,2.7-1.83,2.47-1,5.8-.4,8.53.53,2.42.34,5,1.33,7.34s3.67,3.27,6.14,3.43,5.48.12,7.09-2C1034.23,557.9,1033,553.92,1032.76,551.25Z"/><path class="cls-2" d="M1024.54,543.36a4.06,4.06,0,0,1,3.67,1.21,4.74,4.74,0,0,1,1.06,2.25,18.63,18.63,0,0,0-8.53.56A4.49,4.49,0,0,1,1024.54,543.36Z"/><path class="cls-2" d="M1020.59,550.76a15.57,15.57,0,0,1,8.47-.8,1.74,1.74,0,0,0,.56,0c.06.75.11,1.51.16,2.27a23.81,23.81,0,0,0-9,.24C1020.69,551.92,1020.63,551.34,1020.59,550.76Z"/><path class="cls-2" d="M1029.81,557.38a3.27,3.27,0,0,1-2.38,1.73l-.4.07a5.19,5.19,0,0,1-4.66-1.67,5.69,5.69,0,0,1-1-2,19.87,19.87,0,0,1,8.41-.17,1.55,1.55,0,0,0,.22,0A4.37,4.37,0,0,1,1029.81,557.38Z"/><path class="cls-1" d="M959.56,442.17A29.28,29.28,0,0,0,943.33,453c-3.3,4.26-6.18,8.81-7,14.23a94.32,94.32,0,0,0-.94,22.76c.5,5,2.54,10.19,7.91,11.56,6.43,1.64,11.53-5.48,14.79-9.82a91.61,91.61,0,0,0,12.93-24C974.93,456.92,977.1,438.06,959.56,442.17Z"/><path class="cls-2" d="M941.27,469.15c1.62-1.06,1.66,3.81,1.69,4.4l0,.81a13.15,13.15,0,0,0-3.51,1.05c.2-2,.46-4,.82-6A1.59,1.59,0,0,0,941.27,469.15Z"/><path class="cls-2" d="M939.14,484.53c0-1.79,0-3.59.08-5.39a1.19,1.19,0,0,0,.48-.13,11.07,11.07,0,0,1,3.47-1.29c0,.33,0,.66.05,1,.1,2,.47,3.43-.75,5.09a4.06,4.06,0,0,1-3.32,1.77C939.15,485.21,939.15,484.84,939.14,484.53Z"/><path class="cls-2" d="M942.5,495.8a10.14,10.14,0,0,1-2.79-4.59,10.65,10.65,0,0,1-.41-2.33c2.42-.3,5-.93,6.4-3.09,1.63-2.5.88-6.21.74-9s.63-7.82-1.61-10.09a3.79,3.79,0,0,0-3.73-1c.16-.66.33-1.32.51-2,1.89-6.82,5.12-11,11-14.89a31,31,0,0,1,7.74-3.86c2.32-.71,5.39-1.07,7.44.49a7.27,7.27,0,0,1,1.52,1.62,1.8,1.8,0,0,0-.31.7C965.51,466.29,953.4,481,942.5,495.8Z"/><path class="cls-2" d="M971.13,455.42c0,.41-.06.8-.1,1.19-.55,4.86-2.67,9.12-4.5,13.59-3.46,8.42-8.2,17-14.41,23.7-1.82,2-4.19,3.29-6.45,3.19,10.13-13.69,20.93-27.36,25.49-43.89A20.52,20.52,0,0,1,971.13,455.42Z"/><path class="cls-1" d="M1044.41,369.69q-2.42-11.55-5.49-22.95a1.58,1.58,0,0,0-2.31-.94,73.37,73.37,0,0,1-63.68,12.71,1.45,1.45,0,0,0-1.65.61,192.76,192.76,0,0,0-57.06,18.76c-15.32,7.91-34.29,18.44-41.67,35-6.33,14.18-.85,30,9.21,41,6.48,7.05,14.87,11.93,23.69,15.46a135.51,135.51,0,0,0,13.48,4.47c4.09,1.15,9.21,3.31,13.44,3.43,1.55,0,2.39-1.25,3.62-2,6.17-3.59,11.84-10.29,16.65-15.5q3.87-4.17,7.41-8.63,1.77-2.24,3.47-4.54c.58-.79,2.41-2.63,1.4-3.7a2.55,2.55,0,0,0-1.54-.64c-5.34-.83-11.12-3.93-16.13-5.95-5.72-2.31-14.59-7.11-4.41-14.69,2.26-1.68,7.07-2.8,9.86-3.67a157.38,157.38,0,0,1,37-6.7,1.68,1.68,0,0,0,.4-.11A174.15,174.15,0,0,1,1001,504.67c-1.82,11.29-4.64,23.43.39,33.7a24.44,24.44,0,0,0,17.78,13.16c32.08,5.13,31.58-44.92,33.05-64.93A420.54,420.54,0,0,0,1044.41,369.69Z"/><path class="cls-1" d="M1046.31,512.83c-1.9,13.73-2.79,32.27-19.86,35.34a21.83,21.83,0,0,1-23.33-12.85c-3.35-8.24-1.24-17.55.31-26.32,5.92-33.58,2.49-69-11-100.28-.47-1.08-1.47-2.38-2.54-1.87a1.28,1.28,0,0,0-.69,1.22,163.19,163.19,0,0,0-30.28,4.77c-6.6,1.72-17.14,3.5-21.71,9.29-10.13,12.85,14.13,19.53,23.66,22.69A149.68,149.68,0,0,1,932.56,474c-16.21-3.86-33.57-8.15-46-19.82-14.28-13.38-18.47-33.9-5-49.38,10.46-12,26.07-20.43,40.3-27.14a190.73,190.73,0,0,1,51-15.59,1.36,1.36,0,0,0,.49-.19,76.17,76.17,0,0,0,63.12-12.06c-1,.7,5.33,22.74,5.82,25.24q2.73,13.82,4.54,27.81a416.8,416.8,0,0,1-.49,110Z"/><path class="cls-1" d="M950.7,267.31a17.62,17.62,0,0,0-4.66-4.44c-2-1.14-4.12-1.1-5.54,2.05-1.12,2.49-2.49,4.8-3.8,7.19q-2.79,5.07-5.43,10.21t-5.12,10.38q-1.23,2.61-2.42,5.25c-.18.39-.76,2.09-1.32,3.46-2.08-.23-3.51-.23-4.94,1.64a15.4,15.4,0,0,0-3.29,7.75c-.18,1.5,1.51,1.88,3.27,2-2.34,6.07-4.16,12.55-3.92,19.1a24.89,24.89,0,0,0,2.2,9.61c1.13,2.45,2.87,6.82,6.09,7.09,2.52.21,6-2.67,8-3.92.68-.43,6.94-4.49,10.55-7.16-.3.23.78,1.7,1,1.87a2.14,2.14,0,0,0,2.33.19,12.39,12.39,0,0,0,4.23-3.46,11.59,11.59,0,0,0,3.06-10.2,53.9,53.9,0,0,0,8.25-17.24C963.23,294.05,959.82,279.19,950.7,267.31Z"/><path class="cls-2" d="M922.2,345.36c-8.58-9.17-5.92-21.4-1.52-32.51h.1a23.11,23.11,0,0,1,19.49,20.34A74.13,74.13,0,0,1,922.2,345.36Z"/><path class="cls-2" d="M948,328.64a9.65,9.65,0,0,1-4.37,7,26.38,26.38,0,0,0-26-26.23,10.94,10.94,0,0,1,2.83-4.89c.46-.47,3.89.43,4.55.56a29.78,29.78,0,0,1,4.63,1.31,28.82,28.82,0,0,1,8.11,4.6c4.8,3.88,8.87,9.81,10.1,15.93A6.8,6.8,0,0,1,948,328.64Z"/><path class="cls-2" d="M955.39,310.37A52.39,52.39,0,0,1,949.73,322c-.42-1-.86-1.88-1.3-2.74a32.78,32.78,0,0,0-22.95-17.39l.68-1.49a377.62,377.62,0,0,1,18.1-35.1C956.83,276.72,960.82,294.32,955.39,310.37Z"/><path class="cls-1" d="M1039.25,354c.73-6.53-.86-13.69-1.89-20.35q-2-13.28-4.88-26.39c-3-13.56-5.6-29-14.19-40.36-9.22-12.2-23.79-16.17-38.52-15.16a110.93,110.93,0,0,0-21.83,4c-6.53,1.81-14.06,3.22-17.3,10.08-3.67,7.77-1.7,17.2,1.4,24.79,6.38,15.62,13.57,30.12,17.08,46.79,2.81,13.33,2.67,27.62,14.09,36.94,8.35,6.8,19,8.09,28.83,4.92s20.93-5,29.43-11.37A19.22,19.22,0,0,0,1039.25,354Z"/><path class="cls-2" d="M1006.25,375.92c-8.17,2-16.87,2.74-24.18-.13-6.29-2.47-10.16-6.87-13.8-12.33-5.55-10.32-5.14-24.14-8.14-35.38A177.24,177.24,0,0,0,948.87,298c-3.56-7.55-7.67-16.16-7.55-24.76.19-12.89,13.08-13.52,23-15.82a85.22,85.22,0,0,1,22.14-2.56c13.78.47,25.86,6.68,32.57,19,6.09,11.21,8.42,24.71,11,37.06q2.42,11.42,4.18,22.94c1.21,7.77,4.55,17.84.84,25.32-3.15,6.36-10.1,10.17-16.44,12.68A96.76,96.76,0,0,1,1006.25,375.92Z"/><path class="cls-1" d="M926.22,234.06a9.05,9.05,0,0,0,9.63,7.72,9.16,9.16,0,0,0,8.4-9.46c-.21-4.09-4.17-8.68-8.55-8.26a11.39,11.39,0,0,0-2.05.39C929.41,225.68,925.66,229.38,926.22,234.06Z"/><path class="cls-2" d="M929.5,233.2c-.2-4.87,7.53-7.87,10.4-3.72a6,6,0,0,1,1,3.75,5.65,5.65,0,0,1-5.31,5.41A5.6,5.6,0,0,1,929.5,233.2Z"/><path class="cls-1" d="M933.34,229.06c1.13,7.39,4.07,14.82,10.09,19.58,2.68,2.12,5.37,3,8.55,4,5.93,1.9,10.36,2.65,11.43,9.83a25.66,25.66,0,0,1-.49,7.79,1.66,1.66,0,0,0-.19.53c-.66,4.83-.53,11.14,5.53,12.08s13.47-5.54,18.11-8.5c4-2.55,7.39-5.48,7-10.65-.36-4.66-3.56-8.73-4.25-13.38,0-.24-.07-.48-.1-.72-.93-8,3.52-15.23,5.64-22.69.39-1.36,2.4-9.64,2.84-12.46.85-5.48,2.45-10.15,2.19-16.56-.23-5.63-2.62-14-7.41-18-13.51-11.14-34.1-12.82-46.73-3.62-6.35,4.63-9.81,12.1-11.34,19.63A99.86,99.86,0,0,0,933.34,229.06Z"/><path class="cls-2" d="M937.08,197.71c1.91-10.55,7.69-20.31,19-22.48,9-1.74,22.44-1.31,30,4,9.2,6.47,9.6,15.23,9.6,23.44,0,6.87-1.41,12.66-2.9,18.79a63.58,63.58,0,0,1-2.88,9.79,54.92,54.92,0,0,0-3.59,9.76,27.11,27.11,0,0,0,.09,12.09c1.32,5.51,5.22,11.37.76,16.17-2,2.11-6.12,4.77-8.53,6.28-3.13,1.95-10.2,5.34-12.65.87-1.67-3.06.37-7.31.54-10.51.19-3.6-.24-7.29-2.29-10.35-3.37-5.06-8.51-4.76-13.75-6.62C932.06,242.42,934.29,213.11,937.08,197.71Z"/><path class="cls-4" d="M986.12,179.26c-7.6-5.34-21-5.77-30-4-11,2.11-16.74,11.38-18.81,21.58,12.6.45,25.2-.29,37.81-.35,2,0,1.51.94,1.54,2.7a27.16,27.16,0,0,0,1,6.88c1.32,4.76,4.25,8.92,6.95,13A26.88,26.88,0,0,1,989,232a1.6,1.6,0,0,0,.3.78c.22-.5.44-1,.65-1.51a63.58,63.58,0,0,0,2.88-9.79c1.49-6.13,2.9-11.92,2.9-18.79C995.72,194.49,995.32,185.73,986.12,179.26Z"/><path class="cls-1" d="M946.87,183.8h-.29a.79.79,0,0,0,0,1.58h.29A.79.79,0,0,0,946.87,183.8Z"/><path class="cls-1" d="M964.84,178.65a.79.79,0,0,0,0,1.57A.79.79,0,0,0,964.84,178.65Z"/><path class="cls-1" d="M949.52,193.08a.79.79,0,0,0,0,1.57A.79.79,0,0,0,949.52,193.08Z"/><path class="cls-1" d="M958.8,184.54a.79.79,0,0,0,0,1.57A.79.79,0,0,0,958.8,184.54Z"/><path class="cls-1" d="M965.13,196.91a.79.79,0,0,0,0,1.57A.79.79,0,0,0,965.13,196.91Z"/><path class="cls-1" d="M988.84,187.34a.79.79,0,0,0,0,1.57A.79.79,0,0,0,988.84,187.34Z"/><path class="cls-1" d="M974.44,182.12l-.15.15a.79.79,0,0,0,1.12,1.11l.15-.15A.79.79,0,0,0,974.44,182.12Z"/><path class="cls-1" d="M977.35,191.9a.79.79,0,0,0,0,1.58A.79.79,0,0,0,977.35,191.9Z"/><path class="cls-1" d="M991.93,197.79a.79.79,0,0,0,0,1.58A.79.79,0,0,0,991.93,197.79Z"/><path class="cls-1" d="M981.77,207.51a.79.79,0,0,0,0,1.58A.79.79,0,0,0,981.77,207.51Z"/><path class="cls-1" d="M984.86,198.23a.79.79,0,0,0,0,1.58A.79.79,0,0,0,984.86,198.23Z"/><path class="cls-1" d="M991.64,210.6a.79.79,0,0,0,0,1.58A.79.79,0,0,0,991.64,210.6Z"/><path class="cls-1" d="M988,216.49a.79.79,0,0,0,0,1.58A.79.79,0,0,0,988,216.49Z"/><path class="cls-1" d="M941.42,194.7a.79.79,0,0,0,0,1.57A.79.79,0,0,0,941.42,194.7Z"/><path class="cls-1" d="M989.12,239.32a9.06,9.06,0,0,0,12.27-1.38,9.17,9.17,0,0,0-.77-12.63c-3-2.74-9.1-3.16-11.89.23a10.94,10.94,0,0,0-1.17,1.73C985.44,231.15,985.42,236.41,989.12,239.32Z"/><path class="cls-2" d="M986.15,236.79c-3.59-3.3-5.87-2.31-2.26-5.83,2.37-2.31,9.32-8.42,15-2.64a5.54,5.54,0,0,1,.09,7.57C996.86,238.39,988.58,239,986.15,236.79Z"/><path class="cls-1" d="M961.41,214.52c.46-.91,1.29-1.47,2.25-.51a5.9,5.9,0,0,1,1.37,4.76c-.25,1.66-1.77,1.22-2.7.38a4,4,0,0,1-1.21-3.84A3.9,3.9,0,0,1,961.41,214.52Z"/><path class="cls-1" d="M940.79,214.52c.46-.91,1.29-1.47,2.25-.51a5.9,5.9,0,0,1,1.37,4.76c-.25,1.66-1.77,1.22-2.7.38a4,4,0,0,1-1.21-3.84A3.9,3.9,0,0,1,940.79,214.52Z"/><path class="cls-1" d="M948.11,215.6c.36-2,3.38-1.09,3,.89a15.63,15.63,0,0,0,.82,8.29c.7,1.91-2.36,2.68-3.05.79A18.8,18.8,0,0,1,948.11,215.6Z"/><path class="cls-1" d="M957.4,229.62a6,6,0,0,0,5.31-4.72c.39-2,3.54-1.73,3.14.26a9.18,9.18,0,0,1-7.87,7.56C956,233,955.38,229.89,957.4,229.62Z"/><path class="cls-1" d="M949.26,270.4l-.86.07a1.38,1.38,0,0,0-.27.08,4.11,4.11,0,0,0-1.61-.75c-1.8-.42-3.71-.58-5.55-.84l0,0a1.82,1.82,0,0,0-1.46.15l-43.85,8.36a1.71,1.71,0,0,0-1.23,2.32,7,7,0,0,0,3,6.54,1.58,1.58,0,0,0,1.31.22,1.69,1.69,0,0,0,.32,0l41.39-8.15a1.56,1.56,0,0,0,1.48-.06c1.73-1,3.5-1.94,5.21-3a4.21,4.21,0,0,0,1.67-1.73l.72-.05A1.58,1.58,0,0,0,949.26,270.4Z"/><path class="cls-2" d="M897.54,280.27l5.26-1a5.46,5.46,0,0,0,.8,3.18l-4.75.93A3.83,3.83,0,0,1,897.54,280.27Z"/><path class="cls-2" d="M939.83,275.31l-32.6,6.41a1.13,1.13,0,0,0-.23-.26,2.14,2.14,0,0,1-.79-2.85l33.22-6.33A9.09,9.09,0,0,1,939.83,275.31Z"/><path class="cls-2" d="M944.78,273.08l-1.57.89-.27.16a12.28,12.28,0,0,0-.24-1.72l1,.15,1.47.22Z"/><path class="cls-1" d="M917,268.4c-11.78,2.39-19.93,14.48-20.9,25.83a1.6,1.6,0,0,0,0,.39,60.84,60.84,0,0,0,.36,33.5c2.43,8,7.1,19.39,16,21.94,7.51,2.14,14.71-3.33,16.87-10.38,3.48-11.4-4.33-21.56-11.48-29.62a13.26,13.26,0,0,0,3.78-6,1.41,1.41,0,0,0,.4-.05c4-1.34,8.81-5,6.49-9.79a6.07,6.07,0,0,0-1.3-1.77,5.86,5.86,0,0,0-2.47-5.78c.81-3.65-2.39-6.27-5.94-6.84,3-2.05,6-4.57,5.75-7.5C924.36,268.34,920,267.79,917,268.4Z"/><path class="cls-2" d="M917.1,276.85c-4,3.23-9.38,5.66-12.14,10.25-1.05,1.73,1.83,3,2.87,1.31a11.31,11.31,0,0,1,6.15-5c1.76-.58,8.21-1.16,7.87,2.07-3-.47-6,.88-8.6,2.29-1.76.94-.69,3.9,1.1,3s3.74-2.06,5.83-2.17c1.71-.1,3.7.7,4,2.41-2.61-.43-5.67.42-8,1.35-1.88.75-.79,3.71,1.1,2.95,2.33-.93,6.17-2.58,8.16-.12s-1,4.41-3.21,5.42a11.74,11.74,0,0,0,0-1.45,1.58,1.58,0,0,0-3.14.27,9.94,9.94,0,0,1-5.36,9.88c-1.81.89-.73,3.86,1.09,3,.2-.1.39-.22.58-.32,5.47,6.1,11.43,13,11.68,21.59.21,7-4.85,15.31-13,13.77-4.28-.81-7.1-4.6-9.22-8-8.17-13.13-9.52-29.43-5.6-44.15a1.51,1.51,0,0,0,0-.79,26.6,26.6,0,0,1,9.48-18.18,24.28,24.28,0,0,1,5.26-3.76,13.57,13.57,0,0,1,4-1.05c.87-.1,2.12-.44,2.93,0C923.19,272.56,917.82,276.28,917.1,276.85Z"/><path class="cls-1" d="M1013.93,367.44c0-1.19-.69-2.67-1.22-4.51q-1.2-4.12-2.41-8.24c-1.55-5.34-3.12-10.67-4.67-16-3.11-10.66-6.19-21.33-9.1-32.05-.93-3.45-7.25-1.49-9.82-1.28l-14.17,1.18L954.84,308c-2.86.24-5.73.46-8.59.71-5.28.47-3.4,3.09-2,6.77l6.9,18.53,7.37,19.77,3.86,10.35c.84,2.26,1.58,7.43,4.28,8.13,3.18.81,7.22.35,10.48.36q6,0,11.91-.31,6.87-.39,13.7-1.26c2.67-.34,5.46-.16,8.11-.89C1013.18,369.52,1013.91,368.63,1013.93,367.44Z"/><path class="cls-3" d="M967.59,369.19q-10.68-28.67-21.37-57.32L993.56,308q8.48,29.37,17,58.76A193.48,193.48,0,0,1,967.59,369.19Z"/><path class="cls-1" d="M962.6,314.55a1.58,1.58,0,0,0,0,3.15A1.58,1.58,0,0,0,962.6,314.55Z"/><path class="cls-1" d="M974.81,313.4a1.58,1.58,0,0,0,0,3.15A1.58,1.58,0,0,0,974.81,313.4Z"/><path class="cls-1" d="M1067.47,319.15c-4-9.9-11-19.11-18.4-27.31l.28-.64a3.62,3.62,0,0,0,.31-.83,2.79,2.79,0,0,0-.12-1.26,15,15,0,0,0-.81-2,15.81,15.81,0,0,0-1.8-3.08,16.83,16.83,0,0,0-3.73-3.71c-1.17-.81-3.87-2-4.55.08l-.18.54a163.26,163.26,0,0,0-14.35-12.17q-4.8-3.6-9.84-6.86c-2.48-1.6-5.3-5.13-8.43-5.46-4.77-.5-4,9.55-4,12.81a65.8,65.8,0,0,0,10.45,37.37,1.57,1.57,0,0,0,.56.53,54.94,54.94,0,0,0,6.35,7.47,2.92,2.92,0,0,0-.16,2.85,10,10,0,0,0,2,3.48,12.3,12.3,0,0,0,4.78,2.75,3.52,3.52,0,0,0,4-.87c.88.53,1.78,1,2.71,1.52a33.24,33.24,0,0,1-15.49,2.56c-4.13-8.48-13.64-13-22.79-9.7-3.3,1.19-7.71,3.78-8.93,7.35-.88,2.56.08,4.88,2.34,5.76-1.14,3,.3,6.72,3.87,6.44a4.53,4.53,0,0,0-.58,3.27,3.51,3.51,0,0,0,3.57,2.81c-.1.27-.2.54-.28.82-.73,2.48.45,5.24,3.34,5.22,1.57,0,3.1-.89,4.51-1.49l3.72-1.57a42.69,42.69,0,0,0,4.1,3.55,12.82,12.82,0,0,0,5.53,1.61c14.52.75,31.21,7.32,44.92-.47C1071.33,344.31,1071.76,329.62,1067.47,319.15Z"/><path class="cls-2" d="M1014.33,303.85a2,2,0,0,0-.31-.34,61.3,61.3,0,0,1-8.21-43.06,166.22,166.22,0,0,1,31.51,23.78,103.5,103.5,0,0,1-9.59,19.5c-1.22,1.93-2.39,3.9-3.74,5.75a26,26,0,0,1-2.23,2.68,3.26,3.26,0,0,1-.33.31A51.53,51.53,0,0,1,1014.33,303.85Z"/><path class="cls-2" d="M1026.6,320.49a5.07,5.07,0,0,1-4.51-3.88,1.67,1.67,0,0,0,.45-.37,107.26,107.26,0,0,0,18.57-33.33,12.49,12.49,0,0,1,5.31,7.06,104.87,104.87,0,0,1-19.22,30.68A1.61,1.61,0,0,0,1026.6,320.49Z"/><path class="cls-2" d="M1061.15,346.16c-4.81,4.24-11.73,4.85-17.85,4.63-6.78-.24-13.45-1.59-20.14-2.63a26.88,26.88,0,0,0-3.57-.49c-2-.05-4,.47-6-.09a10,10,0,0,1-5-3.25,1.7,1.7,0,0,0-2.26-2.11l-5.84,2.48c-1,.42-3.15,2-3.22-.17,0-.76,1.07-2,1.51-2.54a15.39,15.39,0,0,1,10.19-5.73c2-.25,2-3.4,0-3.15-4.65.57-10.1,3.08-13,7.15-.24-.35-3.22-1.12-.29-3.72.45-.45.92-.88,1.42-1.29a16.52,16.52,0,0,1,2.88-1.87,17.77,17.77,0,0,1,7.5-1.91c2-.09,2-3.24,0-3.15a20.53,20.53,0,0,0-14.21,6.2c-.94.18-4.1-1.08-1.93-4.14a12.94,12.94,0,0,1,1.73-1.49,22.21,22.21,0,0,1,3.29-2,24.63,24.63,0,0,1,7.89-2.4c2-.29,1.15-3.33-.83-3-4.63.66-10.31,2.61-13.78,6.15q-1.56-3.9,2.11-5.54a15.33,15.33,0,0,1,4.16-2,15,15,0,0,1,7.49-.47c5.34,1.11,9.21,4.91,11.33,9.8a1.24,1.24,0,0,0,1.67.71l.08,0a35.78,35.78,0,0,0,28.63-10.48,1.58,1.58,0,0,0-2.23-2.23,27.91,27.91,0,0,1-5.55,4.5c-1.44.82-1.1.68-2.41.25a17.16,17.16,0,0,1-3.32-1.51c.29-.41.59-.83.9-1.21q2.88-3.5,5.45-7.2a110.14,110.14,0,0,0,9-15.61c.23-.48.44-1,.66-1.45a148.94,148.94,0,0,1,10.75,14.07C1065.2,319.39,1072.57,336.1,1061.15,346.16Z"/></g></g></svg>